{"glyphs":{"0":{"ha":608,"x_min":42,"x_max":568,"o":"m 254 -18 q 100 44 158 -18 q 42 208 42 107 q 47 272 42 243 q 106 418 61 354 q 217 518 151 482 q 357 554 283 554 q 510 493 453 554 q 568 332 568 432 q 563 268 568 297 q 503 120 547 185 q 393 19 458 56 q 254 -18 328 -18 m 274 1 q 400 69 350 1 q 469 251 450 138 q 478 343 478 301 q 440 485 478 436 q 342 535 403 535 q 212 465 267 535 q 138 283 157 396 q 131 203 131 238 q 168 56 131 111 q 274 1 206 1 z "},"1":{"ha":404,"x_min":14,"x_max":340,"o":"m 19 0 q 14 8 14 0 q 19 17 14 17 q 97 24 71 17 q 136 51 124 31 q 157 113 149 71 l 204 375 q 213 438 213 428 q 208 460 213 453 q 192 467 203 467 q 153 457 179 467 q 93 432 126 447 l 90 431 q 83 438 85 431 q 88 447 82 444 l 297 550 q 306 550 301 553 q 307 544 310 547 l 229 113 q 225 71 225 88 q 248 27 225 38 q 336 17 271 17 q 340 8 340 17 q 336 0 340 0 q 271 1 294 0 l 179 3 l 86 1 q 19 0 63 0 z "},"2":{"ha":504,"x_min":1,"x_max":453,"o":"m 7 19 q 215 192 140 124 q 324 317 289 260 q 360 431 360 374 q 336 498 360 472 q 272 524 313 524 q 103 356 176 524 q 97 353 100 353 q 89 356 93 353 q 86 363 85 358 l 167 568 q 176 571 169 572 q 181 564 182 569 q 176 542 176 550 q 190 526 176 526 q 232 536 203 526 q 324 554 286 554 q 409 525 378 554 q 440 446 440 496 q 407 338 440 389 q 310 231 374 286 q 113 74 246 175 q 110 70 108 72 q 115 68 111 68 q 307 73 250 68 q 391 97 364 78 q 435 161 418 115 q 442 165 438 165 q 449 163 446 165 q 451 157 453 160 l 407 13 q 394 0 404 0 l 14 0 q 4 7 7 0 q 7 19 1 14 z "},"3":{"ha":475,"x_min":-50,"x_max":424,"o":"m 419 392 q 363 269 408 326 q 253 182 318 211 q 356 130 321 174 q 390 24 390 86 q 342 -124 390 -46 q 196 -273 293 -203 q -40 -383 99 -343 q -48 -376 -46 -385 q -47 -367 -50 -368 q 195 -219 113 -315 q 294 -22 278 -122 q 299 25 299 1 q 271 115 299 81 q 185 150 243 150 q 124 140 163 150 q 115 149 118 139 q 118 160 113 158 q 272 238 221 186 q 338 378 322 289 q 343 426 343 414 q 322 498 343 472 q 257 524 300 524 q 156 483 201 524 q 74 357 111 443 q 69 356 72 356 q 60 358 65 356 q 57 364 56 361 l 140 565 q 144 567 142 567 q 152 564 149 567 q 154 557 156 561 q 149 538 149 546 q 165 524 149 524 q 207 535 174 524 q 256 549 235 544 q 300 554 276 554 q 392 519 360 554 q 424 429 424 483 q 419 392 424 411 z "},"4":{"ha":588,"x_min":-26,"x_max":507,"o":"m 501 67 q 501 35 507 67 q 490 3 496 3 q 388 8 457 6 l 347 -219 q 335 -239 344 -235 l 279 -261 l 271 -264 q 267 -253 265 -264 l 313 10 q -17 13 225 13 q -24 18 -22 13 q -21 29 -26 24 l 465 553 q 472 556 468 556 q 480 553 476 556 q 482 547 483 551 l 397 64 q 501 67 429 64 m 57 58 q 322 61 169 58 l 386 425 l 51 68 q 49 61 47 64 q 57 58 50 58 z "},"5":{"ha":519,"x_min":-44,"x_max":501,"o":"m 486 588 q 490 590 489 590 q 498 588 494 590 q 500 582 501 585 l 458 486 q 442 465 450 469 q 418 461 435 461 l 179 456 q 156 435 164 456 l 101 272 q 327 216 254 271 q 400 65 400 161 q 396 13 400 40 q 276 -193 375 -103 q -32 -382 176 -283 l -33 -382 q -42 -376 -39 -382 q -39 -367 -44 -369 q 210 -196 132 -282 q 306 -11 289 -110 q 310 39 310 17 q 250 181 310 131 q 75 232 190 232 q 67 237 69 232 q 67 249 64 242 l 150 496 q 156 508 153 506 q 169 511 158 510 q 386 540 331 532 q 459 558 442 549 q 486 588 476 567 z "},"6":{"ha":583,"x_min":50,"x_max":625,"o":"m 267 -18 q 108 39 165 -18 q 50 200 50 96 q 60 289 50 244 q 159 543 83 418 q 353 767 235 668 q 615 918 471 865 q 623 912 621 919 q 621 901 625 904 q 391 745 492 842 q 228 536 290 649 q 149 314 167 424 q 139 222 139 269 q 183 67 139 126 q 307 8 226 8 q 396 48 360 8 q 444 161 432 88 q 449 218 449 190 q 423 317 449 281 q 346 354 397 354 q 285 340 315 354 q 214 293 254 325 l 211 292 q 204 296 207 292 q 203 303 201 300 q 393 392 285 392 q 503 349 467 392 q 539 240 539 306 q 535 197 539 218 q 485 90 525 139 q 388 11 446 40 q 267 -18 331 -18 z "},"7":{"ha":538,"x_min":-8,"x_max":538,"o":"m 0 -382 q -6 -379 -3 -383 q -7 -372 -8 -375 l 476 460 q 472 469 482 469 q 215 463 289 469 q 113 439 140 457 q 65 374 86 421 q 60 371 65 371 q 51 374 56 371 q 49 379 47 376 l 126 576 q 131 579 126 579 q 140 576 135 579 q 143 572 144 574 q 139 553 139 560 q 151 540 139 543 q 194 536 163 536 l 526 536 q 535 530 532 536 q 535 518 538 524 l 115 -306 q 83 -339 103 -329 l 0 -382 z "},"8":{"ha":611,"x_min":42,"x_max":568,"o":"m 410 478 q 492 417 461 443 q 546 352 524 390 q 568 265 568 314 q 564 224 568 244 q 507 99 551 154 q 399 13 463 44 q 268 -18 335 -18 q 146 8 197 -18 q 68 76 94 33 q 42 171 42 119 q 115 346 42 263 q 283 471 189 429 q 213 534 238 503 q 189 607 189 565 q 192 633 189 614 q 234 723 200 686 q 314 778 268 760 q 406 797 360 797 q 490 777 454 797 q 543 726 525 757 q 561 663 561 694 q 558 639 561 653 q 511 557 551 600 q 410 478 471 514 m 267 649 q 299 564 267 599 q 396 486 332 529 q 482 622 472 550 q 485 653 485 642 q 456 740 485 704 q 378 775 426 775 q 298 741 329 775 q 267 649 267 707 m 479 183 q 483 229 483 208 q 461 319 483 281 q 407 385 439 358 q 324 444 375 411 l 299 461 q 190 370 232 426 q 135 243 147 314 q 131 199 131 221 q 178 63 131 118 q 307 7 225 7 q 417 55 369 7 q 479 183 465 103 z "},"9":{"ha":583,"x_min":-42,"x_max":531,"o":"m -32 -382 q -40 -376 -37 -383 q -37 -365 -42 -368 q 190 -209 92 -306 q 351 0 289 -112 q 435 222 413 113 q 444 308 444 263 q 401 465 444 403 q 278 528 357 528 q 189 494 225 528 q 140 392 153 461 q 135 339 135 368 q 168 227 135 272 q 254 182 201 182 q 308 197 282 182 q 368 243 333 211 q 372 244 369 244 q 380 241 376 244 q 382 235 383 238 q 207 144 307 144 q 88 197 129 144 q 46 319 46 250 q 84 436 46 382 q 185 522 122 490 q 318 554 247 554 q 474 492 418 554 q 531 325 531 431 q 524 247 531 282 q 425 -6 501 119 q 231 -231 349 -132 q -32 -382 113 -329 z "},"\u0000":{"ha":0,"x_min":0,"x_max":0,"o":""},"\r":{"ha":325,"x_min":0,"x_max":0,"o":""}," ":{"ha":325,"x_min":0,"x_max":0,"o":""},"A":{"ha":833,"x_min":-53,"x_max":788,"o":"m 782 17 q 788 8 788 17 q 782 0 788 0 q 719 3 761 0 q 642 6 669 6 q 568 3 613 6 q 507 0 526 0 q 503 8 503 0 q 507 17 503 17 q 578 30 558 17 q 599 78 599 43 q 596 117 599 101 l 540 458 l 331 458 l 179 183 q 136 67 136 103 q 158 27 136 38 q 226 17 181 17 q 231 8 232 17 q 225 0 231 0 q 163 3 210 0 q 81 6 110 6 q 13 3 51 6 q -47 0 -26 0 q -53 8 -53 0 q -47 17 -53 17 q 39 52 -7 17 q 133 171 85 88 l 531 882 q 540 886 533 886 q 556 879 553 886 l 678 117 q 693 54 685 74 q 722 26 701 35 q 782 17 742 17 m 346 488 l 536 488 l 493 756 l 346 488 z "},"Á":{"ha":833,"x_min":-53,"x_max":788,"o":"m 782 17 q 788 8 788 17 q 782 0 788 0 q 719 3 761 0 q 642 6 669 6 q 568 3 613 6 q 507 0 526 0 q 503 8 503 0 q 507 17 503 17 q 578 30 558 17 q 599 78 599 43 q 596 117 599 101 l 540 458 l 331 458 l 179 183 q 136 67 136 103 q 158 27 136 38 q 226 17 181 17 q 231 8 232 17 q 225 0 231 0 q 163 3 210 0 q 81 6 110 6 q 13 3 51 6 q -47 0 -26 0 q -53 8 -53 0 q -47 17 -53 17 q 39 52 -7 17 q 133 171 85 88 l 531 882 q 540 886 533 886 q 556 879 553 886 l 678 117 q 693 54 685 74 q 722 26 701 35 q 782 17 742 17 m 346 488 l 536 488 l 493 756 l 346 488 m 467 942 q 460 948 461 942 q 463 957 458 954 q 619 1047 514 983 l 688 1089 q 720 1083 693 1092 q 767 1063 747 1074 q 778 1050 788 1051 q 620 1003 692 1029 q 469 943 549 978 l 467 942 z "},"Ă":{"ha":833,"x_min":-53,"x_max":788,"o":"m 782 17 q 788 8 788 17 q 782 0 788 0 q 719 3 761 0 q 642 6 669 6 q 568 3 613 6 q 507 0 526 0 q 503 8 503 0 q 507 17 503 17 q 578 30 558 17 q 599 78 599 43 q 596 117 599 101 l 540 458 l 331 458 l 179 183 q 136 67 136 103 q 158 27 136 38 q 226 17 181 17 q 231 8 232 17 q 225 0 231 0 q 163 3 210 0 q 81 6 110 6 q 13 3 51 6 q -47 0 -26 0 q -53 8 -53 0 q -47 17 -53 17 q 39 52 -7 17 q 133 171 85 88 l 531 882 q 540 886 533 886 q 556 879 553 886 l 678 117 q 693 54 685 74 q 722 26 701 35 q 782 17 742 17 m 346 488 l 536 488 l 493 756 l 346 488 m 550 925 q 458 960 490 925 q 426 1044 426 994 q 447 1060 426 1053 q 485 1067 467 1067 q 497 1063 497 1067 q 523 998 500 1022 q 586 974 546 974 q 640 993 617 974 q 685 1057 664 1013 q 693 1061 689 1061 q 704 1058 699 1061 q 708 1053 710 1056 q 550 925 650 925 z "},"Ắ":{"ha":833,"x_min":-53,"x_max":788,"o":"m 782 17 q 788 8 788 17 q 782 0 788 0 q 719 3 761 0 q 642 6 669 6 q 568 3 613 6 q 507 0 526 0 q 503 8 503 0 q 507 17 503 17 q 578 30 558 17 q 599 78 599 43 q 596 117 599 101 l 540 458 l 331 458 l 179 183 q 136 67 136 103 q 158 27 136 38 q 226 17 181 17 q 231 8 232 17 q 225 0 231 0 q 163 3 210 0 q 81 6 110 6 q 13 3 51 6 q -47 0 -26 0 q -53 8 -53 0 q -47 17 -53 17 q 39 52 -7 17 q 133 171 85 88 l 531 882 q 540 886 533 886 q 556 879 553 886 l 678 117 q 693 54 685 74 q 722 26 701 35 q 782 17 742 17 m 346 488 l 536 488 l 493 756 l 346 488 m 542 925 q 450 960 482 925 q 418 1044 418 994 q 438 1060 418 1053 q 476 1067 458 1067 q 489 1063 489 1067 q 515 998 492 1022 q 578 974 538 974 q 632 993 608 974 q 676 1057 656 1013 q 685 1061 681 1061 q 696 1058 690 1061 q 700 1053 701 1056 q 542 925 642 925 m 561 1047 q 557 1046 560 1046 q 551 1051 553 1046 q 553 1060 550 1056 q 682 1194 628 1128 q 713 1191 688 1200 q 756 1169 738 1182 q 765 1154 775 1157 q 561 1047 669 1118 z "},"Ặ":{"ha":833,"x_min":-53,"x_max":788,"o":"m 782 17 q 788 8 788 17 q 782 0 788 0 q 719 3 761 0 q 642 6 669 6 q 568 3 613 6 q 507 0 526 0 q 503 8 503 0 q 507 17 503 17 q 578 30 558 17 q 599 78 599 43 q 596 117 599 101 l 540 458 l 331 458 l 179 183 q 136 67 136 103 q 158 27 136 38 q 226 17 181 17 q 231 8 232 17 q 225 0 231 0 q 163 3 210 0 q 81 6 110 6 q 13 3 51 6 q -47 0 -26 0 q -53 8 -53 0 q -47 17 -53 17 q 39 52 -7 17 q 133 171 85 88 l 531 882 q 540 886 533 886 q 556 879 553 886 l 678 117 q 693 54 685 74 q 722 26 701 35 q 782 17 742 17 m 346 488 l 536 488 l 493 756 l 346 488 m 347 -262 q 303 -247 319 -262 q 288 -203 288 -231 q 303 -161 288 -176 q 347 -146 319 -146 q 390 -161 375 -146 q 406 -203 406 -176 q 390 -247 406 -231 q 347 -262 375 -262 m 550 925 q 458 960 490 925 q 426 1044 426 994 q 447 1060 426 1053 q 485 1067 467 1067 q 497 1063 497 1067 q 523 998 500 1022 q 586 974 546 974 q 640 993 617 974 q 685 1057 664 1013 q 693 1061 689 1061 q 704 1058 699 1061 q 708 1053 710 1056 q 550 925 650 925 z "},"Ằ":{"ha":833,"x_min":-53,"x_max":788,"o":"m 782 17 q 788 8 788 17 q 782 0 788 0 q 719 3 761 0 q 642 6 669 6 q 568 3 613 6 q 507 0 526 0 q 503 8 503 0 q 507 17 503 17 q 578 30 558 17 q 599 78 599 43 q 596 117 599 101 l 540 458 l 331 458 l 179 183 q 136 67 136 103 q 158 27 136 38 q 226 17 181 17 q 231 8 232 17 q 225 0 231 0 q 163 3 210 0 q 81 6 110 6 q 13 3 51 6 q -47 0 -26 0 q -53 8 -53 0 q -47 17 -53 17 q 39 52 -7 17 q 133 171 85 88 l 531 882 q 540 886 533 886 q 556 879 553 886 l 678 117 q 693 54 685 74 q 722 26 701 35 q 782 17 742 17 m 346 488 l 536 488 l 493 756 l 346 488 m 550 925 q 458 960 490 925 q 426 1044 426 994 q 447 1060 426 1053 q 485 1067 467 1067 q 497 1063 497 1067 q 523 998 500 1022 q 586 974 546 974 q 640 993 617 974 q 685 1057 664 1013 q 693 1061 689 1061 q 704 1058 699 1061 q 708 1053 710 1056 q 550 925 650 925 m 615 1047 q 535 1108 574 1082 q 450 1154 497 1133 q 463 1169 440 1157 q 515 1191 486 1182 q 547 1194 544 1200 q 628 1060 579 1125 q 629 1056 629 1058 q 625 1049 629 1051 q 615 1047 621 1046 z "},"Ẳ":{"ha":833,"x_min":-53,"x_max":788,"o":"m 782 17 q 788 8 788 17 q 782 0 788 0 q 719 3 761 0 q 642 6 669 6 q 568 3 613 6 q 507 0 526 0 q 503 8 503 0 q 507 17 503 17 q 578 30 558 17 q 599 78 599 43 q 596 117 599 101 l 540 458 l 331 458 l 179 183 q 136 67 136 103 q 158 27 136 38 q 226 17 181 17 q 231 8 232 17 q 225 0 231 0 q 163 3 210 0 q 81 6 110 6 q 13 3 51 6 q -47 0 -26 0 q -53 8 -53 0 q -47 17 -53 17 q 39 52 -7 17 q 133 171 85 88 l 531 882 q 540 886 533 886 q 556 879 553 886 l 678 117 q 693 54 685 74 q 722 26 701 35 q 782 17 742 17 m 346 488 l 536 488 l 493 756 l 346 488 m 543 925 q 451 960 483 925 q 419 1044 419 994 q 440 1060 419 1053 q 478 1067 460 1067 q 490 1063 490 1067 q 516 998 493 1022 q 579 974 539 974 q 633 993 610 974 q 678 1057 657 1013 q 686 1061 682 1061 q 697 1058 692 1061 q 701 1053 703 1056 q 543 925 643 925 m 565 1036 q 571 1070 563 1054 q 596 1106 579 1086 q 619 1139 611 1125 q 626 1168 626 1153 q 614 1194 626 1185 q 585 1204 601 1204 q 551 1196 571 1204 l 550 1196 q 542 1201 546 1196 q 544 1207 539 1206 q 591 1226 567 1219 q 632 1233 615 1233 q 673 1219 658 1233 q 688 1186 688 1206 q 672 1142 688 1161 q 628 1100 657 1124 q 592 1066 604 1081 q 581 1036 581 1051 q 575 1033 583 1033 q 565 1036 567 1033 z "},"Ẵ":{"ha":833,"x_min":-53,"x_max":788,"o":"m 782 17 q 788 8 788 17 q 782 0 788 0 q 719 3 761 0 q 642 6 669 6 q 568 3 613 6 q 507 0 526 0 q 503 8 503 0 q 507 17 503 17 q 578 30 558 17 q 599 78 599 43 q 596 117 599 101 l 540 458 l 331 458 l 179 183 q 136 67 136 103 q 158 27 136 38 q 226 17 181 17 q 231 8 232 17 q 225 0 231 0 q 163 3 210 0 q 81 6 110 6 q 13 3 51 6 q -47 0 -26 0 q -53 8 -53 0 q -47 17 -53 17 q 39 52 -7 17 q 133 171 85 88 l 531 882 q 540 886 533 886 q 556 879 553 886 l 678 117 q 693 54 685 74 q 722 26 701 35 q 782 17 742 17 m 346 488 l 536 488 l 493 756 l 346 488 m 544 925 q 453 960 485 925 q 421 1044 421 994 q 441 1060 421 1053 q 479 1067 461 1067 q 492 1063 492 1067 q 517 998 494 1022 q 581 974 540 974 q 635 993 611 974 q 679 1057 658 1013 q 688 1061 683 1061 q 699 1058 693 1061 q 703 1053 704 1056 q 544 925 644 925 m 410 1111 q 402 1115 406 1111 q 401 1121 399 1118 q 458 1181 426 1154 q 522 1207 489 1207 q 594 1192 546 1207 q 696 1172 656 1172 q 735 1181 721 1172 q 768 1210 750 1190 l 771 1210 q 778 1206 775 1210 q 778 1200 781 1203 q 717 1133 740 1150 q 665 1115 693 1115 q 613 1122 640 1115 q 581 1131 586 1129 q 483 1149 524 1149 q 447 1142 460 1149 q 425 1125 435 1135 q 411 1111 415 1115 l 410 1111 z "},"Ǎ":{"ha":833,"x_min":-53,"x_max":788,"o":"m 782 17 q 788 8 788 17 q 782 0 788 0 q 719 3 761 0 q 642 6 669 6 q 568 3 613 6 q 507 0 526 0 q 503 8 503 0 q 507 17 503 17 q 578 30 558 17 q 599 78 599 43 q 596 117 599 101 l 540 458 l 331 458 l 179 183 q 136 67 136 103 q 158 27 136 38 q 226 17 181 17 q 231 8 232 17 q 225 0 231 0 q 163 3 210 0 q 81 6 110 6 q 13 3 51 6 q -47 0 -26 0 q -53 8 -53 0 q -47 17 -53 17 q 39 52 -7 17 q 133 171 85 88 l 531 882 q 540 886 533 886 q 556 879 553 886 l 678 117 q 693 54 685 74 q 722 26 701 35 q 782 17 742 17 m 346 488 l 536 488 l 493 756 l 346 488 m 433 1074 l 433 1075 q 438 1081 433 1078 q 443 1083 442 1085 l 560 1003 l 701 1085 q 709 1081 704 1086 q 710 1074 714 1075 l 561 938 q 547 932 556 932 q 535 938 540 932 l 433 1074 z "},"Â":{"ha":833,"x_min":-53,"x_max":788,"o":"m 782 17 q 788 8 788 17 q 782 0 788 0 q 719 3 761 0 q 642 6 669 6 q 568 3 613 6 q 507 0 526 0 q 503 8 503 0 q 507 17 503 17 q 578 30 558 17 q 599 78 599 43 q 596 117 599 101 l 540 458 l 331 458 l 179 183 q 136 67 136 103 q 158 27 136 38 q 226 17 181 17 q 231 8 232 17 q 225 0 231 0 q 163 3 210 0 q 81 6 110 6 q 13 3 51 6 q -47 0 -26 0 q -53 8 -53 0 q -47 17 -53 17 q 39 52 -7 17 q 133 171 85 88 l 531 882 q 540 886 533 886 q 556 879 553 886 l 678 117 q 693 54 685 74 q 722 26 701 35 q 782 17 742 17 m 346 488 l 536 488 l 493 756 l 346 488 m 419 917 q 413 920 415 917 q 413 926 410 924 l 561 1061 q 574 1068 565 1068 q 586 1061 582 1068 l 690 926 l 690 925 q 687 917 690 921 q 681 917 683 914 l 561 996 l 421 917 l 419 917 z "},"Ấ":{"ha":833,"x_min":-53,"x_max":864,"o":"m 782 17 q 788 8 788 17 q 782 0 788 0 q 719 3 761 0 q 642 6 669 6 q 568 3 613 6 q 507 0 526 0 q 503 8 503 0 q 507 17 503 17 q 578 30 558 17 q 599 78 599 43 q 596 117 599 101 l 540 458 l 331 458 l 179 183 q 136 67 136 103 q 158 27 136 38 q 226 17 181 17 q 231 8 232 17 q 225 0 231 0 q 163 3 210 0 q 81 6 110 6 q 13 3 51 6 q -47 0 -26 0 q -53 8 -53 0 q -47 17 -53 17 q 39 52 -7 17 q 133 171 85 88 l 531 882 q 540 886 533 886 q 556 879 553 886 l 678 117 q 693 54 685 74 q 722 26 701 35 q 782 17 742 17 m 346 488 l 536 488 l 493 756 l 346 488 m 419 917 q 413 920 415 917 q 413 926 410 924 l 561 1061 q 574 1068 565 1068 q 586 1061 582 1068 l 690 926 l 690 925 q 687 917 690 921 q 681 917 683 914 l 561 996 l 421 917 l 419 917 m 657 997 q 653 996 656 996 q 647 1001 649 996 q 649 1010 646 1006 q 778 1144 724 1078 q 808 1141 783 1150 q 852 1119 833 1132 q 861 1104 871 1107 q 657 997 765 1068 z "},"Ậ":{"ha":833,"x_min":-53,"x_max":788,"o":"m 782 17 q 788 8 788 17 q 782 0 788 0 q 719 3 761 0 q 642 6 669 6 q 568 3 613 6 q 507 0 526 0 q 503 8 503 0 q 507 17 503 17 q 578 30 558 17 q 599 78 599 43 q 596 117 599 101 l 540 458 l 331 458 l 179 183 q 136 67 136 103 q 158 27 136 38 q 226 17 181 17 q 231 8 232 17 q 225 0 231 0 q 163 3 210 0 q 81 6 110 6 q 13 3 51 6 q -47 0 -26 0 q -53 8 -53 0 q -47 17 -53 17 q 39 52 -7 17 q 133 171 85 88 l 531 882 q 540 886 533 886 q 556 879 553 886 l 678 117 q 693 54 685 74 q 722 26 701 35 q 782 17 742 17 m 346 488 l 536 488 l 493 756 l 346 488 m 347 -262 q 303 -247 319 -262 q 288 -203 288 -231 q 303 -161 288 -176 q 347 -146 319 -146 q 390 -161 375 -146 q 406 -203 406 -176 q 390 -247 406 -231 q 347 -262 375 -262 m 419 917 q 413 920 415 917 q 413 926 410 924 l 561 1061 q 574 1068 565 1068 q 586 1061 582 1068 l 690 926 l 690 925 q 687 917 690 921 q 681 917 683 914 l 561 996 l 421 917 l 419 917 z "},"Ầ":{"ha":833,"x_min":-53,"x_max":788,"o":"m 782 17 q 788 8 788 17 q 782 0 788 0 q 719 3 761 0 q 642 6 669 6 q 568 3 613 6 q 507 0 526 0 q 503 8 503 0 q 507 17 503 17 q 578 30 558 17 q 599 78 599 43 q 596 117 599 101 l 540 458 l 331 458 l 179 183 q 136 67 136 103 q 158 27 136 38 q 226 17 181 17 q 231 8 232 17 q 225 0 231 0 q 163 3 210 0 q 81 6 110 6 q 13 3 51 6 q -47 0 -26 0 q -53 8 -53 0 q -47 17 -53 17 q 39 52 -7 17 q 133 171 85 88 l 531 882 q 540 886 533 886 q 556 879 553 886 l 678 117 q 693 54 685 74 q 722 26 701 35 q 782 17 742 17 m 346 488 l 536 488 l 493 756 l 346 488 m 417 917 q 410 920 413 917 q 410 926 407 924 l 558 1061 q 571 1068 563 1068 q 583 1061 579 1068 l 688 926 l 688 925 q 684 917 688 921 q 678 917 681 914 l 558 996 l 418 917 l 417 917 m 764 979 q 684 1040 722 1014 q 599 1086 646 1065 q 612 1101 589 1089 q 664 1123 635 1114 q 696 1126 693 1132 q 776 992 728 1057 q 778 988 778 990 q 774 981 778 983 q 764 979 769 978 z "},"Ẩ":{"ha":833,"x_min":-53,"x_max":788,"o":"m 782 17 q 788 8 788 17 q 782 0 788 0 q 719 3 761 0 q 642 6 669 6 q 568 3 613 6 q 507 0 526 0 q 503 8 503 0 q 507 17 503 17 q 578 30 558 17 q 599 78 599 43 q 596 117 599 101 l 540 458 l 331 458 l 179 183 q 136 67 136 103 q 158 27 136 38 q 226 17 181 17 q 231 8 232 17 q 225 0 231 0 q 163 3 210 0 q 81 6 110 6 q 13 3 51 6 q -47 0 -26 0 q -53 8 -53 0 q -47 17 -53 17 q 39 52 -7 17 q 133 171 85 88 l 531 882 q 540 886 533 886 q 556 879 553 886 l 678 117 q 693 54 685 74 q 722 26 701 35 q 782 17 742 17 m 346 488 l 536 488 l 493 756 l 346 488 m 418 917 q 411 920 414 917 q 411 926 408 924 l 560 1061 q 572 1068 564 1068 q 585 1061 581 1068 l 689 926 l 689 925 q 685 917 689 921 q 679 917 682 914 l 560 996 l 419 917 l 418 917 m 658 986 q 664 1020 656 1004 q 689 1056 672 1036 q 712 1089 704 1075 q 719 1118 719 1103 q 707 1144 719 1135 q 678 1154 694 1154 q 644 1146 664 1154 l 643 1146 q 635 1151 639 1146 q 638 1157 632 1156 q 684 1176 660 1169 q 725 1183 708 1183 q 766 1169 751 1183 q 781 1136 781 1156 q 765 1092 781 1111 q 721 1050 750 1074 q 685 1016 697 1031 q 674 986 674 1001 q 668 983 676 983 q 658 986 660 983 z "},"Ẫ":{"ha":833,"x_min":-53,"x_max":788,"o":"m 782 17 q 788 8 788 17 q 782 0 788 0 q 719 3 761 0 q 642 6 669 6 q 568 3 613 6 q 507 0 526 0 q 503 8 503 0 q 507 17 503 17 q 578 30 558 17 q 599 78 599 43 q 596 117 599 101 l 540 458 l 331 458 l 179 183 q 136 67 136 103 q 158 27 136 38 q 226 17 181 17 q 231 8 232 17 q 225 0 231 0 q 163 3 210 0 q 81 6 110 6 q 13 3 51 6 q -47 0 -26 0 q -53 8 -53 0 q -47 17 -53 17 q 39 52 -7 17 q 133 171 85 88 l 531 882 q 540 886 533 886 q 556 879 553 886 l 678 117 q 693 54 685 74 q 722 26 701 35 q 782 17 742 17 m 346 488 l 536 488 l 493 756 l 346 488 m 410 917 q 403 920 406 917 q 403 926 400 924 l 551 1061 q 564 1068 556 1068 q 576 1061 572 1068 l 681 926 l 681 925 q 677 917 681 921 q 671 917 674 914 l 551 996 l 411 917 l 410 917 m 410 1079 q 403 1083 406 1079 q 403 1089 400 1086 q 458 1147 426 1121 q 524 1174 490 1174 q 593 1160 543 1174 q 697 1140 657 1140 q 738 1150 722 1140 q 768 1178 753 1160 l 769 1178 q 777 1174 774 1178 q 778 1168 781 1171 q 716 1100 740 1118 q 665 1082 692 1082 q 581 1099 636 1082 q 545 1108 575 1100 q 483 1117 515 1117 q 447 1109 460 1117 q 425 1092 435 1101 q 413 1079 415 1082 l 410 1079 z "},"Ä":{"ha":833,"x_min":-53,"x_max":788,"o":"m 782 17 q 788 8 788 17 q 782 0 788 0 q 719 3 761 0 q 642 6 669 6 q 568 3 613 6 q 507 0 526 0 q 503 8 503 0 q 507 17 503 17 q 578 30 558 17 q 599 78 599 43 q 596 117 599 101 l 540 458 l 331 458 l 179 183 q 136 67 136 103 q 158 27 136 38 q 226 17 181 17 q 231 8 232 17 q 225 0 231 0 q 163 3 210 0 q 81 6 110 6 q 13 3 51 6 q -47 0 -26 0 q -53 8 -53 0 q -47 17 -53 17 q 39 52 -7 17 q 133 171 85 88 l 531 882 q 540 886 533 886 q 556 879 553 886 l 678 117 q 693 54 685 74 q 722 26 701 35 q 782 17 742 17 m 346 488 l 536 488 l 493 756 l 346 488 m 467 996 q 424 1011 439 996 q 408 1053 408 1026 q 424 1094 408 1079 q 467 1110 439 1110 q 509 1095 494 1110 q 524 1053 524 1081 q 509 1011 524 1026 q 467 996 494 996 m 676 996 q 633 1011 649 996 q 617 1053 617 1026 q 633 1094 617 1079 q 676 1110 649 1110 q 719 1095 704 1110 q 733 1053 733 1081 q 719 1011 733 1026 q 676 996 704 996 z "},"Ạ":{"ha":833,"x_min":-53,"x_max":788,"o":"m 782 17 q 788 8 788 17 q 782 0 788 0 q 719 3 761 0 q 642 6 669 6 q 568 3 613 6 q 507 0 526 0 q 503 8 503 0 q 507 17 503 17 q 578 30 558 17 q 599 78 599 43 q 596 117 599 101 l 540 458 l 331 458 l 179 183 q 136 67 136 103 q 158 27 136 38 q 226 17 181 17 q 231 8 232 17 q 225 0 231 0 q 163 3 210 0 q 81 6 110 6 q 13 3 51 6 q -47 0 -26 0 q -53 8 -53 0 q -47 17 -53 17 q 39 52 -7 17 q 133 171 85 88 l 531 882 q 540 886 533 886 q 556 879 553 886 l 678 117 q 693 54 685 74 q 722 26 701 35 q 782 17 742 17 m 346 488 l 536 488 l 493 756 l 346 488 m 347 -262 q 303 -247 319 -262 q 288 -203 288 -231 q 303 -161 288 -176 q 347 -146 319 -146 q 390 -161 375 -146 q 406 -203 406 -176 q 390 -247 406 -231 q 347 -262 375 -262 z "},"À":{"ha":833,"x_min":-53,"x_max":788,"o":"m 782 17 q 788 8 788 17 q 782 0 788 0 q 719 3 761 0 q 642 6 669 6 q 568 3 613 6 q 507 0 526 0 q 503 8 503 0 q 507 17 503 17 q 578 30 558 17 q 599 78 599 43 q 596 117 599 101 l 540 458 l 331 458 l 179 183 q 136 67 136 103 q 158 27 136 38 q 226 17 181 17 q 231 8 232 17 q 225 0 231 0 q 163 3 210 0 q 81 6 110 6 q 13 3 51 6 q -47 0 -26 0 q -53 8 -53 0 q -47 17 -53 17 q 39 52 -7 17 q 133 171 85 88 l 531 882 q 540 886 533 886 q 556 879 553 886 l 678 117 q 693 54 685 74 q 722 26 701 35 q 782 17 742 17 m 346 488 l 536 488 l 493 756 l 346 488 m 667 947 q 540 1005 599 981 q 407 1050 481 1029 q 418 1064 394 1053 q 474 1083 442 1075 q 511 1089 506 1092 q 676 960 611 1004 q 678 957 678 960 q 674 949 678 953 q 667 947 671 946 z "},"Ả":{"ha":833,"x_min":-53,"x_max":788,"o":"m 782 17 q 788 8 788 17 q 782 0 788 0 q 719 3 761 0 q 642 6 669 6 q 568 3 613 6 q 507 0 526 0 q 503 8 503 0 q 507 17 503 17 q 578 30 558 17 q 599 78 599 43 q 596 117 599 101 l 540 458 l 331 458 l 179 183 q 136 67 136 103 q 158 27 136 38 q 226 17 181 17 q 231 8 232 17 q 225 0 231 0 q 163 3 210 0 q 81 6 110 6 q 13 3 51 6 q -47 0 -26 0 q -53 8 -53 0 q -47 17 -53 17 q 39 52 -7 17 q 133 171 85 88 l 531 882 q 540 886 533 886 q 556 879 553 886 l 678 117 q 693 54 685 74 q 722 26 701 35 q 782 17 742 17 m 346 488 l 536 488 l 493 756 l 346 488 m 553 903 q 545 900 553 900 q 536 903 538 900 q 535 918 535 908 q 545 965 535 944 q 576 1011 556 985 q 605 1053 596 1036 q 614 1090 614 1069 q 599 1124 614 1113 q 563 1136 585 1136 q 522 1128 542 1136 l 519 1126 q 513 1131 515 1126 q 515 1139 510 1136 q 608 1167 561 1167 q 668 1149 647 1167 q 689 1106 689 1132 q 670 1053 689 1076 q 617 1000 651 1031 q 567 949 583 971 q 553 903 551 928 z "},"Ā":{"ha":833,"x_min":-53,"x_max":788,"o":"m 782 17 q 788 8 788 17 q 782 0 788 0 q 719 3 761 0 q 642 6 669 6 q 568 3 613 6 q 507 0 526 0 q 503 8 503 0 q 507 17 503 17 q 578 30 558 17 q 599 78 599 43 q 596 117 599 101 l 540 458 l 331 458 l 179 183 q 136 67 136 103 q 158 27 136 38 q 226 17 181 17 q 231 8 232 17 q 225 0 231 0 q 163 3 210 0 q 81 6 110 6 q 13 3 51 6 q -47 0 -26 0 q -53 8 -53 0 q -47 17 -53 17 q 39 52 -7 17 q 133 171 85 88 l 531 882 q 540 886 533 886 q 556 879 553 886 l 678 117 q 693 54 685 74 q 722 26 701 35 q 782 17 742 17 m 346 488 l 536 488 l 493 756 l 346 488 m 407 997 q 399 1017 399 997 q 407 1036 399 1036 l 738 1036 q 746 1017 746 1036 q 738 997 746 997 l 407 997 z "},"Ą":{"ha":833,"x_min":-53,"x_max":788,"o":"m 782 17 q 788 8 788 17 q 782 0 788 0 l 688 1 q 573 -28 624 1 q 493 -107 522 -57 q 464 -218 464 -157 q 494 -306 464 -272 q 583 -339 525 -339 q 623 -333 608 -339 q 653 -318 638 -328 l 654 -318 q 660 -322 657 -318 q 660 -329 663 -326 q 597 -369 626 -357 q 531 -382 567 -382 q 433 -352 468 -382 q 397 -267 397 -322 q 400 -232 397 -244 q 435 -137 408 -176 q 511 -43 461 -97 q 572 31 553 1 q 592 97 592 61 q 590 117 592 110 l 539 458 l 333 458 l 186 183 q 140 63 140 99 q 161 26 140 36 q 226 17 182 17 q 231 8 232 17 q 225 0 231 0 q 163 3 210 0 q 81 6 110 6 q 13 3 51 6 q -47 0 -26 0 q -53 8 -53 0 q -47 17 -53 17 q 44 51 -4 17 q 139 171 93 86 l 531 882 q 540 886 533 886 q 556 879 553 886 l 676 131 q 694 58 683 82 q 725 26 706 35 q 782 17 744 17 m 350 488 l 533 488 l 493 754 l 350 488 z "},"Å":{"ha":833,"x_min":-53,"x_max":788,"o":"m 782 17 q 788 8 788 17 q 782 0 788 0 q 719 3 761 0 q 642 6 669 6 q 568 3 613 6 q 507 0 526 0 q 503 8 503 0 q 507 17 503 17 q 578 30 558 17 q 599 78 599 43 q 596 117 599 101 l 540 458 l 331 458 l 179 183 q 136 67 136 103 q 158 27 136 38 q 226 17 181 17 q 231 8 232 17 q 225 0 231 0 q 163 3 210 0 q 81 6 110 6 q 13 3 51 6 q -47 0 -26 0 q -53 8 -53 0 q -47 17 -53 17 q 39 52 -7 17 q 133 171 85 88 l 531 882 q 540 886 533 886 q 556 879 553 886 l 678 117 q 693 54 685 74 q 722 26 701 35 q 782 17 742 17 m 346 488 l 536 488 l 493 756 l 346 488 m 550 932 q 470 965 500 932 q 440 1043 440 997 q 478 1122 440 1093 q 563 1150 517 1150 q 640 1118 608 1150 q 672 1039 672 1086 q 635 961 672 990 q 550 932 597 932 m 571 946 q 613 1015 613 946 q 589 1099 613 1064 q 535 1135 565 1135 q 499 1071 499 1135 q 519 985 499 1024 q 571 946 539 946 z "},"Ǻ":{"ha":833,"x_min":-53,"x_max":788,"o":"m 782 17 q 788 8 788 17 q 782 0 788 0 q 719 3 761 0 q 642 6 669 6 q 568 3 613 6 q 507 0 526 0 q 503 8 503 0 q 507 17 503 17 q 578 30 558 17 q 599 78 599 43 q 596 117 599 101 l 540 458 l 331 458 l 179 183 q 136 67 136 103 q 158 27 136 38 q 226 17 181 17 q 231 8 232 17 q 225 0 231 0 q 163 3 210 0 q 81 6 110 6 q 13 3 51 6 q -47 0 -26 0 q -53 8 -53 0 q -47 17 -53 17 q 39 52 -7 17 q 133 171 85 88 l 531 882 q 540 886 533 886 q 556 879 553 886 l 678 117 q 693 54 685 74 q 722 26 701 35 q 782 17 742 17 m 346 488 l 536 488 l 493 756 l 346 488 m 514 1129 q 506 1135 508 1129 q 510 1143 504 1142 l 575 1182 q 672 1239 647 1226 q 702 1233 678 1243 q 745 1212 726 1224 q 754 1199 764 1200 q 517 1129 647 1176 l 514 1129 m 561 925 q 484 952 513 925 q 456 1018 456 979 q 492 1085 456 1061 q 575 1110 529 1110 q 651 1082 619 1110 q 683 1015 683 1054 q 647 949 683 974 q 561 925 610 925 m 583 939 q 619 992 619 939 q 599 1065 619 1033 q 549 1096 578 1096 q 514 1046 514 1096 q 533 972 514 1006 q 583 939 553 939 z "},"Ã":{"ha":833,"x_min":-53,"x_max":788,"o":"m 782 17 q 788 8 788 17 q 782 0 788 0 q 719 3 761 0 q 642 6 669 6 q 568 3 613 6 q 507 0 526 0 q 503 8 503 0 q 507 17 503 17 q 578 30 558 17 q 599 78 599 43 q 596 117 599 101 l 540 458 l 331 458 l 179 183 q 136 67 136 103 q 158 27 136 38 q 226 17 181 17 q 231 8 232 17 q 225 0 231 0 q 163 3 210 0 q 81 6 110 6 q 13 3 51 6 q -47 0 -26 0 q -53 8 -53 0 q -47 17 -53 17 q 39 52 -7 17 q 133 171 85 88 l 531 882 q 540 886 533 886 q 556 879 553 886 l 678 117 q 693 54 685 74 q 722 26 701 35 q 782 17 742 17 m 346 488 l 536 488 l 493 756 l 346 488 m 392 965 q 384 969 388 965 q 383 975 381 972 q 440 1035 408 1008 q 504 1061 471 1061 q 576 1046 528 1061 q 678 1026 638 1026 q 717 1035 703 1026 q 750 1064 732 1044 l 753 1064 q 760 1060 757 1064 q 760 1054 763 1057 q 699 987 722 1004 q 647 969 675 969 q 595 976 622 969 q 563 985 568 983 q 465 1003 506 1003 q 429 996 442 1003 q 407 979 417 989 q 393 965 397 969 l 392 965 z "},"Æ":{"ha":1068,"x_min":-85,"x_max":1064,"o":"m 1053 868 q 1062 865 1060 868 q 1063 856 1064 863 l 1050 776 q 1036 683 1044 726 q 1026 679 1035 678 q 1021 685 1018 681 q 1022 711 1022 693 q 990 811 1022 774 q 899 849 958 849 l 846 849 q 763 841 790 849 q 723 814 735 833 q 706 754 711 794 l 669 467 l 829 467 q 914 490 886 467 q 953 567 942 513 q 958 571 953 571 q 966 569 963 571 q 968 564 969 567 q 960 522 964 539 q 956 492 957 504 l 947 451 l 926 322 q 921 321 926 321 q 911 325 911 321 q 915 364 915 346 q 893 421 915 404 q 819 438 871 438 l 667 438 l 626 118 q 624 78 624 85 q 641 35 624 46 q 713 25 658 25 l 808 25 q 912 75 863 25 q 990 207 961 125 q 999 210 992 211 q 1006 204 1007 208 q 961 21 976 110 q 954 4 958 8 q 939 0 950 0 l 421 0 q 415 8 415 0 q 421 17 415 17 q 491 24 467 17 q 526 51 515 32 q 543 113 538 71 l 585 438 l 375 438 l 176 171 q 125 65 125 100 q 215 17 125 17 q 220 8 221 17 q 215 0 219 0 q 144 3 192 0 q 56 6 89 6 q -18 3 24 6 q -78 0 -54 0 q -85 8 -85 0 q -78 17 -85 17 q 24 51 -24 17 q 146 185 72 86 l 601 799 q 616 821 610 811 q 622 836 622 831 q 603 849 622 847 q 528 851 585 851 q 522 860 522 851 q 528 868 522 868 l 1053 868 m 397 467 l 589 467 l 629 776 l 397 467 z "},"Ǽ":{"ha":1068,"x_min":-85,"x_max":1063,"o":"m 1053 868 q 1062 865 1060 868 q 1063 856 1064 863 l 1050 776 q 1036 683 1044 726 q 1026 679 1035 678 q 1021 685 1018 681 q 1022 711 1022 693 q 990 811 1022 774 q 899 849 958 849 l 846 849 q 763 841 790 849 q 723 814 735 833 q 706 754 711 794 l 669 467 l 829 467 q 914 490 886 467 q 953 567 942 513 q 958 571 953 571 q 966 569 963 571 q 968 564 969 567 q 960 522 964 539 q 956 492 957 504 l 947 451 l 926 322 q 921 321 926 321 q 911 325 911 321 q 915 364 915 346 q 893 421 915 404 q 819 438 871 438 l 667 438 l 626 118 q 624 78 624 85 q 641 35 624 46 q 713 25 658 25 l 808 25 q 912 75 863 25 q 990 207 961 125 q 999 210 992 211 q 1006 204 1007 208 q 961 21 976 110 q 954 4 958 8 q 939 0 950 0 l 421 0 q 415 8 415 0 q 421 17 415 17 q 491 24 467 17 q 526 51 515 32 q 543 113 538 71 l 585 438 l 375 438 l 176 171 q 125 65 125 100 q 215 17 125 17 q 220 8 221 17 q 215 0 219 0 q 144 3 192 0 q 56 6 89 6 q -18 3 24 6 q -78 0 -54 0 q -85 8 -85 0 q -78 17 -85 17 q 24 51 -24 17 q 146 185 72 86 l 601 799 q 616 821 610 811 q 622 836 622 831 q 603 849 622 847 q 528 851 585 851 q 522 860 522 851 q 528 868 522 868 l 1053 868 m 397 467 l 589 467 l 629 776 l 397 467 m 746 942 q 739 948 740 942 q 742 957 738 954 q 899 1047 793 983 l 967 1089 q 999 1083 972 1092 q 1047 1063 1026 1074 q 1057 1050 1067 1051 q 899 1003 971 1029 q 749 943 828 978 l 746 942 z "},"Ǣ":{"ha":1068,"x_min":-85,"x_max":1063,"o":"m 1053 868 q 1062 865 1060 868 q 1063 856 1064 863 l 1050 776 q 1036 683 1044 726 q 1026 679 1035 678 q 1021 685 1018 681 q 1022 711 1022 693 q 990 811 1022 774 q 899 849 958 849 l 846 849 q 763 841 790 849 q 723 814 735 833 q 706 754 711 794 l 669 467 l 829 467 q 914 490 886 467 q 953 567 942 513 q 958 571 953 571 q 966 569 963 571 q 968 564 969 567 q 960 522 964 539 q 956 492 957 504 l 947 451 l 926 322 q 921 321 926 321 q 911 325 911 321 q 915 364 915 346 q 893 421 915 404 q 819 438 871 438 l 667 438 l 626 118 q 624 78 624 85 q 641 35 624 46 q 713 25 658 25 l 808 25 q 912 75 863 25 q 990 207 961 125 q 999 210 992 211 q 1006 204 1007 208 q 961 21 976 110 q 954 4 958 8 q 939 0 950 0 l 421 0 q 415 8 415 0 q 421 17 415 17 q 491 24 467 17 q 526 51 515 32 q 543 113 538 71 l 585 438 l 375 438 l 176 171 q 125 65 125 100 q 215 17 125 17 q 220 8 221 17 q 215 0 219 0 q 144 3 192 0 q 56 6 89 6 q -18 3 24 6 q -78 0 -54 0 q -85 8 -85 0 q -78 17 -85 17 q 24 51 -24 17 q 146 185 72 86 l 601 799 q 616 821 610 811 q 622 836 622 831 q 603 849 622 847 q 528 851 585 851 q 522 860 522 851 q 528 868 522 868 l 1053 868 m 397 467 l 589 467 l 629 776 l 397 467 m 686 997 q 678 1017 678 997 q 686 1036 678 1036 l 1017 1036 q 1025 1017 1025 1036 q 1017 997 1025 997 l 686 997 z "},"B":{"ha":724,"x_min":10,"x_max":663,"o":"m 464 489 q 610 428 557 481 q 663 296 663 376 q 658 250 663 274 q 600 122 646 181 q 488 29 554 64 q 346 -6 421 -6 q 256 -1 304 -6 q 215 1 239 0 q 163 3 192 3 l 75 1 q 14 0 53 0 q 10 8 10 0 q 14 17 11 17 q 85 24 61 17 q 122 52 110 32 q 142 114 135 72 l 256 757 q 260 799 260 782 q 240 841 260 831 q 165 851 221 851 q 160 860 160 851 q 165 868 161 868 l 229 867 q 311 864 282 864 q 356 865 336 864 q 392 868 376 867 q 461 872 432 872 q 613 833 563 872 q 663 726 663 793 q 658 683 663 707 q 593 566 643 615 q 464 489 543 517 m 289 489 l 344 488 q 502 542 443 488 q 576 683 561 596 q 581 729 581 707 q 545 819 581 786 q 433 853 510 853 q 383 846 400 853 q 353 817 365 839 q 335 750 342 796 l 289 489 m 565 228 q 569 282 569 257 q 521 411 569 365 q 379 458 472 457 q 282 456 338 460 l 222 110 q 218 75 218 92 q 242 31 218 43 q 328 18 265 18 q 489 75 429 18 q 565 228 549 132 z "},"C":{"ha":814,"x_min":82,"x_max":817,"o":"m 440 -18 q 169 84 256 -18 q 82 340 82 186 q 92 442 82 383 q 193 672 115 571 q 380 828 271 772 q 603 883 489 883 q 717 870 661 883 q 804 835 772 857 q 815 822 813 828 q 815 801 817 817 l 801 647 q 793 642 800 642 q 786 647 786 642 q 715 803 776 753 q 550 853 653 853 q 386 807 461 853 q 260 677 311 761 q 192 481 210 593 q 182 364 182 424 q 215 178 182 261 q 308 49 247 96 q 449 1 369 1 q 604 53 529 1 q 739 210 679 106 q 743 213 742 213 q 751 210 747 213 q 753 204 754 207 l 711 56 q 703 32 707 38 q 686 22 699 26 q 440 -18 565 -18 z "},"Ć":{"ha":814,"x_min":82,"x_max":824,"o":"m 440 -18 q 169 84 256 -18 q 82 340 82 186 q 92 442 82 383 q 193 672 115 571 q 380 828 271 772 q 603 883 489 883 q 717 870 661 883 q 804 835 772 857 q 815 822 813 828 q 815 801 817 817 l 801 647 q 793 642 800 642 q 786 647 786 642 q 715 803 776 753 q 550 853 653 853 q 386 807 461 853 q 260 677 311 761 q 192 481 210 593 q 182 364 182 424 q 215 178 182 261 q 308 49 247 96 q 449 1 369 1 q 604 53 529 1 q 739 210 679 106 q 743 213 742 213 q 751 210 747 213 q 753 204 754 207 l 711 56 q 703 32 707 38 q 686 22 699 26 q 440 -18 565 -18 m 510 942 q 503 948 504 942 q 506 957 501 954 q 663 1047 557 983 l 731 1089 q 763 1083 736 1092 q 810 1063 790 1074 q 821 1050 831 1051 q 663 1003 735 1029 q 513 943 592 978 l 510 942 z "},"Č":{"ha":814,"x_min":82,"x_max":815,"o":"m 440 -18 q 169 84 256 -18 q 82 340 82 186 q 92 442 82 383 q 193 672 115 571 q 380 828 271 772 q 603 883 489 883 q 717 870 661 883 q 804 835 772 857 q 815 822 813 828 q 815 801 817 817 l 801 647 q 793 642 800 642 q 786 647 786 642 q 715 803 776 753 q 550 853 653 853 q 386 807 461 853 q 260 677 311 761 q 192 481 210 593 q 182 364 182 424 q 215 178 182 261 q 308 49 247 96 q 449 1 369 1 q 604 53 529 1 q 739 210 679 106 q 743 213 742 213 q 751 210 747 213 q 753 204 754 207 l 711 56 q 703 32 707 38 q 686 22 699 26 q 440 -18 565 -18 m 476 1074 l 476 1075 q 481 1081 476 1078 q 486 1083 485 1085 l 603 1003 l 744 1085 q 752 1081 747 1086 q 753 1074 757 1075 l 604 938 q 590 932 599 932 q 578 938 583 932 l 476 1074 z "},"Ç":{"ha":814,"x_min":82,"x_max":817,"o":"m 804 835 q 815 822 813 828 q 815 801 817 817 l 801 647 q 793 642 800 642 q 786 647 786 642 q 715 803 776 753 q 550 853 653 853 q 386 807 461 853 q 260 677 311 761 q 192 481 210 593 q 182 364 182 424 q 215 178 182 261 q 308 49 247 96 q 449 1 369 1 q 604 53 529 1 q 739 210 679 106 q 743 213 742 213 q 751 210 747 213 q 753 204 754 207 l 711 56 q 703 32 707 38 q 686 22 699 26 q 442 -18 565 -18 q 429 -72 429 -50 q 437 -108 429 -92 q 461 -144 444 -125 q 494 -197 483 -174 q 506 -243 506 -219 q 504 -261 506 -256 q 460 -343 499 -304 q 361 -382 421 -382 q 306 -368 328 -382 q 283 -328 283 -354 q 285 -317 283 -321 q 298 -296 286 -304 q 325 -287 310 -287 q 349 -296 340 -287 q 367 -324 357 -304 q 381 -347 374 -339 q 400 -356 388 -356 q 451 -303 439 -356 q 399 -192 456 -261 q 376 -135 376 -165 q 390 -83 376 -114 l 424 -18 q 165 89 247 -12 q 82 339 82 190 q 92 442 82 383 q 193 672 115 571 q 380 828 271 772 q 603 883 489 883 q 717 870 661 883 q 804 835 772 857 z "},"Ĉ":{"ha":814,"x_min":82,"x_max":815,"o":"m 440 -18 q 169 84 256 -18 q 82 340 82 186 q 92 442 82 383 q 193 672 115 571 q 380 828 271 772 q 603 883 489 883 q 717 870 661 883 q 804 835 772 857 q 815 822 813 828 q 815 801 817 817 l 801 647 q 793 642 800 642 q 786 647 786 642 q 715 803 776 753 q 550 853 653 853 q 386 807 461 853 q 260 677 311 761 q 192 481 210 593 q 182 364 182 424 q 215 178 182 261 q 308 49 247 96 q 449 1 369 1 q 604 53 529 1 q 739 210 679 106 q 743 213 742 213 q 751 210 747 213 q 753 204 754 207 l 711 56 q 703 32 707 38 q 686 22 699 26 q 440 -18 565 -18 m 463 917 q 456 920 458 917 q 456 926 453 924 l 604 1061 q 617 1068 608 1068 q 629 1061 625 1068 l 733 926 l 733 925 q 730 917 733 921 q 724 917 726 914 l 604 996 l 464 917 l 463 917 z "},"Ċ":{"ha":814,"x_min":82,"x_max":815,"o":"m 440 -18 q 169 84 256 -18 q 82 340 82 186 q 92 442 82 383 q 193 672 115 571 q 380 828 271 772 q 603 883 489 883 q 717 870 661 883 q 804 835 772 857 q 815 822 813 828 q 815 801 817 817 l 801 647 q 793 642 800 642 q 786 647 786 642 q 715 803 776 753 q 550 853 653 853 q 386 807 461 853 q 260 677 311 761 q 192 481 210 593 q 182 364 182 424 q 215 178 182 261 q 308 49 247 96 q 449 1 369 1 q 604 53 529 1 q 739 210 679 106 q 743 213 742 213 q 751 210 747 213 q 753 204 754 207 l 711 56 q 703 32 707 38 q 686 22 699 26 q 440 -18 565 -18 m 606 985 q 562 1001 578 985 q 546 1043 546 1017 q 562 1085 546 1069 q 606 1100 578 1100 q 649 1085 633 1100 q 665 1043 665 1069 q 649 1000 665 1015 q 606 985 633 985 z "},"D":{"ha":850,"x_min":11,"x_max":829,"o":"m 328 -6 q 250 -1 294 -6 q 211 1 235 0 q 157 3 188 3 l 72 1 q 15 0 51 0 q 11 8 11 0 q 15 17 11 17 q 83 24 60 17 q 117 51 106 31 q 135 113 128 71 l 249 756 q 254 800 254 792 q 235 841 254 831 q 164 851 215 851 q 161 860 161 851 q 164 868 161 868 l 224 867 q 308 864 276 864 q 393 868 350 864 q 465 871 446 871 q 659 827 576 871 q 785 706 742 783 q 829 529 829 629 q 822 449 829 494 q 724 210 799 314 q 544 51 649 107 q 328 -6 439 -6 m 319 14 q 499 61 417 14 q 640 199 582 108 q 721 418 699 290 q 731 531 731 472 q 663 762 731 672 q 469 851 596 851 q 369 832 399 851 q 328 753 339 813 l 218 128 q 213 85 213 97 q 237 31 213 47 q 319 14 261 14 z "},"Ð":{"ha":850,"x_min":11,"x_max":829,"o":"m 465 871 q 659 827 576 871 q 785 706 742 783 q 829 529 829 629 q 822 449 829 494 q 724 210 799 314 q 544 51 649 107 q 328 -6 439 -6 q 250 -1 294 -6 q 211 1 235 0 q 157 3 188 3 l 72 1 q 15 0 51 0 q 11 8 11 0 q 15 17 11 17 q 83 24 60 17 q 117 51 106 31 q 135 113 128 71 l 189 418 l 78 418 q 72 432 72 418 q 78 446 72 446 l 194 446 l 249 756 q 254 800 254 792 q 235 841 254 831 q 164 851 215 851 q 161 860 161 851 q 164 868 161 868 l 224 867 q 308 864 276 864 q 393 868 350 864 q 465 871 446 871 m 721 418 q 731 531 731 472 q 663 762 731 672 q 469 851 596 851 q 369 832 399 851 q 328 753 339 813 l 274 446 l 442 446 q 447 432 447 446 q 442 418 447 418 l 269 418 l 218 128 q 213 85 213 97 q 237 31 213 47 q 319 14 261 14 q 499 61 417 14 q 640 199 582 108 q 721 418 699 290 z "},"Ď":{"ha":850,"x_min":11,"x_max":829,"o":"m 328 -6 q 250 -1 294 -6 q 211 1 235 0 q 157 3 188 3 l 72 1 q 15 0 51 0 q 11 8 11 0 q 15 17 11 17 q 83 24 60 17 q 117 51 106 31 q 135 113 128 71 l 249 756 q 254 800 254 792 q 235 841 254 831 q 164 851 215 851 q 161 860 161 851 q 164 868 161 868 l 224 867 q 308 864 276 864 q 393 868 350 864 q 465 871 446 871 q 659 827 576 871 q 785 706 742 783 q 829 529 829 629 q 822 449 829 494 q 724 210 799 314 q 544 51 649 107 q 328 -6 439 -6 m 319 14 q 499 61 417 14 q 640 199 582 108 q 721 418 699 290 q 731 531 731 472 q 663 762 731 672 q 469 851 596 851 q 369 832 399 851 q 328 753 339 813 l 218 128 q 213 85 213 97 q 237 31 213 47 q 319 14 261 14 m 350 1074 l 350 1075 q 354 1081 350 1078 q 360 1083 358 1085 l 476 1003 l 618 1085 q 626 1081 621 1086 q 626 1074 631 1075 l 478 938 q 464 932 472 932 q 451 938 457 932 l 350 1074 z "},"Đ":{"ha":850,"x_min":11,"x_max":829,"o":"m 465 871 q 659 827 576 871 q 785 706 742 783 q 829 529 829 629 q 822 449 829 494 q 724 210 799 314 q 544 51 649 107 q 328 -6 439 -6 q 250 -1 294 -6 q 211 1 235 0 q 157 3 188 3 l 72 1 q 15 0 51 0 q 11 8 11 0 q 15 17 11 17 q 83 24 60 17 q 117 51 106 31 q 135 113 128 71 l 189 418 l 78 418 q 72 432 72 418 q 78 446 72 446 l 194 446 l 249 756 q 254 800 254 792 q 235 841 254 831 q 164 851 215 851 q 161 860 161 851 q 164 868 161 868 l 224 867 q 308 864 276 864 q 393 868 350 864 q 465 871 446 871 m 721 418 q 731 531 731 472 q 663 762 731 672 q 469 851 596 851 q 369 832 399 851 q 328 753 339 813 l 274 446 l 442 446 q 447 432 447 446 q 442 418 447 418 l 269 418 l 218 128 q 213 85 213 97 q 237 31 213 47 q 319 14 261 14 q 499 61 417 14 q 640 199 582 108 q 721 418 699 290 z "},"Ḍ":{"ha":850,"x_min":11,"x_max":829,"o":"m 328 -6 q 250 -1 294 -6 q 211 1 235 0 q 157 3 188 3 l 72 1 q 15 0 51 0 q 11 8 11 0 q 15 17 11 17 q 83 24 60 17 q 117 51 106 31 q 135 113 128 71 l 249 756 q 254 800 254 792 q 235 841 254 831 q 164 851 215 851 q 161 860 161 851 q 164 868 161 868 l 224 867 q 308 864 276 864 q 393 868 350 864 q 465 871 446 871 q 659 827 576 871 q 785 706 742 783 q 829 529 829 629 q 822 449 829 494 q 724 210 799 314 q 544 51 649 107 q 328 -6 439 -6 m 319 14 q 499 61 417 14 q 640 199 582 108 q 721 418 699 290 q 731 531 731 472 q 663 762 731 672 q 469 851 596 851 q 369 832 399 851 q 328 753 339 813 l 218 128 q 213 85 213 97 q 237 31 213 47 q 319 14 261 14 m 339 -262 q 295 -247 311 -262 q 279 -203 279 -231 q 295 -161 279 -176 q 339 -146 311 -146 q 382 -161 367 -146 q 397 -203 397 -176 q 382 -247 397 -231 q 339 -262 367 -262 z "},"Ḏ":{"ha":850,"x_min":11,"x_max":829,"o":"m 328 -6 q 250 -1 294 -6 q 211 1 235 0 q 157 3 188 3 l 72 1 q 15 0 51 0 q 11 8 11 0 q 15 17 11 17 q 83 24 60 17 q 117 51 106 31 q 135 113 128 71 l 249 756 q 254 800 254 792 q 235 841 254 831 q 164 851 215 851 q 161 860 161 851 q 164 868 161 868 l 224 867 q 308 864 276 864 q 393 868 350 864 q 465 871 446 871 q 659 827 576 871 q 785 706 742 783 q 829 529 829 629 q 822 449 829 494 q 724 210 799 314 q 544 51 649 107 q 328 -6 439 -6 m 319 14 q 499 61 417 14 q 640 199 582 108 q 721 418 699 290 q 731 531 731 472 q 663 762 731 672 q 469 851 596 851 q 369 832 399 851 q 328 753 339 813 l 218 128 q 213 85 213 97 q 237 31 213 47 q 319 14 261 14 m 196 -162 q 188 -143 188 -162 q 196 -124 188 -124 l 526 -124 q 535 -143 535 -124 q 526 -162 535 -162 l 196 -162 z "},"E":{"ha":714,"x_min":19,"x_max":714,"o":"m 703 868 q 711 856 714 868 l 699 776 q 685 683 693 726 q 675 679 683 678 q 668 685 667 681 q 669 717 669 696 q 642 812 669 776 q 563 847 614 847 l 449 847 q 383 840 404 847 q 351 815 361 833 q 335 754 342 796 l 283 467 l 479 467 q 559 488 533 467 q 594 564 585 510 q 603 568 594 568 q 609 566 606 568 q 611 561 613 564 q 599 494 606 522 l 590 451 l 582 397 q 571 322 582 393 q 561 317 569 317 q 554 324 553 318 q 558 365 558 347 q 538 421 558 404 q 469 438 517 438 l 279 438 l 222 118 q 218 76 218 93 q 236 37 218 47 q 304 26 254 26 l 456 26 q 558 76 508 26 q 636 207 608 126 q 645 210 638 211 q 651 204 653 208 q 608 21 631 139 q 601 5 606 10 q 586 0 596 0 l 22 0 q 19 8 19 0 q 22 17 19 17 q 90 24 68 17 q 122 50 111 31 q 140 113 132 69 l 254 756 q 258 800 258 783 q 240 841 258 831 q 171 851 222 851 q 167 860 167 851 q 171 868 167 868 l 703 868 z "},"É":{"ha":714,"x_min":19,"x_max":711,"o":"m 703 868 q 711 856 714 868 l 699 776 q 685 683 693 726 q 675 679 683 678 q 668 685 667 681 q 669 717 669 696 q 642 812 669 776 q 563 847 614 847 l 449 847 q 383 840 404 847 q 351 815 361 833 q 335 754 342 796 l 283 467 l 479 467 q 559 488 533 467 q 594 564 585 510 q 603 568 594 568 q 609 566 606 568 q 611 561 613 564 q 599 494 606 522 l 590 451 l 582 397 q 571 322 582 393 q 561 317 569 317 q 554 324 553 318 q 558 365 558 347 q 538 421 558 404 q 469 438 517 438 l 279 438 l 222 118 q 218 76 218 93 q 236 37 218 47 q 304 26 254 26 l 456 26 q 558 76 508 26 q 636 207 608 126 q 645 210 638 211 q 651 204 653 208 q 608 21 631 139 q 601 5 606 10 q 586 0 596 0 l 22 0 q 19 8 19 0 q 22 17 19 17 q 90 24 68 17 q 122 50 111 31 q 140 113 132 69 l 254 756 q 258 800 258 783 q 240 841 258 831 q 171 851 222 851 q 167 860 167 851 q 171 868 167 868 l 703 868 m 393 942 q 386 948 388 942 q 389 957 385 954 q 546 1047 440 983 l 614 1089 q 647 1083 619 1092 q 694 1063 674 1074 q 704 1050 714 1051 q 547 1003 618 1029 q 396 943 475 978 l 393 942 z "},"Ĕ":{"ha":714,"x_min":19,"x_max":711,"o":"m 703 868 q 711 856 714 868 l 699 776 q 685 683 693 726 q 675 679 683 678 q 668 685 667 681 q 669 717 669 696 q 642 812 669 776 q 563 847 614 847 l 449 847 q 383 840 404 847 q 351 815 361 833 q 335 754 342 796 l 283 467 l 479 467 q 559 488 533 467 q 594 564 585 510 q 603 568 594 568 q 609 566 606 568 q 611 561 613 564 q 599 494 606 522 l 590 451 l 582 397 q 571 322 582 393 q 561 317 569 317 q 554 324 553 318 q 558 365 558 347 q 538 421 558 404 q 469 438 517 438 l 279 438 l 222 118 q 218 76 218 93 q 236 37 218 47 q 304 26 254 26 l 456 26 q 558 76 508 26 q 636 207 608 126 q 645 210 638 211 q 651 204 653 208 q 608 21 631 139 q 601 5 606 10 q 586 0 596 0 l 22 0 q 19 8 19 0 q 22 17 19 17 q 90 24 68 17 q 122 50 111 31 q 140 113 132 69 l 254 756 q 258 800 258 783 q 240 841 258 831 q 171 851 222 851 q 167 860 167 851 q 171 868 167 868 l 703 868 m 485 925 q 393 960 425 925 q 361 1044 361 994 q 381 1060 361 1053 q 419 1067 401 1067 q 432 1063 432 1067 q 458 998 435 1022 q 521 974 481 974 q 575 993 551 974 q 619 1057 599 1013 q 628 1061 624 1061 q 639 1058 633 1061 q 643 1053 644 1056 q 485 925 585 925 z "},"Ě":{"ha":714,"x_min":19,"x_max":711,"o":"m 703 868 q 711 856 714 868 l 699 776 q 685 683 693 726 q 675 679 683 678 q 668 685 667 681 q 669 717 669 696 q 642 812 669 776 q 563 847 614 847 l 449 847 q 383 840 404 847 q 351 815 361 833 q 335 754 342 796 l 283 467 l 479 467 q 559 488 533 467 q 594 564 585 510 q 603 568 594 568 q 609 566 606 568 q 611 561 613 564 q 599 494 606 522 l 590 451 l 582 397 q 571 322 582 393 q 561 317 569 317 q 554 324 553 318 q 558 365 558 347 q 538 421 558 404 q 469 438 517 438 l 279 438 l 222 118 q 218 76 218 93 q 236 37 218 47 q 304 26 254 26 l 456 26 q 558 76 508 26 q 636 207 608 126 q 645 210 638 211 q 651 204 653 208 q 608 21 631 139 q 601 5 606 10 q 586 0 596 0 l 22 0 q 19 8 19 0 q 22 17 19 17 q 90 24 68 17 q 122 50 111 31 q 140 113 132 69 l 254 756 q 258 800 258 783 q 240 841 258 831 q 171 851 222 851 q 167 860 167 851 q 171 868 167 868 l 703 868 m 360 1074 l 360 1075 q 364 1081 360 1078 q 369 1083 368 1085 l 486 1003 l 628 1085 q 635 1081 631 1086 q 636 1074 640 1075 l 488 938 q 474 932 482 932 q 461 938 467 932 l 360 1074 z "},"Ê":{"ha":714,"x_min":19,"x_max":711,"o":"m 703 868 q 711 856 714 868 l 699 776 q 685 683 693 726 q 675 679 683 678 q 668 685 667 681 q 669 717 669 696 q 642 812 669 776 q 563 847 614 847 l 449 847 q 383 840 404 847 q 351 815 361 833 q 335 754 342 796 l 283 467 l 479 467 q 559 488 533 467 q 594 564 585 510 q 603 568 594 568 q 609 566 606 568 q 611 561 613 564 q 599 494 606 522 l 590 451 l 582 397 q 571 322 582 393 q 561 317 569 317 q 554 324 553 318 q 558 365 558 347 q 538 421 558 404 q 469 438 517 438 l 279 438 l 222 118 q 218 76 218 93 q 236 37 218 47 q 304 26 254 26 l 456 26 q 558 76 508 26 q 636 207 608 126 q 645 210 638 211 q 651 204 653 208 q 608 21 631 139 q 601 5 606 10 q 586 0 596 0 l 22 0 q 19 8 19 0 q 22 17 19 17 q 90 24 68 17 q 122 50 111 31 q 140 113 132 69 l 254 756 q 258 800 258 783 q 240 841 258 831 q 171 851 222 851 q 167 860 167 851 q 171 868 167 868 l 703 868 m 346 917 q 339 920 342 917 q 339 926 336 924 l 488 1061 q 500 1068 492 1068 q 513 1061 508 1068 l 617 926 l 617 925 q 613 917 617 921 q 607 917 610 914 l 488 996 l 347 917 l 346 917 z "},"Ế":{"ha":714,"x_min":19,"x_max":790,"o":"m 703 868 q 711 856 714 868 l 699 776 q 685 683 693 726 q 675 679 683 678 q 668 685 667 681 q 669 717 669 696 q 642 812 669 776 q 563 847 614 847 l 449 847 q 383 840 404 847 q 351 815 361 833 q 335 754 342 796 l 283 467 l 479 467 q 559 488 533 467 q 594 564 585 510 q 603 568 594 568 q 609 566 606 568 q 611 561 613 564 q 599 494 606 522 l 590 451 l 582 397 q 571 322 582 393 q 561 317 569 317 q 554 324 553 318 q 558 365 558 347 q 538 421 558 404 q 469 438 517 438 l 279 438 l 222 118 q 218 76 218 93 q 236 37 218 47 q 304 26 254 26 l 456 26 q 558 76 508 26 q 636 207 608 126 q 645 210 638 211 q 651 204 653 208 q 608 21 631 139 q 601 5 606 10 q 586 0 596 0 l 22 0 q 19 8 19 0 q 22 17 19 17 q 90 24 68 17 q 122 50 111 31 q 140 113 132 69 l 254 756 q 258 800 258 783 q 240 841 258 831 q 171 851 222 851 q 167 860 167 851 q 171 868 167 868 l 703 868 m 346 917 q 339 920 342 917 q 339 926 336 924 l 488 1061 q 500 1068 492 1068 q 513 1061 508 1068 l 617 926 l 617 925 q 613 917 617 921 q 607 917 610 914 l 488 996 l 347 917 l 346 917 m 583 997 q 579 996 582 996 q 574 1001 575 996 q 575 1010 572 1006 q 704 1144 650 1078 q 735 1141 710 1150 q 778 1119 760 1132 q 788 1104 797 1107 q 583 997 692 1068 z "},"Ệ":{"ha":714,"x_min":19,"x_max":711,"o":"m 703 868 q 711 856 714 868 l 699 776 q 685 683 693 726 q 675 679 683 678 q 668 685 667 681 q 669 717 669 696 q 642 812 669 776 q 563 847 614 847 l 449 847 q 383 840 404 847 q 351 815 361 833 q 335 754 342 796 l 283 467 l 479 467 q 559 488 533 467 q 594 564 585 510 q 603 568 594 568 q 609 566 606 568 q 611 561 613 564 q 599 494 606 522 l 590 451 l 582 397 q 571 322 582 393 q 561 317 569 317 q 554 324 553 318 q 558 365 558 347 q 538 421 558 404 q 469 438 517 438 l 279 438 l 222 118 q 218 76 218 93 q 236 37 218 47 q 304 26 254 26 l 456 26 q 558 76 508 26 q 636 207 608 126 q 645 210 638 211 q 651 204 653 208 q 608 21 631 139 q 601 5 606 10 q 586 0 596 0 l 22 0 q 19 8 19 0 q 22 17 19 17 q 90 24 68 17 q 122 50 111 31 q 140 113 132 69 l 254 756 q 258 800 258 783 q 240 841 258 831 q 171 851 222 851 q 167 860 167 851 q 171 868 167 868 l 703 868 m 354 -262 q 310 -247 326 -262 q 294 -203 294 -231 q 310 -161 294 -176 q 354 -146 326 -146 q 397 -161 382 -146 q 413 -203 413 -176 q 397 -247 413 -231 q 354 -262 382 -262 m 346 917 q 339 920 342 917 q 339 926 336 924 l 488 1061 q 500 1068 492 1068 q 513 1061 508 1068 l 617 926 l 617 925 q 613 917 617 921 q 607 917 610 914 l 488 996 l 347 917 l 346 917 z "},"Ề":{"ha":714,"x_min":19,"x_max":711,"o":"m 703 868 q 711 856 714 868 l 699 776 q 685 683 693 726 q 675 679 683 678 q 668 685 667 681 q 669 717 669 696 q 642 812 669 776 q 563 847 614 847 l 449 847 q 383 840 404 847 q 351 815 361 833 q 335 754 342 796 l 283 467 l 479 467 q 559 488 533 467 q 594 564 585 510 q 603 568 594 568 q 609 566 606 568 q 611 561 613 564 q 599 494 606 522 l 590 451 l 582 397 q 571 322 582 393 q 561 317 569 317 q 554 324 553 318 q 558 365 558 347 q 538 421 558 404 q 469 438 517 438 l 279 438 l 222 118 q 218 76 218 93 q 236 37 218 47 q 304 26 254 26 l 456 26 q 558 76 508 26 q 636 207 608 126 q 645 210 638 211 q 651 204 653 208 q 608 21 631 139 q 601 5 606 10 q 586 0 596 0 l 22 0 q 19 8 19 0 q 22 17 19 17 q 90 24 68 17 q 122 50 111 31 q 140 113 132 69 l 254 756 q 258 800 258 783 q 240 841 258 831 q 171 851 222 851 q 167 860 167 851 q 171 868 167 868 l 703 868 m 343 917 q 336 920 339 917 q 336 926 333 924 l 485 1061 q 497 1068 489 1068 q 510 1061 506 1068 l 614 926 l 614 925 q 610 917 614 921 q 604 917 607 914 l 485 996 l 344 917 l 343 917 m 690 979 q 610 1040 649 1014 q 525 1086 572 1065 q 538 1101 515 1089 q 590 1123 561 1114 q 622 1126 619 1132 q 703 992 654 1057 q 704 988 704 990 q 700 981 704 983 q 690 979 696 978 z "},"Ể":{"ha":714,"x_min":19,"x_max":711,"o":"m 703 868 q 711 856 714 868 l 699 776 q 685 683 693 726 q 675 679 683 678 q 668 685 667 681 q 669 717 669 696 q 642 812 669 776 q 563 847 614 847 l 449 847 q 383 840 404 847 q 351 815 361 833 q 335 754 342 796 l 283 467 l 479 467 q 559 488 533 467 q 594 564 585 510 q 603 568 594 568 q 609 566 606 568 q 611 561 613 564 q 599 494 606 522 l 590 451 l 582 397 q 571 322 582 393 q 561 317 569 317 q 554 324 553 318 q 558 365 558 347 q 538 421 558 404 q 469 438 517 438 l 279 438 l 222 118 q 218 76 218 93 q 236 37 218 47 q 304 26 254 26 l 456 26 q 558 76 508 26 q 636 207 608 126 q 645 210 638 211 q 651 204 653 208 q 608 21 631 139 q 601 5 606 10 q 586 0 596 0 l 22 0 q 19 8 19 0 q 22 17 19 17 q 90 24 68 17 q 122 50 111 31 q 140 113 132 69 l 254 756 q 258 800 258 783 q 240 841 258 831 q 171 851 222 851 q 167 860 167 851 q 171 868 167 868 l 703 868 m 344 917 q 338 920 340 917 q 338 926 335 924 l 486 1061 q 499 1068 490 1068 q 511 1061 507 1068 l 615 926 l 615 925 q 612 917 615 921 q 606 917 608 914 l 486 996 l 346 917 l 344 917 m 585 986 q 590 1020 582 1004 q 615 1056 599 1036 q 638 1089 631 1075 q 646 1118 646 1103 q 633 1144 646 1135 q 604 1154 621 1154 q 571 1146 590 1154 l 569 1146 q 562 1151 565 1146 q 564 1157 558 1156 q 610 1176 586 1169 q 651 1183 635 1183 q 692 1169 678 1183 q 707 1136 707 1156 q 692 1092 707 1111 q 647 1050 676 1074 q 612 1016 624 1031 q 600 986 600 1001 q 594 983 603 983 q 585 986 586 983 z "},"Ễ":{"ha":714,"x_min":19,"x_max":711,"o":"m 703 868 q 711 856 714 868 l 699 776 q 685 683 693 726 q 675 679 683 678 q 668 685 667 681 q 669 717 669 696 q 642 812 669 776 q 563 847 614 847 l 449 847 q 383 840 404 847 q 351 815 361 833 q 335 754 342 796 l 283 467 l 479 467 q 559 488 533 467 q 594 564 585 510 q 603 568 594 568 q 609 566 606 568 q 611 561 613 564 q 599 494 606 522 l 590 451 l 582 397 q 571 322 582 393 q 561 317 569 317 q 554 324 553 318 q 558 365 558 347 q 538 421 558 404 q 469 438 517 438 l 279 438 l 222 118 q 218 76 218 93 q 236 37 218 47 q 304 26 254 26 l 456 26 q 558 76 508 26 q 636 207 608 126 q 645 210 638 211 q 651 204 653 208 q 608 21 631 139 q 601 5 606 10 q 586 0 596 0 l 22 0 q 19 8 19 0 q 22 17 19 17 q 90 24 68 17 q 122 50 111 31 q 140 113 132 69 l 254 756 q 258 800 258 783 q 240 841 258 831 q 171 851 222 851 q 167 860 167 851 q 171 868 167 868 l 703 868 m 336 917 q 329 920 332 917 q 329 926 326 924 l 478 1061 q 490 1068 482 1068 q 503 1061 499 1068 l 607 926 l 607 925 q 603 917 607 921 q 597 917 600 914 l 478 996 l 338 917 l 336 917 m 336 1079 q 329 1083 332 1079 q 329 1089 326 1086 q 385 1147 353 1121 q 450 1174 417 1174 q 519 1160 469 1174 q 624 1140 583 1140 q 664 1150 649 1140 q 694 1178 679 1160 l 696 1178 q 703 1174 700 1178 q 704 1168 707 1171 q 642 1100 667 1118 q 592 1082 618 1082 q 507 1099 563 1082 q 472 1108 501 1100 q 410 1117 442 1117 q 374 1109 386 1117 q 351 1092 361 1101 q 339 1079 342 1082 l 336 1079 z "},"Ë":{"ha":714,"x_min":19,"x_max":711,"o":"m 703 868 q 711 856 714 868 l 699 776 q 685 683 693 726 q 675 679 683 678 q 668 685 667 681 q 669 717 669 696 q 642 812 669 776 q 563 847 614 847 l 449 847 q 383 840 404 847 q 351 815 361 833 q 335 754 342 796 l 283 467 l 479 467 q 559 488 533 467 q 594 564 585 510 q 603 568 594 568 q 609 566 606 568 q 611 561 613 564 q 599 494 606 522 l 590 451 l 582 397 q 571 322 582 393 q 561 317 569 317 q 554 324 553 318 q 558 365 558 347 q 538 421 558 404 q 469 438 517 438 l 279 438 l 222 118 q 218 76 218 93 q 236 37 218 47 q 304 26 254 26 l 456 26 q 558 76 508 26 q 636 207 608 126 q 645 210 638 211 q 651 204 653 208 q 608 21 631 139 q 601 5 606 10 q 586 0 596 0 l 22 0 q 19 8 19 0 q 22 17 19 17 q 90 24 68 17 q 122 50 111 31 q 140 113 132 69 l 254 756 q 258 800 258 783 q 240 841 258 831 q 171 851 222 851 q 167 860 167 851 q 171 868 167 868 l 703 868 m 393 996 q 350 1011 365 996 q 335 1053 335 1026 q 350 1094 335 1079 q 393 1110 365 1110 q 435 1095 421 1110 q 450 1053 450 1081 q 435 1011 450 1026 q 393 996 421 996 m 603 996 q 559 1011 575 996 q 543 1053 543 1026 q 559 1094 543 1079 q 603 1110 575 1110 q 645 1095 631 1110 q 660 1053 660 1081 q 645 1011 660 1026 q 603 996 631 996 z "},"Ė":{"ha":714,"x_min":19,"x_max":711,"o":"m 703 868 q 711 856 714 868 l 699 776 q 685 683 693 726 q 675 679 683 678 q 668 685 667 681 q 669 717 669 696 q 642 812 669 776 q 563 847 614 847 l 449 847 q 383 840 404 847 q 351 815 361 833 q 335 754 342 796 l 283 467 l 479 467 q 559 488 533 467 q 594 564 585 510 q 603 568 594 568 q 609 566 606 568 q 611 561 613 564 q 599 494 606 522 l 590 451 l 582 397 q 571 322 582 393 q 561 317 569 317 q 554 324 553 318 q 558 365 558 347 q 538 421 558 404 q 469 438 517 438 l 279 438 l 222 118 q 218 76 218 93 q 236 37 218 47 q 304 26 254 26 l 456 26 q 558 76 508 26 q 636 207 608 126 q 645 210 638 211 q 651 204 653 208 q 608 21 631 139 q 601 5 606 10 q 586 0 596 0 l 22 0 q 19 8 19 0 q 22 17 19 17 q 90 24 68 17 q 122 50 111 31 q 140 113 132 69 l 254 756 q 258 800 258 783 q 240 841 258 831 q 171 851 222 851 q 167 860 167 851 q 171 868 167 868 l 703 868 m 489 985 q 445 1001 461 985 q 429 1043 429 1017 q 445 1085 429 1069 q 489 1100 461 1100 q 533 1085 517 1100 q 549 1043 549 1069 q 533 1000 549 1015 q 489 985 517 985 z "},"Ẹ":{"ha":714,"x_min":19,"x_max":711,"o":"m 703 868 q 711 856 714 868 l 699 776 q 685 683 693 726 q 675 679 683 678 q 668 685 667 681 q 669 717 669 696 q 642 812 669 776 q 563 847 614 847 l 449 847 q 383 840 404 847 q 351 815 361 833 q 335 754 342 796 l 283 467 l 479 467 q 559 488 533 467 q 594 564 585 510 q 603 568 594 568 q 609 566 606 568 q 611 561 613 564 q 599 494 606 522 l 590 451 l 582 397 q 571 322 582 393 q 561 317 569 317 q 554 324 553 318 q 558 365 558 347 q 538 421 558 404 q 469 438 517 438 l 279 438 l 222 118 q 218 76 218 93 q 236 37 218 47 q 304 26 254 26 l 456 26 q 558 76 508 26 q 636 207 608 126 q 645 210 638 211 q 651 204 653 208 q 608 21 631 139 q 601 5 606 10 q 586 0 596 0 l 22 0 q 19 8 19 0 q 22 17 19 17 q 90 24 68 17 q 122 50 111 31 q 140 113 132 69 l 254 756 q 258 800 258 783 q 240 841 258 831 q 171 851 222 851 q 167 860 167 851 q 171 868 167 868 l 703 868 m 354 -262 q 310 -247 326 -262 q 294 -203 294 -231 q 310 -161 294 -176 q 354 -146 326 -146 q 397 -161 382 -146 q 413 -203 413 -176 q 397 -247 413 -231 q 354 -262 382 -262 z "},"È":{"ha":714,"x_min":19,"x_max":711,"o":"m 703 868 q 711 856 714 868 l 699 776 q 685 683 693 726 q 675 679 683 678 q 668 685 667 681 q 669 717 669 696 q 642 812 669 776 q 563 847 614 847 l 449 847 q 383 840 404 847 q 351 815 361 833 q 335 754 342 796 l 283 467 l 479 467 q 559 488 533 467 q 594 564 585 510 q 603 568 594 568 q 609 566 606 568 q 611 561 613 564 q 599 494 606 522 l 590 451 l 582 397 q 571 322 582 393 q 561 317 569 317 q 554 324 553 318 q 558 365 558 347 q 538 421 558 404 q 469 438 517 438 l 279 438 l 222 118 q 218 76 218 93 q 236 37 218 47 q 304 26 254 26 l 456 26 q 558 76 508 26 q 636 207 608 126 q 645 210 638 211 q 651 204 653 208 q 608 21 631 139 q 601 5 606 10 q 586 0 596 0 l 22 0 q 19 8 19 0 q 22 17 19 17 q 90 24 68 17 q 122 50 111 31 q 140 113 132 69 l 254 756 q 258 800 258 783 q 240 841 258 831 q 171 851 222 851 q 167 860 167 851 q 171 868 167 868 l 703 868 m 593 947 q 466 1005 525 981 q 333 1050 407 1029 q 344 1064 321 1053 q 400 1083 368 1075 q 438 1089 432 1092 q 603 960 538 1004 q 604 957 604 960 q 601 949 604 953 q 593 947 597 946 z "},"Ẻ":{"ha":714,"x_min":19,"x_max":711,"o":"m 703 868 q 711 856 714 868 l 699 776 q 685 683 693 726 q 675 679 683 678 q 668 685 667 681 q 669 717 669 696 q 642 812 669 776 q 563 847 614 847 l 449 847 q 383 840 404 847 q 351 815 361 833 q 335 754 342 796 l 283 467 l 479 467 q 559 488 533 467 q 594 564 585 510 q 603 568 594 568 q 609 566 606 568 q 611 561 613 564 q 599 494 606 522 l 590 451 l 582 397 q 571 322 582 393 q 561 317 569 317 q 554 324 553 318 q 558 365 558 347 q 538 421 558 404 q 469 438 517 438 l 279 438 l 222 118 q 218 76 218 93 q 236 37 218 47 q 304 26 254 26 l 456 26 q 558 76 508 26 q 636 207 608 126 q 645 210 638 211 q 651 204 653 208 q 608 21 631 139 q 601 5 606 10 q 586 0 596 0 l 22 0 q 19 8 19 0 q 22 17 19 17 q 90 24 68 17 q 122 50 111 31 q 140 113 132 69 l 254 756 q 258 800 258 783 q 240 841 258 831 q 171 851 222 851 q 167 860 167 851 q 171 868 167 868 l 703 868 m 479 903 q 472 900 479 900 q 463 903 464 900 q 461 918 461 908 q 472 965 461 944 q 503 1011 482 985 q 531 1053 522 1036 q 540 1090 540 1069 q 526 1124 540 1113 q 489 1136 511 1136 q 449 1128 468 1136 l 446 1126 q 439 1131 442 1126 q 442 1139 436 1136 q 535 1167 488 1167 q 594 1149 574 1167 q 615 1106 615 1132 q 597 1053 615 1076 q 543 1000 578 1031 q 494 949 510 971 q 479 903 478 928 z "},"Ē":{"ha":714,"x_min":19,"x_max":711,"o":"m 703 868 q 711 856 714 868 l 699 776 q 685 683 693 726 q 675 679 683 678 q 668 685 667 681 q 669 717 669 696 q 642 812 669 776 q 563 847 614 847 l 449 847 q 383 840 404 847 q 351 815 361 833 q 335 754 342 796 l 283 467 l 479 467 q 559 488 533 467 q 594 564 585 510 q 603 568 594 568 q 609 566 606 568 q 611 561 613 564 q 599 494 606 522 l 590 451 l 582 397 q 571 322 582 393 q 561 317 569 317 q 554 324 553 318 q 558 365 558 347 q 538 421 558 404 q 469 438 517 438 l 279 438 l 222 118 q 218 76 218 93 q 236 37 218 47 q 304 26 254 26 l 456 26 q 558 76 508 26 q 636 207 608 126 q 645 210 638 211 q 651 204 653 208 q 608 21 631 139 q 601 5 606 10 q 586 0 596 0 l 22 0 q 19 8 19 0 q 22 17 19 17 q 90 24 68 17 q 122 50 111 31 q 140 113 132 69 l 254 756 q 258 800 258 783 q 240 841 258 831 q 171 851 222 851 q 167 860 167 851 q 171 868 167 868 l 703 868 m 333 997 q 325 1017 325 997 q 333 1036 325 1036 l 664 1036 q 672 1017 672 1036 q 664 997 672 997 l 333 997 z "},"Ę":{"ha":714,"x_min":19,"x_max":714,"o":"m 703 868 q 711 856 714 868 l 699 776 q 685 683 693 726 q 675 679 683 678 q 668 685 667 681 q 669 717 669 696 q 642 812 669 776 q 563 847 614 847 l 449 847 q 383 840 404 847 q 351 815 361 833 q 335 754 342 796 l 283 467 l 479 467 q 559 488 533 467 q 594 564 585 510 q 603 568 594 568 q 609 566 606 568 q 611 561 613 564 q 599 494 606 522 l 590 451 l 582 397 q 571 322 582 393 q 561 317 569 317 q 554 324 553 318 q 558 365 558 347 q 538 421 558 404 q 469 438 517 438 l 279 438 l 222 118 q 218 76 218 93 q 236 37 218 47 q 304 26 254 26 l 456 26 q 558 76 508 26 q 636 207 608 126 q 645 210 638 211 q 651 204 653 208 q 608 21 631 139 q 601 5 606 10 q 586 0 596 0 l 529 0 q 435 -106 471 -56 q 392 -206 400 -156 q 388 -244 388 -226 q 410 -315 388 -289 q 474 -340 432 -340 q 516 -331 499 -340 q 556 -304 533 -322 l 557 -304 q 565 -309 561 -304 q 565 -317 568 -314 q 425 -382 496 -382 q 347 -353 375 -382 q 318 -276 318 -325 q 321 -246 318 -268 q 378 -130 331 -190 q 504 0 426 -69 l 22 0 q 19 8 19 0 q 22 17 19 17 q 90 24 68 17 q 122 50 111 31 q 140 113 132 69 l 254 756 q 258 800 258 783 q 240 841 258 831 q 171 851 222 851 q 167 860 167 851 q 171 868 167 868 l 703 868 z "},"Ẽ":{"ha":714,"x_min":19,"x_max":711,"o":"m 703 868 q 711 856 714 868 l 699 776 q 685 683 693 726 q 675 679 683 678 q 668 685 667 681 q 669 717 669 696 q 642 812 669 776 q 563 847 614 847 l 449 847 q 383 840 404 847 q 351 815 361 833 q 335 754 342 796 l 283 467 l 479 467 q 559 488 533 467 q 594 564 585 510 q 603 568 594 568 q 609 566 606 568 q 611 561 613 564 q 599 494 606 522 l 590 451 l 582 397 q 571 322 582 393 q 561 317 569 317 q 554 324 553 318 q 558 365 558 347 q 538 421 558 404 q 469 438 517 438 l 279 438 l 222 118 q 218 76 218 93 q 236 37 218 47 q 304 26 254 26 l 456 26 q 558 76 508 26 q 636 207 608 126 q 645 210 638 211 q 651 204 653 208 q 608 21 631 139 q 601 5 606 10 q 586 0 596 0 l 22 0 q 19 8 19 0 q 22 17 19 17 q 90 24 68 17 q 122 50 111 31 q 140 113 132 69 l 254 756 q 258 800 258 783 q 240 841 258 831 q 171 851 222 851 q 167 860 167 851 q 171 868 167 868 l 703 868 m 318 965 q 310 969 314 965 q 310 975 307 972 q 366 1035 335 1008 q 431 1061 397 1061 q 503 1046 454 1061 q 604 1026 564 1026 q 644 1035 629 1026 q 676 1064 658 1044 l 679 1064 q 686 1060 683 1064 q 686 1054 689 1057 q 625 987 649 1004 q 574 969 601 969 q 522 976 549 969 q 489 985 494 983 q 392 1003 432 1003 q 356 996 368 1003 q 333 979 343 989 q 319 965 324 969 l 318 965 z "},"F":{"ha":671,"x_min":15,"x_max":711,"o":"m 700 868 q 707 856 711 868 l 682 683 q 672 679 681 678 q 665 685 664 681 q 667 715 667 696 q 638 812 667 776 q 560 847 610 847 l 446 847 q 380 840 401 847 q 348 815 358 833 q 329 754 338 796 l 276 450 l 456 450 q 535 472 510 450 q 571 547 561 493 q 581 552 572 553 q 588 546 589 551 q 575 475 583 514 l 568 435 q 557 364 558 378 l 547 306 q 538 301 546 300 q 531 307 529 301 q 535 347 535 331 q 514 403 535 386 q 446 421 493 421 l 271 421 l 218 118 q 213 75 213 85 q 241 28 213 40 q 350 17 269 17 q 353 8 353 17 q 350 0 353 0 q 281 1 307 0 l 157 3 l 76 1 q 18 0 56 0 q 15 8 15 0 q 18 17 15 17 q 85 24 63 17 q 118 51 107 31 q 138 113 129 71 l 250 756 q 256 800 256 779 q 236 841 256 831 q 167 851 217 851 q 164 860 164 851 q 167 868 164 868 l 700 868 z "},"G":{"ha":876,"x_min":86,"x_max":843,"o":"m 458 -17 q 256 28 340 -17 q 129 152 172 72 q 86 335 86 232 q 94 431 86 381 q 198 665 118 561 q 395 826 278 768 q 644 883 513 883 q 753 870 703 883 q 835 833 804 857 q 843 817 843 825 l 842 801 l 829 647 q 820 642 828 642 q 813 647 813 642 q 747 800 804 747 q 589 853 689 853 q 331 753 435 853 q 196 481 226 653 q 185 364 185 414 q 223 176 185 257 q 331 52 261 96 q 494 8 401 8 q 588 22 554 8 q 643 70 622 35 q 675 175 664 106 q 685 260 685 239 q 674 301 685 288 q 639 319 664 314 q 564 324 614 324 q 559 327 561 324 q 557 335 557 331 q 559 342 557 339 q 564 346 561 346 q 714 339 657 339 q 833 343 771 339 q 838 333 838 343 q 833 324 839 324 q 791 315 804 325 q 769 272 778 304 q 747 161 761 240 q 737 75 738 100 q 735 39 736 50 q 731 28 733 31 q 718 22 728 26 q 458 -17 569 -17 z "},"Ğ":{"ha":876,"x_min":86,"x_max":843,"o":"m 458 -17 q 256 28 340 -17 q 129 152 172 72 q 86 335 86 232 q 94 431 86 381 q 198 665 118 561 q 395 826 278 768 q 644 883 513 883 q 753 870 703 883 q 835 833 804 857 q 843 817 843 825 l 842 801 l 829 647 q 820 642 828 642 q 813 647 813 642 q 747 800 804 747 q 589 853 689 853 q 331 753 435 853 q 196 481 226 653 q 185 364 185 414 q 223 176 185 257 q 331 52 261 96 q 494 8 401 8 q 588 22 554 8 q 643 70 622 35 q 675 175 664 106 q 685 260 685 239 q 674 301 685 288 q 639 319 664 314 q 564 324 614 324 q 559 327 561 324 q 557 335 557 331 q 559 342 557 339 q 564 346 561 346 q 714 339 657 339 q 833 343 771 339 q 838 333 838 343 q 833 324 839 324 q 791 315 804 325 q 769 272 778 304 q 747 161 761 240 q 737 75 738 100 q 735 39 736 50 q 731 28 733 31 q 718 22 728 26 q 458 -17 569 -17 m 622 925 q 531 960 563 925 q 499 1044 499 994 q 519 1060 499 1053 q 557 1067 539 1067 q 569 1063 569 1067 q 595 998 572 1022 q 658 974 618 974 q 713 993 689 974 q 757 1057 736 1013 q 765 1061 761 1061 q 776 1058 771 1061 q 781 1053 782 1056 q 622 925 722 925 z "},"Ǧ":{"ha":876,"x_min":86,"x_max":843,"o":"m 458 -17 q 256 28 340 -17 q 129 152 172 72 q 86 335 86 232 q 94 431 86 381 q 198 665 118 561 q 395 826 278 768 q 644 883 513 883 q 753 870 703 883 q 835 833 804 857 q 843 817 843 825 l 842 801 l 829 647 q 820 642 828 642 q 813 647 813 642 q 747 800 804 747 q 589 853 689 853 q 331 753 435 853 q 196 481 226 653 q 185 364 185 414 q 223 176 185 257 q 331 52 261 96 q 494 8 401 8 q 588 22 554 8 q 643 70 622 35 q 675 175 664 106 q 685 260 685 239 q 674 301 685 288 q 639 319 664 314 q 564 324 614 324 q 559 327 561 324 q 557 335 557 331 q 559 342 557 339 q 564 346 561 346 q 714 339 657 339 q 833 343 771 339 q 838 333 838 343 q 833 324 839 324 q 791 315 804 325 q 769 272 778 304 q 747 161 761 240 q 737 75 738 100 q 735 39 736 50 q 731 28 733 31 q 718 22 728 26 q 458 -17 569 -17 m 506 1074 l 506 1075 q 510 1081 506 1078 q 515 1083 514 1085 l 632 1003 l 774 1085 q 781 1081 776 1086 q 782 1074 786 1075 l 633 938 q 619 932 628 932 q 607 938 613 932 l 506 1074 z "},"Ĝ":{"ha":876,"x_min":86,"x_max":843,"o":"m 458 -17 q 256 28 340 -17 q 129 152 172 72 q 86 335 86 232 q 94 431 86 381 q 198 665 118 561 q 395 826 278 768 q 644 883 513 883 q 753 870 703 883 q 835 833 804 857 q 843 817 843 825 l 842 801 l 829 647 q 820 642 828 642 q 813 647 813 642 q 747 800 804 747 q 589 853 689 853 q 331 753 435 853 q 196 481 226 653 q 185 364 185 414 q 223 176 185 257 q 331 52 261 96 q 494 8 401 8 q 588 22 554 8 q 643 70 622 35 q 675 175 664 106 q 685 260 685 239 q 674 301 685 288 q 639 319 664 314 q 564 324 614 324 q 559 327 561 324 q 557 335 557 331 q 559 342 557 339 q 564 346 561 346 q 714 339 657 339 q 833 343 771 339 q 838 333 838 343 q 833 324 839 324 q 791 315 804 325 q 769 272 778 304 q 747 161 761 240 q 737 75 738 100 q 735 39 736 50 q 731 28 733 31 q 718 22 728 26 q 458 -17 569 -17 m 492 917 q 485 920 488 917 q 485 926 482 924 l 633 1061 q 646 1068 638 1068 q 658 1061 654 1068 l 763 926 l 763 925 q 759 917 763 921 q 753 917 756 914 l 633 996 l 493 917 l 492 917 z "},"Ģ":{"ha":876,"x_min":86,"x_max":843,"o":"m 458 -17 q 256 28 340 -17 q 129 152 172 72 q 86 335 86 232 q 94 431 86 381 q 198 665 118 561 q 395 826 278 768 q 644 883 513 883 q 753 870 703 883 q 835 833 804 857 q 843 817 843 825 l 842 801 l 829 647 q 820 642 828 642 q 813 647 813 642 q 747 800 804 747 q 589 853 689 853 q 331 753 435 853 q 196 481 226 653 q 185 364 185 414 q 223 176 185 257 q 331 52 261 96 q 494 8 401 8 q 588 22 554 8 q 643 70 622 35 q 675 175 664 106 q 685 260 685 239 q 674 301 685 288 q 639 319 664 314 q 564 324 614 324 q 559 327 561 324 q 557 335 557 331 q 559 342 557 339 q 564 346 561 346 q 714 339 657 339 q 833 343 771 339 q 838 333 838 343 q 833 324 839 324 q 791 315 804 325 q 769 272 778 304 q 747 161 761 240 q 737 75 738 100 q 735 39 736 50 q 731 28 733 31 q 718 22 728 26 q 458 -17 569 -17 m 450 -119 q 503 -142 483 -119 q 524 -204 524 -165 q 413 -382 524 -301 l 410 -383 q 401 -377 404 -383 q 403 -368 399 -371 q 476 -261 468 -322 q 478 -237 478 -251 q 475 -215 478 -221 q 440 -228 463 -228 q 398 -212 413 -228 q 386 -171 383 -196 q 404 -133 388 -147 q 450 -119 421 -119 z "},"Ġ":{"ha":876,"x_min":86,"x_max":843,"o":"m 458 -17 q 256 28 340 -17 q 129 152 172 72 q 86 335 86 232 q 94 431 86 381 q 198 665 118 561 q 395 826 278 768 q 644 883 513 883 q 753 870 703 883 q 835 833 804 857 q 843 817 843 825 l 842 801 l 829 647 q 820 642 828 642 q 813 647 813 642 q 747 800 804 747 q 589 853 689 853 q 331 753 435 853 q 196 481 226 653 q 185 364 185 414 q 223 176 185 257 q 331 52 261 96 q 494 8 401 8 q 588 22 554 8 q 643 70 622 35 q 675 175 664 106 q 685 260 685 239 q 674 301 685 288 q 639 319 664 314 q 564 324 614 324 q 559 327 561 324 q 557 335 557 331 q 559 342 557 339 q 564 346 561 346 q 714 339 657 339 q 833 343 771 339 q 838 333 838 343 q 833 324 839 324 q 791 315 804 325 q 769 272 778 304 q 747 161 761 240 q 737 75 738 100 q 735 39 736 50 q 731 28 733 31 q 718 22 728 26 q 458 -17 569 -17 m 635 985 q 591 1001 607 985 q 575 1043 575 1017 q 591 1085 575 1069 q 635 1100 607 1100 q 678 1085 663 1100 q 694 1043 694 1069 q 678 1000 694 1015 q 635 985 663 985 z "},"Ḡ":{"ha":876,"x_min":86,"x_max":843,"o":"m 458 -17 q 256 28 340 -17 q 129 152 172 72 q 86 335 86 232 q 94 431 86 381 q 198 665 118 561 q 395 826 278 768 q 644 883 513 883 q 753 870 703 883 q 835 833 804 857 q 843 817 843 825 l 842 801 l 829 647 q 820 642 828 642 q 813 647 813 642 q 747 800 804 747 q 589 853 689 853 q 331 753 435 853 q 196 481 226 653 q 185 364 185 414 q 223 176 185 257 q 331 52 261 96 q 494 8 401 8 q 588 22 554 8 q 643 70 622 35 q 675 175 664 106 q 685 260 685 239 q 674 301 685 288 q 639 319 664 314 q 564 324 614 324 q 559 327 561 324 q 557 335 557 331 q 559 342 557 339 q 564 346 561 346 q 714 339 657 339 q 833 343 771 339 q 838 333 838 343 q 833 324 839 324 q 791 315 804 325 q 769 272 778 304 q 747 161 761 240 q 737 75 738 100 q 735 39 736 50 q 731 28 733 31 q 718 22 728 26 q 458 -17 569 -17 m 436 990 q 428 1010 428 990 q 430 1022 428 1017 q 436 1028 432 1028 l 785 1028 q 791 1022 789 1028 q 793 1010 793 1017 q 785 990 793 990 l 436 990 z "},"H":{"ha":932,"x_min":11,"x_max":975,"o":"m 972 868 q 975 860 975 868 q 972 851 975 851 q 906 844 928 851 q 872 817 883 836 q 854 756 861 797 l 740 113 q 736 69 736 88 q 755 27 736 38 q 825 17 774 17 q 829 8 829 17 q 825 0 829 0 q 769 1 790 0 l 686 3 l 603 1 q 543 0 581 0 q 540 8 540 0 q 543 17 540 17 q 610 24 589 17 q 643 51 632 31 q 661 113 654 71 l 718 438 l 272 438 l 214 113 q 208 67 208 76 q 227 27 208 38 q 297 17 246 17 q 301 8 301 17 q 297 0 301 0 q 239 1 261 0 l 154 3 l 72 1 q 15 0 51 0 q 11 8 11 0 q 15 17 11 17 q 83 24 60 17 q 117 51 106 31 q 135 113 128 71 l 249 756 q 253 799 253 783 q 234 841 253 831 q 164 851 215 851 q 161 860 161 851 q 164 868 161 868 l 222 867 q 303 864 272 864 q 389 867 336 864 l 446 868 q 449 860 449 868 q 446 851 449 851 q 380 843 401 851 q 347 815 358 835 q 328 753 336 794 l 276 467 l 724 467 l 774 753 q 779 799 779 789 q 760 840 779 829 q 692 851 742 851 q 688 860 688 851 q 692 868 688 868 l 749 867 q 831 864 799 864 q 914 867 861 864 l 972 868 z "},"Ħ":{"ha":932,"x_min":11,"x_max":975,"o":"m 972 868 q 975 860 975 868 q 972 851 975 851 q 906 844 928 851 q 872 817 883 836 q 854 756 861 797 l 740 113 q 735 68 735 76 q 754 27 735 38 q 825 17 774 17 q 829 8 829 17 q 825 0 829 0 q 769 1 790 0 l 686 3 l 603 1 q 543 0 581 0 q 540 8 540 0 q 543 17 540 17 q 610 24 589 17 q 643 51 632 31 q 661 113 654 71 l 696 307 l 249 307 l 214 113 q 208 67 208 76 q 227 27 208 38 q 297 17 246 17 q 301 8 301 17 q 297 0 301 0 q 239 1 261 0 l 154 3 l 72 1 q 15 0 51 0 q 11 8 11 0 q 15 17 11 17 q 83 24 60 17 q 117 51 106 31 q 135 113 128 71 l 249 756 q 254 800 254 792 q 235 841 254 831 q 164 851 215 851 q 161 860 161 851 q 164 868 161 868 l 222 867 q 303 864 272 864 q 389 867 336 864 l 446 868 q 449 860 449 868 q 446 851 449 851 q 380 843 401 851 q 347 815 358 835 q 328 753 336 794 l 300 596 l 746 596 l 774 753 q 779 799 779 789 q 760 840 779 829 q 692 851 742 851 q 688 860 688 851 q 692 868 688 868 l 749 867 q 831 864 799 864 q 914 867 861 864 l 972 868 m 254 336 l 700 336 l 740 567 l 294 567 l 254 336 z "},"Ḫ":{"ha":932,"x_min":11,"x_max":975,"o":"m 972 868 q 975 860 975 868 q 972 851 975 851 q 906 844 928 851 q 872 817 883 836 q 854 756 861 797 l 740 113 q 736 69 736 88 q 755 27 736 38 q 825 17 774 17 q 829 8 829 17 q 825 0 829 0 q 769 1 790 0 l 686 3 l 603 1 q 543 0 581 0 q 540 8 540 0 q 543 17 540 17 q 610 24 589 17 q 643 51 632 31 q 661 113 654 71 l 718 438 l 272 438 l 214 113 q 208 67 208 76 q 227 27 208 38 q 297 17 246 17 q 301 8 301 17 q 297 0 301 0 q 239 1 261 0 l 154 3 l 72 1 q 15 0 51 0 q 11 8 11 0 q 15 17 11 17 q 83 24 60 17 q 117 51 106 31 q 135 113 128 71 l 249 756 q 253 799 253 783 q 234 841 253 831 q 164 851 215 851 q 161 860 161 851 q 164 868 161 868 l 222 867 q 303 864 272 864 q 389 867 336 864 l 446 868 q 449 860 449 868 q 446 851 449 851 q 380 843 401 851 q 347 815 358 835 q 328 753 336 794 l 276 467 l 724 467 l 774 753 q 779 799 779 789 q 760 840 779 829 q 692 851 742 851 q 688 860 688 851 q 692 868 688 868 l 749 867 q 831 864 799 864 q 914 867 861 864 l 972 868 m 392 -269 q 300 -235 332 -269 q 268 -150 268 -200 q 288 -135 268 -142 q 326 -128 308 -128 q 339 -132 339 -128 q 365 -197 342 -172 q 428 -221 388 -221 q 482 -201 458 -221 q 526 -137 506 -182 q 535 -133 531 -133 q 546 -136 540 -133 q 550 -142 551 -139 q 392 -269 492 -269 z "},"Ĥ":{"ha":932,"x_min":11,"x_max":975,"o":"m 972 868 q 975 860 975 868 q 972 851 975 851 q 906 844 928 851 q 872 817 883 836 q 854 756 861 797 l 740 113 q 736 69 736 88 q 755 27 736 38 q 825 17 774 17 q 829 8 829 17 q 825 0 829 0 q 769 1 790 0 l 686 3 l 603 1 q 543 0 581 0 q 540 8 540 0 q 543 17 540 17 q 610 24 589 17 q 643 51 632 31 q 661 113 654 71 l 718 438 l 272 438 l 214 113 q 208 67 208 76 q 227 27 208 38 q 297 17 246 17 q 301 8 301 17 q 297 0 301 0 q 239 1 261 0 l 154 3 l 72 1 q 15 0 51 0 q 11 8 11 0 q 15 17 11 17 q 83 24 60 17 q 117 51 106 31 q 135 113 128 71 l 249 756 q 253 799 253 783 q 234 841 253 831 q 164 851 215 851 q 161 860 161 851 q 164 868 161 868 l 222 867 q 303 864 272 864 q 389 867 336 864 l 446 868 q 449 860 449 868 q 446 851 449 851 q 380 843 401 851 q 347 815 358 835 q 328 753 336 794 l 276 467 l 724 467 l 774 753 q 779 799 779 789 q 760 840 779 829 q 692 851 742 851 q 688 860 688 851 q 692 868 688 868 l 749 867 q 831 864 799 864 q 914 867 861 864 l 972 868 m 453 917 q 446 920 449 917 q 446 926 443 924 l 594 1061 q 607 1068 599 1068 q 619 1061 615 1068 l 724 926 l 724 925 q 720 917 724 921 q 714 917 717 914 l 594 996 l 454 917 l 453 917 z "},"Ḥ":{"ha":932,"x_min":11,"x_max":975,"o":"m 972 868 q 975 860 975 868 q 972 851 975 851 q 906 844 928 851 q 872 817 883 836 q 854 756 861 797 l 740 113 q 736 69 736 88 q 755 27 736 38 q 825 17 774 17 q 829 8 829 17 q 825 0 829 0 q 769 1 790 0 l 686 3 l 603 1 q 543 0 581 0 q 540 8 540 0 q 543 17 540 17 q 610 24 589 17 q 643 51 632 31 q 661 113 654 71 l 718 438 l 272 438 l 214 113 q 208 67 208 76 q 227 27 208 38 q 297 17 246 17 q 301 8 301 17 q 297 0 301 0 q 239 1 261 0 l 154 3 l 72 1 q 15 0 51 0 q 11 8 11 0 q 15 17 11 17 q 83 24 60 17 q 117 51 106 31 q 135 113 128 71 l 249 756 q 253 799 253 783 q 234 841 253 831 q 164 851 215 851 q 161 860 161 851 q 164 868 161 868 l 222 867 q 303 864 272 864 q 389 867 336 864 l 446 868 q 449 860 449 868 q 446 851 449 851 q 380 843 401 851 q 347 815 358 835 q 328 753 336 794 l 276 467 l 724 467 l 774 753 q 779 799 779 789 q 760 840 779 829 q 692 851 742 851 q 688 860 688 851 q 692 868 688 868 l 749 867 q 831 864 799 864 q 914 867 861 864 l 972 868 m 406 -262 q 362 -247 378 -262 q 346 -203 346 -231 q 362 -161 346 -176 q 406 -146 378 -146 q 449 -161 433 -146 q 464 -203 464 -176 q 449 -247 464 -231 q 406 -262 433 -262 z "},"I":{"ha":428,"x_min":24,"x_max":461,"o":"m 28 0 q 24 8 24 0 q 28 17 24 17 q 94 24 72 17 q 126 51 115 31 q 144 113 138 71 l 258 756 q 264 799 264 792 q 244 841 264 831 q 174 851 225 851 q 169 860 169 851 q 174 868 169 868 l 233 867 q 314 864 283 864 q 403 867 350 864 l 458 868 q 461 860 461 868 q 458 851 461 851 q 392 843 414 851 q 360 815 371 835 q 340 753 349 794 l 226 113 q 222 68 222 86 q 241 27 222 38 q 313 17 260 17 q 315 8 315 17 q 313 0 315 0 q 256 1 276 0 l 169 3 l 88 1 q 28 0 67 0 z "},"Ĳ":{"ha":860,"x_min":68,"x_max":928,"o":"m 74 374 q 68 382 68 374 q 74 390 68 390 q 144 397 121 390 q 178 424 167 404 q 196 486 189 444 l 243 756 q 249 800 249 792 q 228 841 249 831 q 154 851 208 851 q 149 860 149 851 q 154 868 149 868 l 218 867 q 304 864 274 864 q 396 867 340 864 l 453 868 q 460 860 460 868 q 453 851 460 851 q 382 843 406 851 q 347 815 358 835 q 329 753 336 794 l 282 486 q 276 440 276 460 q 296 400 276 410 q 369 390 315 390 q 375 382 375 390 q 369 374 375 374 q 311 375 332 374 l 221 376 l 135 375 q 74 374 113 374 m 392 -18 q 256 10 315 -18 q 165 81 197 38 q 133 171 133 125 q 148 220 133 201 q 185 239 163 239 q 224 219 215 239 q 233 154 232 199 q 266 46 236 89 q 386 3 296 3 q 643 278 596 3 l 728 756 q 732 797 732 781 q 709 840 732 829 q 624 851 686 851 q 619 860 619 851 q 624 868 619 868 l 696 867 q 786 864 751 864 q 869 867 819 864 l 922 868 q 928 860 928 868 q 922 851 928 851 q 860 843 881 851 q 828 815 839 835 q 811 753 818 794 l 743 358 q 616 81 711 179 q 392 -18 521 -18 z "},"Í":{"ha":428,"x_min":24,"x_max":557,"o":"m 28 0 q 24 8 24 0 q 28 17 24 17 q 94 24 72 17 q 126 51 115 31 q 144 113 138 71 l 258 756 q 264 799 264 792 q 244 841 264 831 q 174 851 225 851 q 169 860 169 851 q 174 868 169 868 l 233 867 q 314 864 283 864 q 403 867 350 864 l 458 868 q 461 860 461 868 q 458 851 461 851 q 392 843 414 851 q 360 815 371 835 q 340 753 349 794 l 226 113 q 222 68 222 86 q 241 27 222 38 q 313 17 260 17 q 315 8 315 17 q 313 0 315 0 q 256 1 276 0 l 169 3 l 88 1 q 28 0 67 0 m 243 942 q 236 948 238 942 q 239 957 235 954 q 396 1047 290 983 l 464 1089 q 497 1083 469 1092 q 544 1063 524 1074 q 554 1050 564 1051 q 397 1003 468 1029 q 246 943 325 978 l 243 942 z "},"Ĭ":{"ha":428,"x_min":24,"x_max":493,"o":"m 28 0 q 24 8 24 0 q 28 17 24 17 q 94 24 72 17 q 126 51 115 31 q 144 113 138 71 l 258 756 q 264 799 264 792 q 244 841 264 831 q 174 851 225 851 q 169 860 169 851 q 174 868 169 868 l 233 867 q 314 864 283 864 q 403 867 350 864 l 458 868 q 461 860 461 868 q 458 851 461 851 q 392 843 414 851 q 360 815 371 835 q 340 753 349 794 l 226 113 q 222 68 222 86 q 241 27 222 38 q 313 17 260 17 q 315 8 315 17 q 313 0 315 0 q 256 1 276 0 l 169 3 l 88 1 q 28 0 67 0 m 335 925 q 243 960 275 925 q 211 1044 211 994 q 231 1060 211 1053 q 269 1067 251 1067 q 282 1063 282 1067 q 308 998 285 1022 q 371 974 331 974 q 425 993 401 974 q 469 1057 449 1013 q 478 1061 474 1061 q 489 1058 483 1061 q 493 1053 494 1056 q 335 925 435 925 z "},"Ǐ":{"ha":428,"x_min":24,"x_max":488,"o":"m 28 0 q 24 8 24 0 q 28 17 24 17 q 94 24 72 17 q 126 51 115 31 q 144 113 138 71 l 258 756 q 264 799 264 792 q 244 841 264 831 q 174 851 225 851 q 169 860 169 851 q 174 868 169 868 l 233 867 q 314 864 283 864 q 403 867 350 864 l 458 868 q 461 860 461 868 q 458 851 461 851 q 392 843 414 851 q 360 815 371 835 q 340 753 349 794 l 226 113 q 222 68 222 86 q 241 27 222 38 q 313 17 260 17 q 315 8 315 17 q 313 0 315 0 q 256 1 276 0 l 169 3 l 88 1 q 28 0 67 0 m 210 1074 l 210 1075 q 214 1081 210 1078 q 219 1083 218 1085 l 336 1003 l 478 1085 q 485 1081 481 1086 q 486 1074 490 1075 l 338 938 q 324 932 332 932 q 311 938 317 932 l 210 1074 z "},"Î":{"ha":428,"x_min":24,"x_max":467,"o":"m 28 0 q 24 8 24 0 q 28 17 24 17 q 94 24 72 17 q 126 51 115 31 q 144 113 138 71 l 258 756 q 264 799 264 792 q 244 841 264 831 q 174 851 225 851 q 169 860 169 851 q 174 868 169 868 l 233 867 q 314 864 283 864 q 403 867 350 864 l 458 868 q 461 860 461 868 q 458 851 461 851 q 392 843 414 851 q 360 815 371 835 q 340 753 349 794 l 226 113 q 222 68 222 86 q 241 27 222 38 q 313 17 260 17 q 315 8 315 17 q 313 0 315 0 q 256 1 276 0 l 169 3 l 88 1 q 28 0 67 0 m 196 917 q 189 920 192 917 q 189 926 186 924 l 338 1061 q 350 1068 342 1068 q 363 1061 358 1068 l 467 926 l 467 925 q 463 917 467 921 q 457 917 460 914 l 338 996 l 197 917 l 196 917 z "},"Ï":{"ha":428,"x_min":24,"x_max":499,"o":"m 28 0 q 24 8 24 0 q 28 17 24 17 q 94 24 72 17 q 126 51 115 31 q 144 113 138 71 l 258 756 q 264 799 264 792 q 244 841 264 831 q 174 851 225 851 q 169 860 169 851 q 174 868 169 868 l 233 867 q 314 864 283 864 q 403 867 350 864 l 458 868 q 461 860 461 868 q 458 851 461 851 q 392 843 414 851 q 360 815 371 835 q 340 753 349 794 l 226 113 q 222 68 222 86 q 241 27 222 38 q 313 17 260 17 q 315 8 315 17 q 313 0 315 0 q 256 1 276 0 l 169 3 l 88 1 q 28 0 67 0 m 257 996 q 213 1011 229 996 q 197 1053 197 1026 q 213 1094 197 1079 q 257 1110 229 1110 q 299 1095 285 1110 q 314 1053 314 1081 q 299 1011 314 1026 q 257 996 285 996 m 440 996 q 397 1011 413 996 q 382 1053 382 1026 q 397 1094 382 1079 q 440 1110 413 1110 q 483 1095 468 1110 q 499 1053 499 1081 q 483 1010 499 1025 q 440 996 468 996 z "},"İ":{"ha":428,"x_min":24,"x_max":461,"o":"m 28 0 q 24 8 24 0 q 28 17 24 17 q 94 24 72 17 q 126 51 115 31 q 144 113 138 71 l 258 756 q 264 799 264 792 q 244 841 264 831 q 174 851 225 851 q 169 860 169 851 q 174 868 169 868 l 233 867 q 314 864 283 864 q 403 867 350 864 l 458 868 q 461 860 461 868 q 458 851 461 851 q 392 843 414 851 q 360 815 371 835 q 340 753 349 794 l 226 113 q 222 68 222 86 q 241 27 222 38 q 313 17 260 17 q 315 8 315 17 q 313 0 315 0 q 256 1 276 0 l 169 3 l 88 1 q 28 0 67 0 m 339 985 q 295 1001 311 985 q 279 1043 279 1017 q 295 1085 279 1069 q 339 1100 311 1100 q 383 1085 367 1100 q 399 1043 399 1069 q 383 1000 399 1015 q 339 985 367 985 z "},"Ị":{"ha":428,"x_min":24,"x_max":461,"o":"m 28 0 q 24 8 24 0 q 28 17 24 17 q 94 24 72 17 q 126 51 115 31 q 144 113 138 71 l 258 756 q 264 799 264 792 q 244 841 264 831 q 174 851 225 851 q 169 860 169 851 q 174 868 169 868 l 233 867 q 314 864 283 864 q 403 867 350 864 l 458 868 q 461 860 461 868 q 458 851 461 851 q 392 843 414 851 q 360 815 371 835 q 340 753 349 794 l 226 113 q 222 68 222 86 q 241 27 222 38 q 313 17 260 17 q 315 8 315 17 q 313 0 315 0 q 256 1 276 0 l 169 3 l 88 1 q 28 0 67 0 m 139 -262 q 95 -247 111 -262 q 79 -203 79 -231 q 95 -161 79 -176 q 139 -146 111 -146 q 182 -161 167 -146 q 197 -203 197 -176 q 182 -247 197 -231 q 139 -262 167 -262 z "},"Ì":{"ha":428,"x_min":24,"x_max":461,"o":"m 28 0 q 24 8 24 0 q 28 17 24 17 q 94 24 72 17 q 126 51 115 31 q 144 113 138 71 l 258 756 q 264 799 264 792 q 244 841 264 831 q 174 851 225 851 q 169 860 169 851 q 174 868 169 868 l 233 867 q 314 864 283 864 q 403 867 350 864 l 458 868 q 461 860 461 868 q 458 851 461 851 q 392 843 414 851 q 360 815 371 835 q 340 753 349 794 l 226 113 q 222 68 222 86 q 241 27 222 38 q 313 17 260 17 q 315 8 315 17 q 313 0 315 0 q 256 1 276 0 l 169 3 l 88 1 q 28 0 67 0 m 443 947 q 316 1005 375 981 q 183 1050 257 1029 q 194 1064 171 1053 q 250 1083 218 1075 q 288 1089 282 1092 q 453 960 388 1004 q 454 957 454 960 q 451 949 454 953 q 443 947 447 946 z "},"Ỉ":{"ha":428,"x_min":24,"x_max":465,"o":"m 28 0 q 24 8 24 0 q 28 17 24 17 q 94 24 72 17 q 126 51 115 31 q 144 113 138 71 l 258 756 q 264 799 264 792 q 244 841 264 831 q 174 851 225 851 q 169 860 169 851 q 174 868 169 868 l 233 867 q 314 864 283 864 q 403 867 350 864 l 458 868 q 461 860 461 868 q 458 851 461 851 q 392 843 414 851 q 360 815 371 835 q 340 753 349 794 l 226 113 q 222 68 222 86 q 241 27 222 38 q 313 17 260 17 q 315 8 315 17 q 313 0 315 0 q 256 1 276 0 l 169 3 l 88 1 q 28 0 67 0 m 329 903 q 322 900 329 900 q 313 903 314 900 q 311 918 311 908 q 322 965 311 944 q 353 1011 332 985 q 381 1053 372 1036 q 390 1090 390 1069 q 376 1124 390 1113 q 339 1136 361 1136 q 299 1128 318 1136 l 296 1126 q 289 1131 292 1126 q 292 1139 286 1136 q 385 1167 338 1167 q 444 1149 424 1167 q 465 1106 465 1132 q 447 1053 465 1076 q 393 1000 428 1031 q 344 949 360 971 q 329 903 328 928 z "},"Ī":{"ha":428,"x_min":24,"x_max":522,"o":"m 28 0 q 24 8 24 0 q 28 17 24 17 q 94 24 72 17 q 126 51 115 31 q 144 113 138 71 l 258 756 q 264 799 264 792 q 244 841 264 831 q 174 851 225 851 q 169 860 169 851 q 174 868 169 868 l 233 867 q 314 864 283 864 q 403 867 350 864 l 458 868 q 461 860 461 868 q 458 851 461 851 q 392 843 414 851 q 360 815 371 835 q 340 753 349 794 l 226 113 q 222 68 222 86 q 241 27 222 38 q 313 17 260 17 q 315 8 315 17 q 313 0 315 0 q 256 1 276 0 l 169 3 l 88 1 q 28 0 67 0 m 183 997 q 175 1017 175 997 q 183 1036 175 1036 l 514 1036 q 522 1017 522 1036 q 514 997 522 997 l 183 997 z "},"Į":{"ha":428,"x_min":10,"x_max":461,"o":"m 458 868 q 461 860 461 868 q 458 851 461 851 q 392 843 414 851 q 360 815 371 835 q 340 753 349 794 l 226 113 q 222 68 222 86 q 241 27 222 38 q 313 17 260 17 q 315 8 315 17 q 313 0 315 0 q 258 1 278 0 l 181 3 q 85 -206 101 -94 q 81 -249 81 -229 q 98 -315 81 -290 q 149 -339 115 -339 q 186 -331 171 -339 q 221 -306 201 -322 l 224 -306 q 232 -310 228 -306 q 232 -317 236 -314 q 167 -367 196 -353 q 104 -382 138 -382 q 35 -354 60 -382 q 10 -281 10 -326 q 49 -144 10 -214 q 161 3 89 -74 l 83 1 q 28 0 64 0 q 24 8 24 0 q 28 17 24 17 q 94 24 72 17 q 126 51 115 31 q 144 113 138 71 l 258 756 q 264 799 264 792 q 244 841 264 831 q 174 851 225 851 q 169 860 169 851 q 174 868 169 868 l 233 867 q 314 864 283 864 q 403 867 350 864 l 458 868 z "},"Ĩ":{"ha":428,"x_min":24,"x_max":533,"o":"m 28 0 q 24 8 24 0 q 28 17 24 17 q 94 24 72 17 q 126 51 115 31 q 144 113 138 71 l 258 756 q 264 799 264 792 q 244 841 264 831 q 174 851 225 851 q 169 860 169 851 q 174 868 169 868 l 233 867 q 314 864 283 864 q 403 867 350 864 l 458 868 q 461 860 461 868 q 458 851 461 851 q 392 843 414 851 q 360 815 371 835 q 340 753 349 794 l 226 113 q 222 68 222 86 q 241 27 222 38 q 313 17 260 17 q 315 8 315 17 q 313 0 315 0 q 256 1 276 0 l 169 3 l 88 1 q 28 0 67 0 m 164 967 q 157 970 160 967 q 157 976 154 974 q 213 1035 181 1008 q 278 1061 244 1061 q 347 1047 297 1061 q 451 1028 411 1028 q 492 1038 476 1028 q 522 1065 507 1047 l 524 1065 q 531 1062 528 1065 q 532 1056 535 1058 q 470 988 494 1006 q 419 969 446 969 q 335 986 390 969 q 299 996 329 988 q 238 1004 269 1004 q 201 997 214 1004 q 179 979 189 989 q 167 967 169 969 l 164 967 z "},"J":{"ha":389,"x_min":-39,"x_max":449,"o":"m -29 -268 q -35 -262 -32 -268 q -36 -253 -39 -256 q 63 -140 26 -215 q 122 56 100 -64 l 246 756 q 250 799 250 781 q 231 841 250 831 q 160 851 213 851 q 157 860 157 851 q 160 868 157 868 l 217 867 q 300 864 269 864 q 390 867 338 864 l 444 868 q 449 860 449 868 q 444 851 449 851 q 378 843 400 851 q 344 815 356 835 q 326 753 333 794 l 210 93 q 161 -83 189 -17 q 89 -192 133 -150 q -28 -268 44 -235 l -29 -268 z "},"Ĵ":{"ha":389,"x_min":-37,"x_max":453,"o":"m -29 -268 q -35 -262 -32 -268 q -36 -253 -39 -256 q 63 -140 26 -215 q 122 56 100 -64 l 246 756 q 250 799 250 781 q 231 841 250 831 q 160 851 213 851 q 157 860 157 851 q 160 868 157 868 l 217 867 q 300 864 269 864 q 390 867 338 864 l 444 868 q 449 860 449 868 q 444 851 449 851 q 378 843 400 851 q 344 815 356 835 q 326 753 333 794 l 210 93 q 161 -83 189 -17 q 89 -192 133 -150 q -28 -268 44 -235 l -29 -268 m 182 917 q 175 920 178 917 q 175 926 172 924 l 324 1061 q 336 1068 328 1068 q 349 1061 344 1068 l 453 926 l 453 925 q 449 917 453 921 q 443 917 446 914 l 324 996 l 183 917 l 182 917 z "},"K":{"ha":826,"x_min":11,"x_max":864,"o":"m 860 868 q 864 860 864 868 q 860 851 864 851 q 751 827 810 851 q 636 749 692 803 l 388 529 l 526 281 q 635 99 597 153 q 699 31 674 44 q 764 17 724 17 q 768 8 768 17 q 764 0 768 0 l 646 0 q 583 7 596 0 q 529 94 571 14 q 471 206 488 175 l 322 471 l 269 425 l 214 113 q 206 54 206 63 q 222 24 206 32 q 286 17 239 17 q 289 8 289 17 q 286 0 289 0 q 232 1 250 0 l 154 3 l 72 1 q 15 0 51 0 q 11 8 11 0 q 15 17 11 17 q 83 24 60 17 q 117 51 106 31 q 135 113 128 71 l 249 756 q 253 799 253 783 q 234 841 253 831 q 164 851 215 851 q 161 860 161 851 q 164 868 161 868 l 222 867 q 303 864 272 864 q 389 867 336 864 l 446 868 q 449 860 449 868 q 446 851 449 851 q 380 843 401 851 q 347 815 358 835 q 328 753 336 794 l 275 457 l 607 757 q 658 828 658 804 q 594 851 658 851 q 592 860 592 851 q 594 868 592 868 l 647 867 q 738 864 697 864 q 817 867 775 864 l 860 868 z "},"Ḱ":{"ha":826,"x_min":11,"x_max":864,"o":"m 860 868 q 864 860 864 868 q 860 851 864 851 q 751 827 810 851 q 636 749 692 803 l 388 529 l 526 281 q 635 99 597 153 q 699 31 674 44 q 764 17 724 17 q 768 8 768 17 q 764 0 768 0 l 646 0 q 583 7 596 0 q 529 94 571 14 q 471 206 488 175 l 322 471 l 269 425 l 214 113 q 206 54 206 63 q 222 24 206 32 q 286 17 239 17 q 289 8 289 17 q 286 0 289 0 q 232 1 250 0 l 154 3 l 72 1 q 15 0 51 0 q 11 8 11 0 q 15 17 11 17 q 83 24 60 17 q 117 51 106 31 q 135 113 128 71 l 249 756 q 253 799 253 783 q 234 841 253 831 q 164 851 215 851 q 161 860 161 851 q 164 868 161 868 l 222 867 q 303 864 272 864 q 389 867 336 864 l 446 868 q 449 860 449 868 q 446 851 449 851 q 380 843 401 851 q 347 815 358 835 q 328 753 336 794 l 275 457 l 607 757 q 658 828 658 804 q 594 851 658 851 q 592 860 592 851 q 594 868 592 868 l 647 867 q 738 864 697 864 q 817 867 775 864 l 860 868 m 458 942 q 451 948 453 942 q 454 957 450 954 q 611 1047 506 983 l 679 1089 q 712 1083 685 1092 q 759 1063 739 1074 q 769 1050 779 1051 q 612 1003 683 1029 q 461 943 540 978 l 458 942 z "},"Ǩ":{"ha":826,"x_min":11,"x_max":864,"o":"m 860 868 q 864 860 864 868 q 860 851 864 851 q 751 827 810 851 q 636 749 692 803 l 388 529 l 526 281 q 635 99 597 153 q 699 31 674 44 q 764 17 724 17 q 768 8 768 17 q 764 0 768 0 l 646 0 q 583 7 596 0 q 529 94 571 14 q 471 206 488 175 l 322 471 l 269 425 l 214 113 q 206 54 206 63 q 222 24 206 32 q 286 17 239 17 q 289 8 289 17 q 286 0 289 0 q 232 1 250 0 l 154 3 l 72 1 q 15 0 51 0 q 11 8 11 0 q 15 17 11 17 q 83 24 60 17 q 117 51 106 31 q 135 113 128 71 l 249 756 q 253 799 253 783 q 234 841 253 831 q 164 851 215 851 q 161 860 161 851 q 164 868 161 868 l 222 867 q 303 864 272 864 q 389 867 336 864 l 446 868 q 449 860 449 868 q 446 851 449 851 q 380 843 401 851 q 347 815 358 835 q 328 753 336 794 l 275 457 l 607 757 q 658 828 658 804 q 594 851 658 851 q 592 860 592 851 q 594 868 592 868 l 647 867 q 738 864 697 864 q 817 867 775 864 l 860 868 m 425 1074 l 425 1075 q 429 1081 425 1078 q 435 1083 433 1085 l 551 1003 l 693 1085 q 701 1081 696 1086 q 701 1074 706 1075 l 553 938 q 539 932 547 932 q 526 938 532 932 l 425 1074 z "},"Ķ":{"ha":826,"x_min":11,"x_max":864,"o":"m 860 868 q 864 860 864 868 q 860 851 864 851 q 751 827 810 851 q 636 749 692 803 l 388 529 l 526 281 q 635 99 597 153 q 699 31 674 44 q 764 17 724 17 q 768 8 768 17 q 764 0 768 0 l 646 0 q 583 7 596 0 q 529 94 571 14 q 471 206 488 175 l 322 471 l 269 425 l 214 113 q 206 54 206 63 q 222 24 206 32 q 286 17 239 17 q 289 8 289 17 q 286 0 289 0 q 232 1 250 0 l 154 3 l 72 1 q 15 0 51 0 q 11 8 11 0 q 15 17 11 17 q 83 24 60 17 q 117 51 106 31 q 135 113 128 71 l 249 756 q 253 799 253 783 q 234 841 253 831 q 164 851 215 851 q 161 860 161 851 q 164 868 161 868 l 222 867 q 303 864 272 864 q 389 867 336 864 l 446 868 q 449 860 449 868 q 446 851 449 851 q 380 843 401 851 q 347 815 358 835 q 328 753 336 794 l 275 457 l 607 757 q 658 828 658 804 q 594 851 658 851 q 592 860 592 851 q 594 868 592 868 l 647 867 q 738 864 697 864 q 817 867 775 864 l 860 868 m 379 -119 q 433 -142 413 -119 q 453 -204 453 -165 q 342 -382 453 -301 l 339 -383 q 331 -377 333 -383 q 332 -368 328 -371 q 406 -261 397 -322 q 407 -237 407 -251 q 404 -215 407 -221 q 369 -228 392 -228 q 327 -212 342 -228 q 315 -171 313 -196 q 333 -133 317 -147 q 379 -119 350 -119 z "},"L":{"ha":689,"x_min":14,"x_max":664,"o":"m 17 0 q 14 8 14 0 q 17 17 14 17 q 83 24 61 17 q 117 51 106 31 q 135 113 128 71 l 249 756 q 253 799 253 783 q 234 841 253 831 q 164 851 215 851 q 161 860 161 851 q 164 868 161 868 l 222 867 q 303 864 272 864 q 389 867 336 864 l 446 868 q 449 860 449 868 q 446 851 449 851 q 380 844 401 851 q 347 816 358 836 q 328 754 336 796 l 215 118 q 211 76 211 93 q 229 37 211 47 q 294 26 247 26 l 435 26 q 562 74 511 26 q 646 211 613 121 q 651 214 646 214 q 660 212 656 214 q 663 208 664 210 q 618 21 632 107 q 610 5 615 10 q 596 0 606 0 l 17 0 z "},"Ĺ":{"ha":689,"x_min":14,"x_max":663,"o":"m 17 0 q 14 8 14 0 q 17 17 14 17 q 83 24 61 17 q 117 51 106 31 q 135 113 128 71 l 249 756 q 253 799 253 783 q 234 841 253 831 q 164 851 215 851 q 161 860 161 851 q 164 868 161 868 l 222 867 q 303 864 272 864 q 389 867 336 864 l 446 868 q 449 860 449 868 q 446 851 449 851 q 380 844 401 851 q 347 816 358 836 q 328 754 336 796 l 215 118 q 211 76 211 93 q 229 37 211 47 q 294 26 247 26 l 435 26 q 562 74 511 26 q 646 211 613 121 q 651 214 646 214 q 660 212 656 214 q 663 208 664 210 q 618 21 632 107 q 610 5 615 10 q 596 0 606 0 l 17 0 m 232 942 q 225 948 226 942 q 228 957 224 954 q 385 1047 279 983 l 453 1089 q 485 1083 458 1092 q 533 1063 513 1074 q 543 1050 553 1051 q 385 1003 457 1029 q 235 943 314 978 l 232 942 z "},"Ľ":{"ha":689,"x_min":14,"x_max":669,"o":"m 17 0 q 14 8 14 0 q 17 17 14 17 q 83 24 61 17 q 117 51 106 31 q 135 113 128 71 l 249 756 q 253 799 253 783 q 234 841 253 831 q 164 851 215 851 q 161 860 161 851 q 164 868 161 868 l 222 867 q 303 864 272 864 q 389 867 336 864 l 446 868 q 449 860 449 868 q 446 851 449 851 q 380 844 401 851 q 347 816 358 836 q 328 754 336 796 l 215 118 q 211 76 211 93 q 229 37 211 47 q 294 26 247 26 l 435 26 q 562 74 511 26 q 646 211 613 121 q 651 214 646 214 q 660 212 656 214 q 663 208 664 210 q 618 21 632 107 q 610 5 615 10 q 596 0 606 0 l 17 0 m 608 868 q 626 866 610 875 q 656 844 642 857 q 669 825 671 831 l 567 490 q 558 488 565 488 q 551 490 551 488 l 608 868 z "},"Ļ":{"ha":689,"x_min":14,"x_max":663,"o":"m 17 0 q 14 8 14 0 q 17 17 14 17 q 83 24 61 17 q 117 51 106 31 q 135 113 128 71 l 249 756 q 253 799 253 783 q 234 841 253 831 q 164 851 215 851 q 161 860 161 851 q 164 868 161 868 l 222 867 q 303 864 272 864 q 389 867 336 864 l 446 868 q 449 860 449 868 q 446 851 449 851 q 380 844 401 851 q 347 816 358 836 q 328 754 336 796 l 215 118 q 211 76 211 93 q 229 37 211 47 q 294 26 247 26 l 435 26 q 562 74 511 26 q 646 211 613 121 q 651 214 646 214 q 660 212 656 214 q 663 208 664 210 q 618 21 632 107 q 610 5 615 10 q 596 0 606 0 l 17 0 m 319 -119 q 373 -142 353 -119 q 393 -204 393 -165 q 282 -382 393 -301 l 279 -383 q 271 -377 274 -383 q 272 -368 268 -371 q 346 -261 338 -322 q 347 -237 347 -251 q 344 -215 347 -221 q 310 -228 332 -228 q 267 -212 282 -228 q 256 -171 253 -196 q 274 -133 257 -147 q 319 -119 290 -119 z "},"Ŀ":{"ha":689,"x_min":14,"x_max":663,"o":"m 17 0 q 14 8 14 0 q 17 17 14 17 q 83 24 61 17 q 117 51 106 31 q 135 113 128 71 l 249 756 q 253 799 253 783 q 234 841 253 831 q 164 851 215 851 q 161 860 161 851 q 164 868 161 868 l 222 867 q 303 864 272 864 q 389 867 336 864 l 446 868 q 449 860 449 868 q 446 851 449 851 q 380 844 401 851 q 347 816 358 836 q 328 754 336 796 l 215 118 q 211 76 211 93 q 229 37 211 47 q 294 26 247 26 l 435 26 q 562 74 511 26 q 646 211 613 121 q 651 214 646 214 q 660 212 656 214 q 663 208 664 210 q 618 21 632 107 q 610 5 615 10 q 596 0 606 0 l 17 0 m 592 394 q 548 410 564 394 q 532 453 532 425 q 548 494 532 479 q 592 510 564 510 q 635 494 619 510 q 650 453 650 479 q 635 410 650 425 q 592 394 619 394 z "},"Ḷ":{"ha":689,"x_min":14,"x_max":663,"o":"m 17 0 q 14 8 14 0 q 17 17 14 17 q 83 24 61 17 q 117 51 106 31 q 135 113 128 71 l 249 756 q 253 799 253 783 q 234 841 253 831 q 164 851 215 851 q 161 860 161 851 q 164 868 161 868 l 222 867 q 303 864 272 864 q 389 867 336 864 l 446 868 q 449 860 449 868 q 446 851 449 851 q 380 844 401 851 q 347 816 358 836 q 328 754 336 796 l 215 118 q 211 76 211 93 q 229 37 211 47 q 294 26 247 26 l 435 26 q 562 74 511 26 q 646 211 613 121 q 651 214 646 214 q 660 212 656 214 q 663 208 664 210 q 618 21 632 107 q 610 5 615 10 q 596 0 606 0 l 17 0 m 318 -262 q 274 -247 290 -262 q 258 -203 258 -231 q 274 -161 258 -176 q 318 -146 290 -146 q 361 -161 346 -146 q 376 -203 376 -176 q 361 -247 376 -231 q 318 -262 346 -262 z "},"Ḹ":{"ha":689,"x_min":14,"x_max":663,"o":"m 17 0 q 14 8 14 0 q 17 17 14 17 q 83 24 61 17 q 117 51 106 31 q 135 113 128 71 l 249 756 q 253 799 253 783 q 234 841 253 831 q 164 851 215 851 q 161 860 161 851 q 164 868 161 868 l 222 867 q 303 864 272 864 q 389 867 336 864 l 446 868 q 449 860 449 868 q 446 851 449 851 q 380 844 401 851 q 347 816 358 836 q 328 754 336 796 l 215 118 q 211 76 211 93 q 229 37 211 47 q 294 26 247 26 l 435 26 q 562 74 511 26 q 646 211 613 121 q 651 214 646 214 q 660 212 656 214 q 663 208 664 210 q 618 21 632 107 q 610 5 615 10 q 596 0 606 0 l 17 0 m 318 -262 q 274 -247 290 -262 q 258 -203 258 -231 q 274 -161 258 -176 q 318 -146 290 -146 q 361 -161 346 -146 q 376 -203 376 -176 q 361 -247 376 -231 q 318 -262 346 -262 m 129 990 q 121 1010 121 990 q 123 1022 121 1017 q 129 1028 125 1028 l 478 1028 q 484 1022 482 1028 q 486 1010 486 1017 q 478 990 486 990 l 129 990 z "},"Ḻ":{"ha":689,"x_min":14,"x_max":663,"o":"m 17 0 q 14 8 14 0 q 17 17 14 17 q 83 24 61 17 q 117 51 106 31 q 135 113 128 71 l 249 756 q 253 799 253 783 q 234 841 253 831 q 164 851 215 851 q 161 860 161 851 q 164 868 161 868 l 222 867 q 303 864 272 864 q 389 867 336 864 l 446 868 q 449 860 449 868 q 446 851 449 851 q 380 844 401 851 q 347 816 358 836 q 328 754 336 796 l 215 118 q 211 76 211 93 q 229 37 211 47 q 294 26 247 26 l 435 26 q 562 74 511 26 q 646 211 613 121 q 651 214 646 214 q 660 212 656 214 q 663 208 664 210 q 618 21 632 107 q 610 5 615 10 q 596 0 606 0 l 17 0 m 175 -162 q 167 -143 167 -162 q 175 -124 167 -124 l 506 -124 q 514 -143 514 -124 q 506 -162 514 -162 l 175 -162 z "},"Ł":{"ha":689,"x_min":14,"x_max":664,"o":"m 646 211 q 651 214 646 214 q 660 212 656 214 q 663 208 664 210 q 618 21 632 107 q 610 5 615 10 q 596 0 606 0 l 17 0 q 14 8 14 0 q 17 17 14 17 q 83 24 61 17 q 117 51 106 31 q 135 113 128 71 l 182 379 l 103 333 l 101 333 q 90 344 96 333 q 89 356 85 354 l 188 413 l 249 756 q 253 799 253 783 q 234 841 253 831 q 164 851 215 851 q 161 860 161 851 q 164 868 161 868 l 222 867 q 303 864 272 864 q 389 867 336 864 l 446 868 q 449 860 449 868 q 446 851 449 851 q 380 844 401 851 q 347 816 358 836 q 328 754 336 796 l 276 464 l 393 531 l 394 531 q 406 520 400 531 q 406 508 411 510 l 271 431 l 215 118 q 211 76 211 93 q 229 37 211 47 q 294 26 247 26 l 435 26 q 562 74 511 26 q 646 211 613 121 z "},"M":{"ha":1017,"x_min":21,"x_max":1065,"o":"m 1063 868 q 1065 860 1065 868 q 1063 851 1065 851 q 976 833 1004 851 q 940 758 949 814 l 844 113 q 840 71 840 88 q 859 27 840 38 q 929 17 878 17 q 933 8 933 17 q 929 0 933 0 q 874 1 894 0 l 788 3 l 704 1 q 647 0 683 0 q 643 8 643 0 q 647 17 643 17 q 715 24 693 17 q 748 51 738 31 q 764 113 758 71 l 864 774 l 458 10 q 449 4 456 4 q 439 11 442 4 l 282 753 l 281 758 l 171 151 q 165 96 165 107 q 183 35 165 54 q 239 17 200 17 q 243 8 243 17 q 239 0 243 0 q 194 1 210 0 l 132 3 l 74 1 q 25 0 57 0 q 21 8 21 0 q 25 17 21 17 q 101 48 74 17 q 143 151 129 79 l 264 804 q 175 851 236 851 q 172 860 172 851 q 175 868 172 868 l 214 867 q 251 865 228 865 q 291 867 276 865 q 313 868 306 868 q 337 854 328 868 q 356 796 346 840 l 497 133 l 867 833 q 911 868 888 868 q 937 867 921 868 q 971 865 953 865 l 1025 867 q 1063 868 1038 868 z "},"Ṁ":{"ha":1017,"x_min":21,"x_max":1065,"o":"m 1063 868 q 1065 860 1065 868 q 1063 851 1065 851 q 976 833 1004 851 q 940 758 949 814 l 844 113 q 840 71 840 88 q 859 27 840 38 q 929 17 878 17 q 933 8 933 17 q 929 0 933 0 q 874 1 894 0 l 788 3 l 704 1 q 647 0 683 0 q 643 8 643 0 q 647 17 643 17 q 715 24 693 17 q 748 51 738 31 q 764 113 758 71 l 864 774 l 458 10 q 449 4 456 4 q 439 11 442 4 l 282 753 l 281 758 l 171 151 q 165 96 165 107 q 183 35 165 54 q 239 17 200 17 q 243 8 243 17 q 239 0 243 0 q 194 1 210 0 l 132 3 l 74 1 q 25 0 57 0 q 21 8 21 0 q 25 17 21 17 q 101 48 74 17 q 143 151 129 79 l 264 804 q 175 851 236 851 q 172 860 172 851 q 175 868 172 868 l 214 867 q 251 865 228 865 q 291 867 276 865 q 313 868 306 868 q 337 854 328 868 q 356 796 346 840 l 497 133 l 867 833 q 911 868 888 868 q 937 867 921 868 q 971 865 953 865 l 1025 867 q 1063 868 1038 868 m 625 985 q 581 1001 597 985 q 565 1043 565 1017 q 581 1085 565 1069 q 625 1100 597 1100 q 669 1085 653 1100 q 685 1043 685 1069 q 669 1000 685 1015 q 625 985 653 985 z "},"Ṃ":{"ha":1017,"x_min":21,"x_max":1065,"o":"m 1063 868 q 1065 860 1065 868 q 1063 851 1065 851 q 976 833 1004 851 q 940 758 949 814 l 844 113 q 840 71 840 88 q 859 27 840 38 q 929 17 878 17 q 933 8 933 17 q 929 0 933 0 q 874 1 894 0 l 788 3 l 704 1 q 647 0 683 0 q 643 8 643 0 q 647 17 643 17 q 715 24 693 17 q 748 51 738 31 q 764 113 758 71 l 864 774 l 458 10 q 449 4 456 4 q 439 11 442 4 l 282 753 l 281 758 l 171 151 q 165 96 165 107 q 183 35 165 54 q 239 17 200 17 q 243 8 243 17 q 239 0 243 0 q 194 1 210 0 l 132 3 l 74 1 q 25 0 57 0 q 21 8 21 0 q 25 17 21 17 q 101 48 74 17 q 143 151 129 79 l 264 804 q 175 851 236 851 q 172 860 172 851 q 175 868 172 868 l 214 867 q 251 865 228 865 q 291 867 276 865 q 313 868 306 868 q 337 854 328 868 q 356 796 346 840 l 497 133 l 867 833 q 911 868 888 868 q 937 867 921 868 q 971 865 953 865 l 1025 867 q 1063 868 1038 868 m 432 -262 q 388 -247 404 -262 q 372 -203 372 -231 q 388 -161 372 -176 q 432 -146 404 -146 q 475 -161 460 -146 q 490 -203 490 -176 q 475 -247 490 -231 q 432 -262 460 -262 z "},"N":{"ha":904,"x_min":13,"x_max":957,"o":"m 954 868 q 957 860 957 868 q 954 851 957 851 q 874 820 904 851 q 833 719 844 789 l 703 -14 q 699 -19 703 -17 q 692 -21 696 -21 q 682 -15 683 -21 l 281 754 l 272 769 l 165 147 q 160 93 160 119 q 178 35 160 53 q 236 17 196 17 q 239 8 239 17 q 236 0 239 0 q 192 1 207 0 l 126 3 l 67 1 q 17 0 49 0 q 13 8 13 0 q 17 17 13 17 q 96 47 67 17 q 136 147 125 78 l 253 801 q 165 851 214 851 q 161 860 161 851 q 165 868 161 868 l 214 867 q 257 865 231 865 q 295 867 279 865 q 318 868 311 868 q 331 863 326 868 q 340 842 335 857 q 347 824 342 838 q 358 796 351 810 l 701 133 l 804 719 q 810 774 810 747 q 792 833 810 814 q 735 851 774 851 q 731 860 731 851 q 735 868 731 868 l 776 867 q 843 864 815 864 q 904 867 865 864 l 954 868 z "},"Ń":{"ha":904,"x_min":13,"x_max":957,"o":"m 954 868 q 957 860 957 868 q 954 851 957 851 q 874 820 904 851 q 833 719 844 789 l 703 -14 q 699 -19 703 -17 q 692 -21 696 -21 q 682 -15 683 -21 l 281 754 l 272 769 l 165 147 q 160 93 160 119 q 178 35 160 53 q 236 17 196 17 q 239 8 239 17 q 236 0 239 0 q 192 1 207 0 l 126 3 l 67 1 q 17 0 49 0 q 13 8 13 0 q 17 17 13 17 q 96 47 67 17 q 136 147 125 78 l 253 801 q 165 851 214 851 q 161 860 161 851 q 165 868 161 868 l 214 867 q 257 865 231 865 q 295 867 279 865 q 318 868 311 868 q 331 863 326 868 q 340 842 335 857 q 347 824 342 838 q 358 796 351 810 l 701 133 l 804 719 q 810 774 810 747 q 792 833 810 814 q 735 851 774 851 q 731 860 731 851 q 735 868 731 868 l 776 867 q 843 864 815 864 q 904 867 865 864 l 954 868 m 471 942 q 464 948 465 942 q 467 957 463 954 q 624 1047 518 983 l 692 1089 q 724 1083 697 1092 q 772 1063 751 1074 q 782 1050 792 1051 q 624 1003 696 1029 q 474 943 553 978 l 471 942 z "},"Ň":{"ha":904,"x_min":13,"x_max":957,"o":"m 954 868 q 957 860 957 868 q 954 851 957 851 q 874 820 904 851 q 833 719 844 789 l 703 -14 q 699 -19 703 -17 q 692 -21 696 -21 q 682 -15 683 -21 l 281 754 l 272 769 l 165 147 q 160 93 160 119 q 178 35 160 53 q 236 17 196 17 q 239 8 239 17 q 236 0 239 0 q 192 1 207 0 l 126 3 l 67 1 q 17 0 49 0 q 13 8 13 0 q 17 17 13 17 q 96 47 67 17 q 136 147 125 78 l 253 801 q 165 851 214 851 q 161 860 161 851 q 165 868 161 868 l 214 867 q 257 865 231 865 q 295 867 279 865 q 318 868 311 868 q 331 863 326 868 q 340 842 335 857 q 347 824 342 838 q 358 796 351 810 l 701 133 l 804 719 q 810 774 810 747 q 792 833 810 814 q 735 851 774 851 q 731 860 731 851 q 735 868 731 868 l 776 867 q 843 864 815 864 q 904 867 865 864 l 954 868 m 438 1074 l 438 1075 q 442 1081 438 1078 q 447 1083 446 1085 l 564 1003 l 706 1085 q 713 1081 708 1086 q 714 1074 718 1075 l 565 938 q 551 932 560 932 q 539 938 544 932 l 438 1074 z "},"Ņ":{"ha":904,"x_min":13,"x_max":957,"o":"m 954 868 q 957 860 957 868 q 954 851 957 851 q 874 820 904 851 q 833 719 844 789 l 703 -14 q 699 -19 703 -17 q 692 -21 696 -21 q 682 -15 683 -21 l 281 754 l 272 769 l 165 147 q 160 93 160 119 q 178 35 160 53 q 236 17 196 17 q 239 8 239 17 q 236 0 239 0 q 192 1 207 0 l 126 3 l 67 1 q 17 0 49 0 q 13 8 13 0 q 17 17 13 17 q 96 47 67 17 q 136 147 125 78 l 253 801 q 165 851 214 851 q 161 860 161 851 q 165 868 161 868 l 214 867 q 257 865 231 865 q 295 867 279 865 q 318 868 311 868 q 331 863 326 868 q 340 842 335 857 q 347 824 342 838 q 358 796 351 810 l 701 133 l 804 719 q 810 774 810 747 q 792 833 810 814 q 735 851 774 851 q 731 860 731 851 q 735 868 731 868 l 776 867 q 843 864 815 864 q 904 867 865 864 l 954 868 m 403 -119 q 456 -142 436 -119 q 476 -204 476 -165 q 365 -382 476 -301 l 363 -383 q 354 -377 357 -383 q 356 -368 351 -371 q 429 -261 421 -322 q 431 -237 431 -251 q 428 -215 431 -221 q 393 -228 415 -228 q 351 -212 365 -228 q 339 -171 336 -196 q 357 -133 340 -147 q 403 -119 374 -119 z "},"Ṅ":{"ha":904,"x_min":13,"x_max":957,"o":"m 954 868 q 957 860 957 868 q 954 851 957 851 q 874 820 904 851 q 833 719 844 789 l 703 -14 q 699 -19 703 -17 q 692 -21 696 -21 q 682 -15 683 -21 l 281 754 l 272 769 l 165 147 q 160 93 160 119 q 178 35 160 53 q 236 17 196 17 q 239 8 239 17 q 236 0 239 0 q 192 1 207 0 l 126 3 l 67 1 q 17 0 49 0 q 13 8 13 0 q 17 17 13 17 q 96 47 67 17 q 136 147 125 78 l 253 801 q 165 851 214 851 q 161 860 161 851 q 165 868 161 868 l 214 867 q 257 865 231 865 q 295 867 279 865 q 318 868 311 868 q 331 863 326 868 q 340 842 335 857 q 347 824 342 838 q 358 796 351 810 l 701 133 l 804 719 q 810 774 810 747 q 792 833 810 814 q 735 851 774 851 q 731 860 731 851 q 735 868 731 868 l 776 867 q 843 864 815 864 q 904 867 865 864 l 954 868 m 567 985 q 523 1001 539 985 q 507 1043 507 1017 q 523 1085 507 1069 q 567 1100 539 1100 q 610 1085 594 1100 q 626 1043 626 1069 q 610 1000 626 1015 q 567 985 594 985 z "},"Ṇ":{"ha":904,"x_min":13,"x_max":957,"o":"m 954 868 q 957 860 957 868 q 954 851 957 851 q 874 820 904 851 q 833 719 844 789 l 703 -14 q 699 -19 703 -17 q 692 -21 696 -21 q 682 -15 683 -21 l 281 754 l 272 769 l 165 147 q 160 93 160 119 q 178 35 160 53 q 236 17 196 17 q 239 8 239 17 q 236 0 239 0 q 192 1 207 0 l 126 3 l 67 1 q 17 0 49 0 q 13 8 13 0 q 17 17 13 17 q 96 47 67 17 q 136 147 125 78 l 253 801 q 165 851 214 851 q 161 860 161 851 q 165 868 161 868 l 214 867 q 257 865 231 865 q 295 867 279 865 q 318 868 311 868 q 331 863 326 868 q 340 842 335 857 q 347 824 342 838 q 358 796 351 810 l 701 133 l 804 719 q 810 774 810 747 q 792 833 810 814 q 735 851 774 851 q 731 860 731 851 q 735 868 731 868 l 776 867 q 843 864 815 864 q 904 867 865 864 l 954 868 m 401 -262 q 358 -247 374 -262 q 342 -203 342 -231 q 358 -161 342 -176 q 401 -146 374 -146 q 444 -161 429 -146 q 460 -203 460 -176 q 444 -247 460 -231 q 401 -262 429 -262 z "},"Ŋ":{"ha":903,"x_min":13,"x_max":957,"o":"m 954 868 q 957 860 957 868 q 954 851 957 851 q 874 820 904 851 q 833 719 844 789 l 703 -14 l 703 -15 q 629 -201 681 -137 q 503 -265 578 -265 q 428 -242 457 -265 q 399 -187 399 -219 q 414 -148 399 -161 q 451 -135 429 -135 q 483 -147 475 -135 q 497 -185 492 -158 q 510 -221 501 -208 q 540 -233 518 -233 q 622 -176 586 -233 q 678 -7 657 -119 l 281 754 l 272 769 l 165 147 q 160 93 160 119 q 178 35 160 53 q 236 17 196 17 q 239 8 239 17 q 236 0 239 0 q 192 1 207 0 l 126 3 l 67 1 q 17 0 49 0 q 13 8 13 0 q 17 17 13 17 q 96 47 67 17 q 136 147 125 78 l 253 801 q 165 851 214 851 q 161 860 161 851 q 165 868 161 868 l 214 867 q 257 865 231 865 q 295 867 279 865 q 318 868 311 868 q 331 863 326 868 q 340 842 335 857 q 347 824 342 838 q 358 796 351 810 l 701 133 l 804 719 q 810 774 810 747 q 792 833 810 814 q 735 851 774 851 q 731 860 731 851 q 735 868 731 868 l 776 867 q 843 864 815 864 q 904 867 865 864 l 954 868 z "},"Ṉ":{"ha":904,"x_min":13,"x_max":957,"o":"m 954 868 q 957 860 957 868 q 954 851 957 851 q 874 820 904 851 q 833 719 844 789 l 703 -14 q 699 -19 703 -17 q 692 -21 696 -21 q 682 -15 683 -21 l 281 754 l 272 769 l 165 147 q 160 93 160 119 q 178 35 160 53 q 236 17 196 17 q 239 8 239 17 q 236 0 239 0 q 192 1 207 0 l 126 3 l 67 1 q 17 0 49 0 q 13 8 13 0 q 17 17 13 17 q 96 47 67 17 q 136 147 125 78 l 253 801 q 165 851 214 851 q 161 860 161 851 q 165 868 161 868 l 214 867 q 257 865 231 865 q 295 867 279 865 q 318 868 311 868 q 331 863 326 868 q 340 842 335 857 q 347 824 342 838 q 358 796 351 810 l 701 133 l 804 719 q 810 774 810 747 q 792 833 810 814 q 735 851 774 851 q 731 860 731 851 q 735 868 731 868 l 776 867 q 843 864 815 864 q 904 867 865 864 l 954 868 m 258 -162 q 250 -143 250 -162 q 258 -124 250 -124 l 589 -124 q 597 -143 597 -124 q 589 -162 597 -162 l 258 -162 z "},"Ñ":{"ha":904,"x_min":13,"x_max":957,"o":"m 954 868 q 957 860 957 868 q 954 851 957 851 q 874 820 904 851 q 833 719 844 789 l 703 -14 q 699 -19 703 -17 q 692 -21 696 -21 q 682 -15 683 -21 l 281 754 l 272 769 l 165 147 q 160 93 160 119 q 178 35 160 53 q 236 17 196 17 q 239 8 239 17 q 236 0 239 0 q 192 1 207 0 l 126 3 l 67 1 q 17 0 49 0 q 13 8 13 0 q 17 17 13 17 q 96 47 67 17 q 136 147 125 78 l 253 801 q 165 851 214 851 q 161 860 161 851 q 165 868 161 868 l 214 867 q 257 865 231 865 q 295 867 279 865 q 318 868 311 868 q 331 863 326 868 q 340 842 335 857 q 347 824 342 838 q 358 796 351 810 l 701 133 l 804 719 q 810 774 810 747 q 792 833 810 814 q 735 851 774 851 q 731 860 731 851 q 735 868 731 868 l 776 867 q 843 864 815 864 q 904 867 865 864 l 954 868 m 396 965 q 388 969 392 965 q 388 975 385 972 q 444 1035 413 1008 q 508 1061 475 1061 q 581 1046 532 1061 q 682 1026 642 1026 q 722 1035 707 1026 q 754 1064 736 1044 l 757 1064 q 764 1060 761 1064 q 764 1054 767 1057 q 703 987 726 1004 q 651 969 679 969 q 599 976 626 969 q 567 985 572 983 q 469 1003 510 1003 q 433 996 446 1003 q 411 979 421 989 q 397 965 401 969 l 396 965 z "},"O":{"ha":904,"x_min":88,"x_max":882,"o":"m 394 -17 q 229 28 299 -17 q 124 153 160 74 q 88 333 88 233 q 96 435 88 383 q 188 666 118 564 q 357 826 257 768 q 568 883 457 883 q 738 838 667 883 q 845 715 808 793 q 882 538 882 636 q 872 435 882 483 q 777 201 849 304 q 604 41 706 99 q 394 -17 503 -17 m 453 19 q 660 108 574 19 q 779 361 746 197 q 793 499 793 429 q 760 681 793 601 q 663 805 726 760 q 513 850 599 850 q 303 758 389 850 q 188 508 217 667 q 175 379 175 442 q 208 196 175 278 q 303 67 240 114 q 453 19 365 19 z "},"Ó":{"ha":904,"x_min":88,"x_max":882,"o":"m 394 -17 q 229 28 299 -17 q 124 153 160 74 q 88 333 88 233 q 96 435 88 383 q 188 666 118 564 q 357 826 257 768 q 568 883 457 883 q 738 838 667 883 q 845 715 808 793 q 882 538 882 636 q 872 435 882 483 q 777 201 849 304 q 604 41 706 99 q 394 -17 503 -17 m 453 19 q 660 108 574 19 q 779 361 746 197 q 793 499 793 429 q 760 681 793 601 q 663 805 726 760 q 513 850 599 850 q 303 758 389 850 q 188 508 217 667 q 175 379 175 442 q 208 196 175 278 q 303 67 240 114 q 453 19 365 19 m 482 942 q 475 948 476 942 q 478 957 474 954 q 635 1047 529 983 l 703 1089 q 735 1083 708 1092 q 783 1063 763 1074 q 793 1050 803 1051 q 635 1003 707 1029 q 485 943 564 978 l 482 942 z "},"Ŏ":{"ha":904,"x_min":88,"x_max":882,"o":"m 394 -17 q 229 28 299 -17 q 124 153 160 74 q 88 333 88 233 q 96 435 88 383 q 188 666 118 564 q 357 826 257 768 q 568 883 457 883 q 738 838 667 883 q 845 715 808 793 q 882 538 882 636 q 872 435 882 483 q 777 201 849 304 q 604 41 706 99 q 394 -17 503 -17 m 453 19 q 660 108 574 19 q 779 361 746 197 q 793 499 793 429 q 760 681 793 601 q 663 805 726 760 q 513 850 599 850 q 303 758 389 850 q 188 508 217 667 q 175 379 175 442 q 208 196 175 278 q 303 67 240 114 q 453 19 365 19 m 574 925 q 482 960 514 925 q 450 1044 450 994 q 470 1060 450 1053 q 508 1067 490 1067 q 521 1063 521 1067 q 547 998 524 1022 q 610 974 569 974 q 664 993 640 974 q 708 1057 688 1013 q 717 1061 713 1061 q 728 1058 722 1061 q 732 1053 733 1056 q 574 925 674 925 z "},"Ǒ":{"ha":904,"x_min":88,"x_max":882,"o":"m 394 -17 q 229 28 299 -17 q 124 153 160 74 q 88 333 88 233 q 96 435 88 383 q 188 666 118 564 q 357 826 257 768 q 568 883 457 883 q 738 838 667 883 q 845 715 808 793 q 882 538 882 636 q 872 435 882 483 q 777 201 849 304 q 604 41 706 99 q 394 -17 503 -17 m 453 19 q 660 108 574 19 q 779 361 746 197 q 793 499 793 429 q 760 681 793 601 q 663 805 726 760 q 513 850 599 850 q 303 758 389 850 q 188 508 217 667 q 175 379 175 442 q 208 196 175 278 q 303 67 240 114 q 453 19 365 19 m 449 1074 l 449 1075 q 453 1081 449 1078 q 458 1083 457 1085 l 575 1003 l 717 1085 q 724 1081 719 1086 q 725 1074 729 1075 l 576 938 q 563 932 571 932 q 550 938 556 932 l 449 1074 z "},"Ô":{"ha":904,"x_min":88,"x_max":882,"o":"m 394 -17 q 229 28 299 -17 q 124 153 160 74 q 88 333 88 233 q 96 435 88 383 q 188 666 118 564 q 357 826 257 768 q 568 883 457 883 q 738 838 667 883 q 845 715 808 793 q 882 538 882 636 q 872 435 882 483 q 777 201 849 304 q 604 41 706 99 q 394 -17 503 -17 m 453 19 q 660 108 574 19 q 779 361 746 197 q 793 499 793 429 q 760 681 793 601 q 663 805 726 760 q 513 850 599 850 q 303 758 389 850 q 188 508 217 667 q 175 379 175 442 q 208 196 175 278 q 303 67 240 114 q 453 19 365 19 m 435 917 q 428 920 431 917 q 428 926 425 924 l 576 1061 q 589 1068 581 1068 q 601 1061 597 1068 l 706 926 l 706 925 q 702 917 706 921 q 696 917 699 914 l 576 996 l 436 917 l 435 917 z "},"Ố":{"ha":904,"x_min":88,"x_max":882,"o":"m 394 -17 q 229 28 299 -17 q 124 153 160 74 q 88 333 88 233 q 96 435 88 383 q 188 666 118 564 q 357 826 257 768 q 568 883 457 883 q 738 838 667 883 q 845 715 808 793 q 882 538 882 636 q 872 435 882 483 q 777 201 849 304 q 604 41 706 99 q 394 -17 503 -17 m 453 19 q 660 108 574 19 q 779 361 746 197 q 793 499 793 429 q 760 681 793 601 q 663 805 726 760 q 513 850 599 850 q 303 758 389 850 q 188 508 217 667 q 175 379 175 442 q 208 196 175 278 q 303 67 240 114 q 453 19 365 19 m 435 917 q 428 920 431 917 q 428 926 425 924 l 576 1061 q 589 1068 581 1068 q 601 1061 597 1068 l 706 926 l 706 925 q 702 917 706 921 q 696 917 699 914 l 576 996 l 436 917 l 435 917 m 672 997 q 668 996 671 996 q 663 1001 664 996 q 664 1010 661 1006 q 793 1144 739 1078 q 824 1141 799 1150 q 867 1119 849 1132 q 876 1104 886 1107 q 672 997 781 1068 z "},"Ộ":{"ha":904,"x_min":88,"x_max":882,"o":"m 394 -17 q 229 28 299 -17 q 124 153 160 74 q 88 333 88 233 q 96 435 88 383 q 188 666 118 564 q 357 826 257 768 q 568 883 457 883 q 738 838 667 883 q 845 715 808 793 q 882 538 882 636 q 872 435 882 483 q 777 201 849 304 q 604 41 706 99 q 394 -17 503 -17 m 453 19 q 660 108 574 19 q 779 361 746 197 q 793 499 793 429 q 760 681 793 601 q 663 805 726 760 q 513 850 599 850 q 303 758 389 850 q 188 508 217 667 q 175 379 175 442 q 208 196 175 278 q 303 67 240 114 q 453 19 365 19 m 399 -262 q 355 -247 371 -262 q 339 -203 339 -231 q 355 -161 339 -176 q 399 -146 371 -146 q 442 -161 426 -146 q 457 -203 457 -176 q 442 -247 457 -231 q 399 -262 426 -262 m 435 917 q 428 920 431 917 q 428 926 425 924 l 576 1061 q 589 1068 581 1068 q 601 1061 597 1068 l 706 926 l 706 925 q 702 917 706 921 q 696 917 699 914 l 576 996 l 436 917 l 435 917 z "},"Ồ":{"ha":904,"x_min":88,"x_max":882,"o":"m 394 -17 q 229 28 299 -17 q 124 153 160 74 q 88 333 88 233 q 96 435 88 383 q 188 666 118 564 q 357 826 257 768 q 568 883 457 883 q 738 838 667 883 q 845 715 808 793 q 882 538 882 636 q 872 435 882 483 q 777 201 849 304 q 604 41 706 99 q 394 -17 503 -17 m 453 19 q 660 108 574 19 q 779 361 746 197 q 793 499 793 429 q 760 681 793 601 q 663 805 726 760 q 513 850 599 850 q 303 758 389 850 q 188 508 217 667 q 175 379 175 442 q 208 196 175 278 q 303 67 240 114 q 453 19 365 19 m 432 917 q 425 920 428 917 q 425 926 422 924 l 574 1061 q 586 1068 578 1068 q 599 1061 594 1068 l 703 926 l 703 925 q 699 917 703 921 q 693 917 696 914 l 574 996 l 433 917 l 432 917 m 779 979 q 699 1040 738 1014 q 614 1086 661 1065 q 627 1101 604 1089 q 679 1123 650 1114 q 711 1126 708 1132 q 792 992 743 1057 q 793 988 793 990 q 789 981 793 983 q 779 979 785 978 z "},"Ổ":{"ha":904,"x_min":88,"x_max":882,"o":"m 394 -17 q 229 28 299 -17 q 124 153 160 74 q 88 333 88 233 q 96 435 88 383 q 188 666 118 564 q 357 826 257 768 q 568 883 457 883 q 738 838 667 883 q 845 715 808 793 q 882 538 882 636 q 872 435 882 483 q 777 201 849 304 q 604 41 706 99 q 394 -17 503 -17 m 453 19 q 660 108 574 19 q 779 361 746 197 q 793 499 793 429 q 760 681 793 601 q 663 805 726 760 q 513 850 599 850 q 303 758 389 850 q 188 508 217 667 q 175 379 175 442 q 208 196 175 278 q 303 67 240 114 q 453 19 365 19 m 433 917 q 426 920 429 917 q 426 926 424 924 l 575 1061 q 588 1068 579 1068 q 600 1061 596 1068 l 704 926 l 704 925 q 701 917 704 921 q 694 917 697 914 l 575 996 l 435 917 l 433 917 m 674 986 q 679 1020 671 1004 q 704 1056 688 1036 q 727 1089 719 1075 q 735 1118 735 1103 q 722 1144 735 1135 q 693 1154 710 1154 q 660 1146 679 1154 l 658 1146 q 651 1151 654 1146 q 653 1157 647 1156 q 699 1176 675 1169 q 740 1183 724 1183 q 781 1169 767 1183 q 796 1136 796 1156 q 781 1092 796 1111 q 736 1050 765 1074 q 701 1016 713 1031 q 689 986 689 1001 q 683 983 692 983 q 674 986 675 983 z "},"Ỗ":{"ha":904,"x_min":88,"x_max":882,"o":"m 394 -17 q 229 28 299 -17 q 124 153 160 74 q 88 333 88 233 q 96 435 88 383 q 188 666 118 564 q 357 826 257 768 q 568 883 457 883 q 738 838 667 883 q 845 715 808 793 q 882 538 882 636 q 872 435 882 483 q 777 201 849 304 q 604 41 706 99 q 394 -17 503 -17 m 453 19 q 660 108 574 19 q 779 361 746 197 q 793 499 793 429 q 760 681 793 601 q 663 805 726 760 q 513 850 599 850 q 303 758 389 850 q 188 508 217 667 q 175 379 175 442 q 208 196 175 278 q 303 67 240 114 q 453 19 365 19 m 425 917 q 418 920 421 917 q 418 926 415 924 l 567 1061 q 579 1068 571 1068 q 592 1061 588 1068 l 696 926 l 696 925 q 692 917 696 921 q 686 917 689 914 l 567 996 l 426 917 l 425 917 m 425 1079 q 418 1083 421 1079 q 418 1089 415 1086 q 474 1147 442 1121 q 539 1174 506 1174 q 608 1160 558 1174 q 713 1140 672 1140 q 753 1150 738 1140 q 783 1178 768 1160 l 785 1178 q 792 1174 789 1178 q 793 1168 796 1171 q 731 1100 756 1118 q 681 1082 707 1082 q 596 1099 651 1082 q 560 1108 590 1100 q 499 1117 531 1117 q 463 1109 475 1117 q 440 1092 450 1101 q 428 1079 431 1082 l 425 1079 z "},"Ö":{"ha":904,"x_min":88,"x_max":882,"o":"m 394 -17 q 229 28 299 -17 q 124 153 160 74 q 88 333 88 233 q 96 435 88 383 q 188 666 118 564 q 357 826 257 768 q 568 883 457 883 q 738 838 667 883 q 845 715 808 793 q 882 538 882 636 q 872 435 882 483 q 777 201 849 304 q 604 41 706 99 q 394 -17 503 -17 m 453 19 q 660 108 574 19 q 779 361 746 197 q 793 499 793 429 q 760 681 793 601 q 663 805 726 760 q 513 850 599 850 q 303 758 389 850 q 188 508 217 667 q 175 379 175 442 q 208 196 175 278 q 303 67 240 114 q 453 19 365 19 m 482 996 q 439 1011 454 996 q 424 1053 424 1026 q 439 1094 424 1079 q 482 1110 454 1110 q 524 1095 510 1110 q 539 1053 539 1081 q 524 1011 539 1026 q 482 996 510 996 m 692 996 q 648 1011 664 996 q 632 1053 632 1026 q 648 1094 632 1079 q 692 1110 664 1110 q 734 1095 719 1110 q 749 1053 749 1081 q 734 1011 749 1026 q 692 996 719 996 z "},"Ọ":{"ha":904,"x_min":88,"x_max":882,"o":"m 394 -17 q 229 28 299 -17 q 124 153 160 74 q 88 333 88 233 q 96 435 88 383 q 188 666 118 564 q 357 826 257 768 q 568 883 457 883 q 738 838 667 883 q 845 715 808 793 q 882 538 882 636 q 872 435 882 483 q 777 201 849 304 q 604 41 706 99 q 394 -17 503 -17 m 453 19 q 660 108 574 19 q 779 361 746 197 q 793 499 793 429 q 760 681 793 601 q 663 805 726 760 q 513 850 599 850 q 303 758 389 850 q 188 508 217 667 q 175 379 175 442 q 208 196 175 278 q 303 67 240 114 q 453 19 365 19 m 399 -262 q 355 -247 371 -262 q 339 -203 339 -231 q 355 -161 339 -176 q 399 -146 371 -146 q 442 -161 426 -146 q 457 -203 457 -176 q 442 -247 457 -231 q 399 -262 426 -262 z "},"Ò":{"ha":904,"x_min":88,"x_max":882,"o":"m 394 -17 q 229 28 299 -17 q 124 153 160 74 q 88 333 88 233 q 96 435 88 383 q 188 666 118 564 q 357 826 257 768 q 568 883 457 883 q 738 838 667 883 q 845 715 808 793 q 882 538 882 636 q 872 435 882 483 q 777 201 849 304 q 604 41 706 99 q 394 -17 503 -17 m 453 19 q 660 108 574 19 q 779 361 746 197 q 793 499 793 429 q 760 681 793 601 q 663 805 726 760 q 513 850 599 850 q 303 758 389 850 q 188 508 217 667 q 175 379 175 442 q 208 196 175 278 q 303 67 240 114 q 453 19 365 19 m 682 947 q 555 1005 614 981 q 422 1050 496 1029 q 433 1064 410 1053 q 489 1083 457 1075 q 526 1089 521 1092 q 692 960 626 1004 q 693 957 693 960 q 690 949 693 953 q 682 947 686 946 z "},"Ỏ":{"ha":904,"x_min":88,"x_max":882,"o":"m 394 -17 q 229 28 299 -17 q 124 153 160 74 q 88 333 88 233 q 96 435 88 383 q 188 666 118 564 q 357 826 257 768 q 568 883 457 883 q 738 838 667 883 q 845 715 808 793 q 882 538 882 636 q 872 435 882 483 q 777 201 849 304 q 604 41 706 99 q 394 -17 503 -17 m 453 19 q 660 108 574 19 q 779 361 746 197 q 793 499 793 429 q 760 681 793 601 q 663 805 726 760 q 513 850 599 850 q 303 758 389 850 q 188 508 217 667 q 175 379 175 442 q 208 196 175 278 q 303 67 240 114 q 453 19 365 19 m 568 903 q 560 900 568 900 q 551 903 553 900 q 550 918 550 908 q 560 965 550 944 q 592 1011 571 985 q 620 1053 611 1036 q 629 1090 629 1069 q 615 1124 629 1113 q 578 1136 600 1136 q 538 1128 557 1136 l 535 1126 q 528 1131 531 1126 q 531 1139 525 1136 q 624 1167 576 1167 q 683 1149 663 1167 q 704 1106 704 1132 q 685 1053 704 1076 q 632 1000 667 1031 q 583 949 599 971 q 568 903 567 928 z "},"Ơ":{"ha":904,"x_min":88,"x_max":1010,"o":"m 965 976 q 999 963 988 976 q 1010 928 1010 949 l 1008 915 q 826 750 992 819 q 882 538 882 660 q 872 435 882 483 q 777 201 849 304 q 604 41 706 99 q 394 -17 503 -17 q 229 28 299 -17 q 124 153 160 74 q 88 333 88 233 q 96 435 88 383 q 188 666 118 564 q 357 826 257 768 q 568 883 457 883 q 713 853 650 883 q 815 765 775 822 q 885 808 860 785 q 915 854 911 831 q 914 871 917 864 q 907 883 911 878 q 901 894 906 886 q 897 913 897 901 q 919 959 897 942 q 965 976 940 976 m 779 361 q 793 499 793 429 q 760 681 793 601 q 663 805 726 760 q 513 850 599 850 q 303 758 389 850 q 188 508 217 667 q 175 379 175 442 q 208 196 175 278 q 303 67 240 114 q 453 19 365 19 q 660 108 574 19 q 779 361 746 197 z "},"Ớ":{"ha":904,"x_min":88,"x_max":1010,"o":"m 965 976 q 999 963 988 976 q 1010 928 1010 949 l 1008 915 q 826 750 992 819 q 882 538 882 660 q 872 435 882 483 q 777 201 849 304 q 604 41 706 99 q 394 -17 503 -17 q 229 28 299 -17 q 124 153 160 74 q 88 333 88 233 q 96 435 88 383 q 188 666 118 564 q 357 826 257 768 q 568 883 457 883 q 713 853 650 883 q 815 765 775 822 q 885 808 860 785 q 915 854 911 831 q 914 871 917 864 q 907 883 911 878 q 901 894 906 886 q 897 913 897 901 q 919 959 897 942 q 965 976 940 976 m 779 361 q 793 499 793 429 q 760 681 793 601 q 663 805 726 760 q 513 850 599 850 q 303 758 389 850 q 188 508 217 667 q 175 379 175 442 q 208 196 175 278 q 303 67 240 114 q 453 19 365 19 q 660 108 574 19 q 779 361 746 197 m 438 942 q 430 948 432 942 q 432 957 428 954 q 575 1039 492 988 q 658 1088 631 1072 q 691 1083 664 1092 q 738 1063 718 1074 q 747 1050 758 1051 q 439 942 583 1008 l 438 942 z "},"Ợ":{"ha":904,"x_min":88,"x_max":1010,"o":"m 965 976 q 999 963 988 976 q 1010 928 1010 949 l 1008 915 q 826 750 992 819 q 882 538 882 660 q 872 435 882 483 q 777 201 849 304 q 604 41 706 99 q 394 -17 503 -17 q 229 28 299 -17 q 124 153 160 74 q 88 333 88 233 q 96 435 88 383 q 188 666 118 564 q 357 826 257 768 q 568 883 457 883 q 713 853 650 883 q 815 765 775 822 q 885 808 860 785 q 915 854 911 831 q 914 871 917 864 q 907 883 911 878 q 901 894 906 886 q 897 913 897 901 q 919 959 897 942 q 965 976 940 976 m 779 361 q 793 499 793 429 q 760 681 793 601 q 663 805 726 760 q 513 850 599 850 q 303 758 389 850 q 188 508 217 667 q 175 379 175 442 q 208 196 175 278 q 303 67 240 114 q 453 19 365 19 q 660 108 574 19 q 779 361 746 197 m 376 -262 q 333 -247 349 -262 q 317 -203 317 -231 q 333 -161 317 -176 q 376 -146 349 -146 q 419 -161 404 -146 q 435 -203 435 -176 q 419 -247 435 -231 q 376 -262 404 -262 z "},"Ờ":{"ha":904,"x_min":88,"x_max":1010,"o":"m 965 976 q 999 963 988 976 q 1010 928 1010 949 l 1008 915 q 826 750 992 819 q 882 538 882 660 q 872 435 882 483 q 777 201 849 304 q 604 41 706 99 q 394 -17 503 -17 q 229 28 299 -17 q 124 153 160 74 q 88 333 88 233 q 96 435 88 383 q 188 666 118 564 q 357 826 257 768 q 568 883 457 883 q 713 853 650 883 q 815 765 775 822 q 885 808 860 785 q 915 854 911 831 q 914 871 917 864 q 907 883 911 878 q 901 894 906 886 q 897 913 897 901 q 919 959 897 942 q 965 976 940 976 m 779 361 q 793 499 793 429 q 760 681 793 601 q 663 805 726 760 q 513 850 599 850 q 303 758 389 850 q 188 508 217 667 q 175 379 175 442 q 208 196 175 278 q 303 67 240 114 q 453 19 365 19 q 660 108 574 19 q 779 361 746 197 m 711 943 q 401 1050 554 1013 q 412 1063 392 1051 q 459 1083 432 1074 q 492 1089 486 1092 l 532 1064 q 717 957 669 982 q 719 951 719 956 q 717 944 719 947 q 711 943 714 942 z "},"Ở":{"ha":904,"x_min":88,"x_max":1010,"o":"m 965 976 q 999 963 988 976 q 1010 928 1010 949 l 1008 915 q 826 750 992 819 q 882 538 882 660 q 872 435 882 483 q 777 201 849 304 q 604 41 706 99 q 394 -17 503 -17 q 229 28 299 -17 q 124 153 160 74 q 88 333 88 233 q 96 435 88 383 q 188 666 118 564 q 357 826 257 768 q 568 883 457 883 q 713 853 650 883 q 815 765 775 822 q 885 808 860 785 q 915 854 911 831 q 914 871 917 864 q 907 883 911 878 q 901 894 906 886 q 897 913 897 901 q 919 959 897 942 q 965 976 940 976 m 779 361 q 793 499 793 429 q 760 681 793 601 q 663 805 726 760 q 513 850 599 850 q 303 758 389 850 q 188 508 217 667 q 175 379 175 442 q 208 196 175 278 q 303 67 240 114 q 453 19 365 19 q 660 108 574 19 q 779 361 746 197 m 588 903 q 580 900 588 900 q 571 903 572 900 q 569 918 569 908 q 580 965 569 944 q 611 1011 590 985 q 640 1053 631 1036 q 649 1090 649 1069 q 634 1124 649 1113 q 597 1136 619 1136 q 557 1128 576 1136 l 554 1126 q 547 1131 550 1126 q 550 1139 544 1136 q 643 1167 596 1167 q 703 1149 682 1167 q 724 1106 724 1132 q 705 1053 724 1076 q 651 1000 686 1031 q 602 949 618 971 q 588 903 586 928 z "},"Ỡ":{"ha":904,"x_min":88,"x_max":1010,"o":"m 965 976 q 999 963 988 976 q 1010 928 1010 949 l 1008 915 q 826 750 992 819 q 882 538 882 660 q 872 435 882 483 q 777 201 849 304 q 604 41 706 99 q 394 -17 503 -17 q 229 28 299 -17 q 124 153 160 74 q 88 333 88 233 q 96 435 88 383 q 188 666 118 564 q 357 826 257 768 q 568 883 457 883 q 713 853 650 883 q 815 765 775 822 q 885 808 860 785 q 915 854 911 831 q 914 871 917 864 q 907 883 911 878 q 901 894 906 886 q 897 913 897 901 q 919 959 897 942 q 965 976 940 976 m 779 361 q 793 499 793 429 q 760 681 793 601 q 663 805 726 760 q 513 850 599 850 q 303 758 389 850 q 188 508 217 667 q 175 379 175 442 q 208 196 175 278 q 303 67 240 114 q 453 19 365 19 q 660 108 574 19 q 779 361 746 197 m 424 999 q 417 1002 419 999 q 417 1008 414 1006 q 472 1067 440 1040 q 538 1093 504 1093 q 607 1079 557 1093 q 711 1060 671 1060 q 751 1069 736 1060 q 782 1097 767 1079 l 783 1097 q 791 1094 788 1097 q 792 1088 794 1090 q 730 1019 754 1038 q 679 1001 706 1001 q 594 1018 650 1001 q 559 1028 589 1019 q 497 1036 529 1036 q 461 1028 474 1036 q 439 1011 449 1021 q 426 999 429 1001 l 424 999 z "},"Ő":{"ha":904,"x_min":88,"x_max":882,"o":"m 394 -17 q 229 28 299 -17 q 124 153 160 74 q 88 333 88 233 q 96 435 88 383 q 188 666 118 564 q 357 826 257 768 q 568 883 457 883 q 738 838 667 883 q 845 715 808 793 q 882 538 882 636 q 872 435 882 483 q 777 201 849 304 q 604 41 706 99 q 394 -17 503 -17 m 453 19 q 660 108 574 19 q 779 361 746 197 q 793 499 793 429 q 760 681 793 601 q 663 805 726 760 q 513 850 599 850 q 303 758 389 850 q 188 508 217 667 q 175 379 175 442 q 208 196 175 278 q 303 67 240 114 q 453 19 365 19 m 432 925 q 426 932 428 925 q 428 940 424 939 q 583 1096 510 1019 q 614 1094 588 1100 q 660 1079 640 1089 q 669 1065 679 1069 q 435 926 538 1006 l 432 925 m 601 925 q 594 931 596 925 q 597 940 593 938 l 753 1096 q 783 1094 757 1100 q 829 1078 810 1088 q 839 1065 849 1069 q 604 926 710 1007 l 601 925 z "},"Ō":{"ha":904,"x_min":88,"x_max":882,"o":"m 394 -17 q 229 28 299 -17 q 124 153 160 74 q 88 333 88 233 q 96 435 88 383 q 188 666 118 564 q 357 826 257 768 q 568 883 457 883 q 738 838 667 883 q 845 715 808 793 q 882 538 882 636 q 872 435 882 483 q 777 201 849 304 q 604 41 706 99 q 394 -17 503 -17 m 453 19 q 660 108 574 19 q 779 361 746 197 q 793 499 793 429 q 760 681 793 601 q 663 805 726 760 q 513 850 599 850 q 303 758 389 850 q 188 508 217 667 q 175 379 175 442 q 208 196 175 278 q 303 67 240 114 q 453 19 365 19 m 422 997 q 414 1017 414 997 q 422 1036 414 1036 l 753 1036 q 761 1017 761 1036 q 753 997 761 997 l 422 997 z "},"Ǫ":{"ha":904,"x_min":88,"x_max":882,"o":"m 568 883 q 738 838 667 883 q 845 715 808 793 q 882 538 882 636 q 872 435 882 483 q 747 161 844 276 q 519 3 650 46 q 424 -104 461 -53 q 379 -206 388 -156 q 375 -244 375 -226 q 397 -315 375 -289 q 461 -340 419 -340 q 503 -331 486 -340 q 543 -304 521 -322 l 544 -304 q 552 -309 549 -304 q 553 -317 556 -314 q 413 -382 483 -382 q 334 -353 363 -382 q 306 -276 306 -325 q 353 -150 306 -217 q 485 -7 401 -83 q 394 -17 433 -17 q 229 28 299 -17 q 124 153 160 74 q 88 333 88 233 q 96 435 88 383 q 188 666 118 564 q 357 826 257 768 q 568 883 457 883 m 779 361 q 793 499 793 429 q 760 681 793 601 q 663 805 726 760 q 513 850 599 850 q 303 758 389 850 q 188 508 217 667 q 175 379 175 442 q 208 196 175 278 q 303 67 240 114 q 453 19 365 19 q 660 108 574 19 q 779 361 746 197 z "},"Ø":{"ha":904,"x_min":42,"x_max":925,"o":"m 900 875 q 903 876 900 876 q 917 869 908 876 q 921 858 925 861 l 821 757 q 882 536 882 667 q 872 435 882 496 q 777 201 849 304 q 604 41 706 99 q 394 -17 503 -17 q 263 10 321 -17 q 164 88 204 38 l 67 -11 l 64 -12 q 49 -3 57 -12 q 46 10 42 6 l 146 111 q 86 333 86 206 q 96 435 86 374 q 188 666 118 564 q 357 826 257 768 q 568 883 457 883 q 806 779 719 883 l 900 875 m 188 508 q 175 379 175 442 q 214 181 175 263 l 743 715 q 648 815 707 779 q 513 850 589 850 q 303 758 389 850 q 188 508 217 667 m 779 361 q 794 499 794 438 q 756 690 794 606 l 228 153 q 321 54 264 89 q 453 19 378 19 q 660 108 574 19 q 779 361 746 197 z "},"Ǿ":{"ha":904,"x_min":44,"x_max":922,"o":"m 900 875 q 903 876 900 876 q 917 869 908 876 q 921 858 925 861 l 821 757 q 882 536 882 667 q 872 435 882 496 q 777 201 849 304 q 604 41 706 99 q 394 -17 503 -17 q 263 10 321 -17 q 164 88 204 38 l 67 -11 l 64 -12 q 49 -3 57 -12 q 46 10 42 6 l 146 111 q 86 333 86 206 q 96 435 86 374 q 188 666 118 564 q 357 826 257 768 q 568 883 457 883 q 806 779 719 883 l 900 875 m 188 508 q 175 379 175 442 q 214 181 175 263 l 743 715 q 648 815 707 779 q 513 850 589 850 q 303 758 389 850 q 188 508 217 667 m 779 361 q 794 499 794 438 q 756 690 794 606 l 228 153 q 321 54 264 89 q 453 19 378 19 q 660 108 574 19 q 779 361 746 197 m 464 942 q 457 948 458 942 q 460 957 456 954 q 617 1047 511 983 l 685 1089 q 717 1083 690 1092 q 765 1063 744 1074 q 775 1050 785 1051 q 617 1003 689 1029 q 467 943 546 978 l 464 942 z "},"Õ":{"ha":904,"x_min":88,"x_max":882,"o":"m 394 -17 q 229 28 299 -17 q 124 153 160 74 q 88 333 88 233 q 96 435 88 383 q 188 666 118 564 q 357 826 257 768 q 568 883 457 883 q 738 838 667 883 q 845 715 808 793 q 882 538 882 636 q 872 435 882 483 q 777 201 849 304 q 604 41 706 99 q 394 -17 503 -17 m 453 19 q 660 108 574 19 q 779 361 746 197 q 793 499 793 429 q 760 681 793 601 q 663 805 726 760 q 513 850 599 850 q 303 758 389 850 q 188 508 217 667 q 175 379 175 442 q 208 196 175 278 q 303 67 240 114 q 453 19 365 19 m 407 965 q 399 969 403 965 q 399 975 396 972 q 455 1035 424 1008 q 519 1061 486 1061 q 592 1046 543 1061 q 693 1026 653 1026 q 733 1035 718 1026 q 765 1064 747 1044 l 768 1064 q 775 1060 772 1064 q 775 1054 778 1057 q 714 987 738 1004 q 663 969 690 969 q 610 976 638 969 q 578 985 583 983 q 481 1003 521 1003 q 444 996 457 1003 q 422 979 432 989 q 408 965 413 969 l 407 965 z "},"Œ":{"ha":1121,"x_min":86,"x_max":1133,"o":"m 1122 868 q 1131 856 1133 868 l 1103 683 q 1094 679 1101 678 q 1088 685 1086 681 q 1089 718 1089 696 q 1062 813 1089 778 q 986 847 1035 847 l 911 847 q 843 840 865 847 q 810 815 821 833 q 793 754 800 796 l 742 467 l 899 467 q 979 488 954 467 q 1014 564 1004 510 q 1022 568 1014 568 q 1028 566 1025 568 q 1031 561 1032 564 q 1019 503 1024 515 l 1011 451 q 1000 381 1001 394 l 990 322 q 981 317 989 317 q 974 324 972 318 q 978 365 978 347 q 957 421 978 404 q 889 438 936 438 l 738 438 l 681 118 q 676 76 676 93 q 695 35 676 46 q 767 25 714 25 l 872 25 q 967 74 924 25 q 1042 207 1011 122 q 1049 210 1043 210 q 1056 208 1053 210 q 1058 204 1060 206 q 1015 21 1033 133 q 1008 5 1013 10 q 993 0 1003 0 l 626 0 q 532 -3 596 0 q 454 -6 474 -6 q 258 39 342 -6 q 131 162 175 83 q 86 340 86 240 q 93 421 86 375 q 191 657 115 554 q 372 815 267 760 q 592 871 478 871 q 674 869 643 871 l 772 868 l 1122 868 m 706 738 q 710 781 710 763 q 686 834 710 818 q 601 850 663 850 q 417 803 501 850 q 276 667 333 757 q 197 451 218 578 q 188 340 188 397 q 256 104 188 194 q 444 14 324 14 q 526 21 497 14 q 572 49 556 28 q 596 114 589 71 l 706 738 z "},"P":{"ha":699,"x_min":14,"x_max":710,"o":"m 18 0 q 14 8 14 0 q 18 17 14 17 q 85 24 63 17 q 118 51 107 31 q 138 113 129 71 l 250 756 q 256 801 256 779 q 237 841 256 831 q 167 851 218 851 q 164 860 164 851 q 167 868 164 868 l 222 867 q 304 864 272 864 q 369 867 319 864 q 475 872 433 872 q 644 824 578 872 q 710 682 710 775 q 704 629 710 656 q 633 482 689 542 q 503 393 576 422 q 363 364 431 364 q 306 371 328 364 q 303 376 303 371 q 306 386 303 381 q 311 390 308 392 q 353 385 329 385 q 462 408 408 385 q 555 481 515 432 q 608 601 594 531 q 614 661 614 629 q 565 801 614 750 q 446 851 517 851 q 380 846 400 851 q 349 820 360 840 q 328 753 338 800 l 215 113 q 211 68 211 86 q 230 27 211 38 q 300 17 249 17 q 304 8 304 17 q 300 0 304 0 q 243 1 264 0 l 156 3 l 74 1 q 18 0 53 0 z "},"Þ":{"ha":742,"x_min":14,"x_max":724,"o":"m 443 693 q 645 642 567 693 q 724 489 724 590 q 718 433 724 460 q 637 288 700 347 q 491 201 574 229 q 332 172 408 172 q 275 178 299 172 q 274 182 274 178 q 276 194 274 188 q 282 199 279 200 q 324 193 300 193 q 449 216 388 193 q 558 287 511 239 q 619 406 604 335 q 626 467 626 440 q 565 617 626 561 q 408 674 503 674 q 313 665 350 674 l 215 113 q 211 69 211 88 q 222 36 211 47 q 258 21 232 25 q 333 17 283 17 q 336 8 336 17 q 333 0 336 0 q 261 1 288 0 l 156 3 l 74 1 q 18 0 53 0 q 14 8 14 0 q 18 17 14 17 q 85 24 63 17 q 118 51 107 31 q 138 113 129 71 l 250 756 q 256 801 256 779 q 237 841 256 831 q 167 851 218 851 q 164 860 164 851 q 167 868 164 868 l 222 867 q 304 864 272 864 q 415 867 349 864 l 482 868 q 486 860 486 868 q 482 851 486 851 q 389 845 417 851 q 349 819 361 839 q 328 753 336 800 l 315 685 q 443 693 376 693 z "},"Q":{"ha":904,"x_min":88,"x_max":954,"o":"m 946 -240 q 952 -246 950 -239 q 951 -256 954 -253 q 836 -272 889 -272 q 664 -200 753 -272 q 511 1 575 -128 q 394 -17 457 -17 q 229 28 299 -17 q 124 153 160 74 q 88 333 88 233 q 96 435 88 383 q 188 666 118 564 q 357 826 257 768 q 568 883 457 883 q 738 838 667 883 q 845 715 808 793 q 882 538 882 636 q 872 435 882 483 q 776 199 849 303 q 600 39 703 94 q 685 -108 633 -43 q 793 -210 736 -174 q 897 -246 850 -246 q 946 -240 921 -246 m 188 508 q 175 379 175 442 q 208 196 175 278 q 303 67 240 114 q 453 19 365 19 q 660 108 574 19 q 779 361 746 197 q 793 499 793 429 q 760 681 793 601 q 663 805 726 760 q 513 850 599 850 q 303 758 389 850 q 188 508 217 667 z "},"R":{"ha":853,"x_min":15,"x_max":822,"o":"m 817 17 q 822 8 822 17 q 817 0 822 0 l 667 0 q 567 120 633 0 q 418 454 501 240 q 333 442 379 442 l 289 444 l 231 113 q 225 65 225 86 q 244 26 225 36 q 317 17 264 17 q 322 8 322 17 q 318 0 322 0 q 256 1 278 0 l 169 3 l 85 1 q 21 0 61 0 q 15 8 15 0 q 21 17 15 17 q 92 24 68 17 q 129 51 117 32 q 150 113 142 71 l 264 756 q 269 800 269 792 q 249 841 269 831 q 175 851 229 851 q 169 860 169 851 q 175 868 169 868 l 236 867 q 321 864 289 864 q 363 865 343 864 q 399 868 383 867 q 469 872 439 872 q 608 837 560 872 q 656 738 656 801 q 608 592 656 661 q 485 482 560 522 q 617 203 563 303 q 717 60 671 104 q 817 17 764 17 m 296 478 q 360 474 325 474 q 497 515 450 474 q 560 651 543 557 q 565 715 565 683 q 532 819 565 786 q 440 851 499 851 q 389 847 406 851 q 362 821 372 842 q 344 753 351 800 l 296 478 z "},"Ŕ":{"ha":853,"x_min":15,"x_max":822,"o":"m 817 17 q 822 8 822 17 q 817 0 822 0 l 667 0 q 567 120 633 0 q 418 454 501 240 q 333 442 379 442 l 289 444 l 231 113 q 225 65 225 86 q 244 26 225 36 q 317 17 264 17 q 322 8 322 17 q 318 0 322 0 q 256 1 278 0 l 169 3 l 85 1 q 21 0 61 0 q 15 8 15 0 q 21 17 15 17 q 92 24 68 17 q 129 51 117 32 q 150 113 142 71 l 264 756 q 269 800 269 792 q 249 841 269 831 q 175 851 229 851 q 169 860 169 851 q 175 868 169 868 l 236 867 q 321 864 289 864 q 363 865 343 864 q 399 868 383 867 q 469 872 439 872 q 608 837 560 872 q 656 738 656 801 q 608 592 656 661 q 485 482 560 522 q 617 203 563 303 q 717 60 671 104 q 817 17 764 17 m 296 478 q 360 474 325 474 q 497 515 450 474 q 560 651 543 557 q 565 715 565 683 q 532 819 565 786 q 440 851 499 851 q 389 847 406 851 q 362 821 372 842 q 344 753 351 800 l 296 478 m 369 942 q 363 948 364 942 q 365 957 361 954 q 522 1047 417 983 l 590 1089 q 623 1083 596 1092 q 670 1063 650 1074 q 681 1050 690 1051 q 523 1003 594 1029 q 372 943 451 978 l 369 942 z "},"Ř":{"ha":853,"x_min":15,"x_max":822,"o":"m 817 17 q 822 8 822 17 q 817 0 822 0 l 667 0 q 567 120 633 0 q 418 454 501 240 q 333 442 379 442 l 289 444 l 231 113 q 225 65 225 86 q 244 26 225 36 q 317 17 264 17 q 322 8 322 17 q 318 0 322 0 q 256 1 278 0 l 169 3 l 85 1 q 21 0 61 0 q 15 8 15 0 q 21 17 15 17 q 92 24 68 17 q 129 51 117 32 q 150 113 142 71 l 264 756 q 269 800 269 792 q 249 841 269 831 q 175 851 229 851 q 169 860 169 851 q 175 868 169 868 l 236 867 q 321 864 289 864 q 363 865 343 864 q 399 868 383 867 q 469 872 439 872 q 608 837 560 872 q 656 738 656 801 q 608 592 656 661 q 485 482 560 522 q 617 203 563 303 q 717 60 671 104 q 817 17 764 17 m 296 478 q 360 474 325 474 q 497 515 450 474 q 560 651 543 557 q 565 715 565 683 q 532 819 565 786 q 440 851 499 851 q 389 847 406 851 q 362 821 372 842 q 344 753 351 800 l 296 478 m 336 1074 l 336 1075 q 340 1081 336 1078 q 346 1083 344 1085 l 463 1003 l 604 1085 q 612 1081 607 1086 q 613 1074 617 1075 l 464 938 q 450 932 458 932 q 438 938 443 932 l 336 1074 z "},"Ŗ":{"ha":853,"x_min":15,"x_max":822,"o":"m 817 17 q 822 8 822 17 q 817 0 822 0 l 667 0 q 567 120 633 0 q 418 454 501 240 q 333 442 379 442 l 289 444 l 231 113 q 225 65 225 86 q 244 26 225 36 q 317 17 264 17 q 322 8 322 17 q 318 0 322 0 q 256 1 278 0 l 169 3 l 85 1 q 21 0 61 0 q 15 8 15 0 q 21 17 15 17 q 92 24 68 17 q 129 51 117 32 q 150 113 142 71 l 264 756 q 269 800 269 792 q 249 841 269 831 q 175 851 229 851 q 169 860 169 851 q 175 868 169 868 l 236 867 q 321 864 289 864 q 363 865 343 864 q 399 868 383 867 q 469 872 439 872 q 608 837 560 872 q 656 738 656 801 q 608 592 656 661 q 485 482 560 522 q 617 203 563 303 q 717 60 671 104 q 817 17 764 17 m 296 478 q 360 474 325 474 q 497 515 450 474 q 560 651 543 557 q 565 715 565 683 q 532 819 565 786 q 440 851 499 851 q 389 847 406 851 q 362 821 372 842 q 344 753 351 800 l 296 478 m 400 -119 q 453 -142 433 -119 q 474 -204 474 -165 q 363 -382 474 -301 l 360 -383 q 351 -377 354 -383 q 353 -368 349 -371 q 426 -261 418 -322 q 428 -237 428 -251 q 425 -215 428 -221 q 390 -228 413 -228 q 348 -212 363 -228 q 336 -171 333 -196 q 354 -133 338 -147 q 400 -119 371 -119 z "},"Ṛ":{"ha":853,"x_min":15,"x_max":822,"o":"m 817 17 q 822 8 822 17 q 817 0 822 0 l 667 0 q 567 120 633 0 q 418 454 501 240 q 333 442 379 442 l 289 444 l 231 113 q 225 65 225 86 q 244 26 225 36 q 317 17 264 17 q 322 8 322 17 q 318 0 322 0 q 256 1 278 0 l 169 3 l 85 1 q 21 0 61 0 q 15 8 15 0 q 21 17 15 17 q 92 24 68 17 q 129 51 117 32 q 150 113 142 71 l 264 756 q 269 800 269 792 q 249 841 269 831 q 175 851 229 851 q 169 860 169 851 q 175 868 169 868 l 236 867 q 321 864 289 864 q 363 865 343 864 q 399 868 383 867 q 469 872 439 872 q 608 837 560 872 q 656 738 656 801 q 608 592 656 661 q 485 482 560 522 q 617 203 563 303 q 717 60 671 104 q 817 17 764 17 m 296 478 q 360 474 325 474 q 497 515 450 474 q 560 651 543 557 q 565 715 565 683 q 532 819 565 786 q 440 851 499 851 q 389 847 406 851 q 362 821 372 842 q 344 753 351 800 l 296 478 m 399 -262 q 355 -247 371 -262 q 339 -203 339 -231 q 355 -161 339 -176 q 399 -146 371 -146 q 442 -161 426 -146 q 457 -203 457 -176 q 442 -247 457 -231 q 399 -262 426 -262 z "},"Ṝ":{"ha":853,"x_min":15,"x_max":822,"o":"m 817 17 q 822 8 822 17 q 817 0 822 0 l 667 0 q 567 120 633 0 q 418 454 501 240 q 333 442 379 442 l 289 444 l 231 113 q 225 65 225 86 q 244 26 225 36 q 317 17 264 17 q 322 8 322 17 q 318 0 322 0 q 256 1 278 0 l 169 3 l 85 1 q 21 0 61 0 q 15 8 15 0 q 21 17 15 17 q 92 24 68 17 q 129 51 117 32 q 150 113 142 71 l 264 756 q 269 800 269 792 q 249 841 269 831 q 175 851 229 851 q 169 860 169 851 q 175 868 169 868 l 236 867 q 321 864 289 864 q 363 865 343 864 q 399 868 383 867 q 469 872 439 872 q 608 837 560 872 q 656 738 656 801 q 608 592 656 661 q 485 482 560 522 q 617 203 563 303 q 717 60 671 104 q 817 17 764 17 m 296 478 q 360 474 325 474 q 497 515 450 474 q 560 651 543 557 q 565 715 565 683 q 532 819 565 786 q 440 851 499 851 q 389 847 406 851 q 362 821 372 842 q 344 753 351 800 l 296 478 m 399 -262 q 355 -247 371 -262 q 339 -203 339 -231 q 355 -161 339 -176 q 399 -146 371 -146 q 442 -161 426 -146 q 457 -203 457 -176 q 442 -247 457 -231 q 399 -262 426 -262 m 267 990 q 258 1010 258 990 q 260 1022 258 1017 q 267 1028 263 1028 l 615 1028 q 622 1022 619 1028 q 624 1010 624 1017 q 615 990 624 990 l 267 990 z "},"Ṟ":{"ha":853,"x_min":15,"x_max":822,"o":"m 817 17 q 822 8 822 17 q 817 0 822 0 l 667 0 q 567 120 633 0 q 418 454 501 240 q 333 442 379 442 l 289 444 l 231 113 q 225 65 225 86 q 244 26 225 36 q 317 17 264 17 q 322 8 322 17 q 318 0 322 0 q 256 1 278 0 l 169 3 l 85 1 q 21 0 61 0 q 15 8 15 0 q 21 17 15 17 q 92 24 68 17 q 129 51 117 32 q 150 113 142 71 l 264 756 q 269 800 269 792 q 249 841 269 831 q 175 851 229 851 q 169 860 169 851 q 175 868 169 868 l 236 867 q 321 864 289 864 q 363 865 343 864 q 399 868 383 867 q 469 872 439 872 q 608 837 560 872 q 656 738 656 801 q 608 592 656 661 q 485 482 560 522 q 617 203 563 303 q 717 60 671 104 q 817 17 764 17 m 296 478 q 360 474 325 474 q 497 515 450 474 q 560 651 543 557 q 565 715 565 683 q 532 819 565 786 q 440 851 499 851 q 389 847 406 851 q 362 821 372 842 q 344 753 351 800 l 296 478 m 256 -162 q 247 -143 247 -162 q 256 -124 247 -124 l 586 -124 q 594 -143 594 -124 q 586 -162 594 -162 l 256 -162 z "},"S":{"ha":642,"x_min":63,"x_max":626,"o":"m 254 -17 q 164 -6 207 -17 q 74 31 121 4 q 65 57 63 38 l 85 240 q 92 247 85 247 q 100 240 100 247 q 149 73 103 140 q 289 6 196 6 q 409 45 357 6 q 475 168 461 85 q 479 210 479 192 q 440 323 479 278 q 325 419 400 368 q 244 483 274 457 q 193 544 214 508 q 172 628 172 581 q 176 668 172 647 q 233 786 190 738 q 335 859 275 835 q 458 883 394 883 q 608 850 532 883 q 625 826 626 840 l 607 672 q 599 667 607 667 q 590 672 592 667 q 550 808 585 754 q 436 863 515 863 q 337 833 376 863 q 278 758 297 803 q 260 671 260 714 q 281 594 260 628 q 331 536 301 560 q 411 476 360 513 q 532 376 490 424 q 574 258 574 329 q 571 219 574 233 q 469 51 553 118 q 254 -17 386 -17 z "},"Ś":{"ha":642,"x_min":65,"x_max":681,"o":"m 254 -17 q 164 -6 207 -17 q 74 31 121 4 q 65 57 63 38 l 85 240 q 92 247 85 247 q 100 240 100 247 q 149 73 103 140 q 289 6 196 6 q 409 45 357 6 q 475 168 461 85 q 479 210 479 192 q 440 323 479 278 q 325 419 400 368 q 244 483 274 457 q 193 544 214 508 q 172 628 172 581 q 176 668 172 647 q 233 786 190 738 q 335 859 275 835 q 458 883 394 883 q 608 850 532 883 q 625 826 626 840 l 607 672 q 599 667 607 667 q 590 672 592 667 q 550 808 585 754 q 436 863 515 863 q 337 833 376 863 q 278 758 297 803 q 260 671 260 714 q 281 594 260 628 q 331 536 301 560 q 411 476 360 513 q 532 376 490 424 q 574 258 574 329 q 571 219 574 233 q 469 51 553 118 q 254 -17 386 -17 m 367 942 q 360 948 361 942 q 363 957 358 954 q 519 1047 414 983 l 588 1089 q 620 1083 593 1092 q 667 1063 647 1074 q 678 1050 688 1051 q 520 1003 592 1029 q 369 943 449 978 l 367 942 z "},"Š":{"ha":642,"x_min":65,"x_max":625,"o":"m 254 -17 q 164 -6 207 -17 q 74 31 121 4 q 65 57 63 38 l 85 240 q 92 247 85 247 q 100 240 100 247 q 149 73 103 140 q 289 6 196 6 q 409 45 357 6 q 475 168 461 85 q 479 210 479 192 q 440 323 479 278 q 325 419 400 368 q 244 483 274 457 q 193 544 214 508 q 172 628 172 581 q 176 668 172 647 q 233 786 190 738 q 335 859 275 835 q 458 883 394 883 q 608 850 532 883 q 625 826 626 840 l 607 672 q 599 667 607 667 q 590 672 592 667 q 550 808 585 754 q 436 863 515 863 q 337 833 376 863 q 278 758 297 803 q 260 671 260 714 q 281 594 260 628 q 331 536 301 560 q 411 476 360 513 q 532 376 490 424 q 574 258 574 329 q 571 219 574 233 q 469 51 553 118 q 254 -17 386 -17 m 333 1074 l 333 1075 q 338 1081 333 1078 q 343 1083 342 1085 l 460 1003 l 601 1085 q 609 1081 604 1086 q 610 1074 614 1075 l 461 938 q 447 932 456 932 q 435 938 440 932 l 333 1074 z "},"Ş":{"ha":642,"x_min":63,"x_max":626,"o":"m 608 850 q 625 826 626 840 l 607 672 q 599 667 607 667 q 590 672 592 667 q 550 808 585 754 q 436 863 515 863 q 337 833 376 863 q 278 758 297 803 q 260 671 260 714 q 281 594 260 628 q 331 536 301 560 q 411 476 360 513 q 532 376 490 424 q 574 258 574 329 q 571 219 574 233 q 488 65 556 129 q 313 -12 421 1 q 300 -71 300 -46 q 331 -144 300 -106 q 364 -197 353 -174 q 375 -243 375 -219 q 374 -261 375 -256 q 329 -343 368 -304 q 231 -382 290 -382 q 175 -368 197 -382 q 153 -328 153 -354 q 154 -317 153 -321 q 167 -296 156 -304 q 194 -287 179 -287 q 218 -296 210 -287 q 236 -324 226 -304 q 250 -347 243 -339 q 269 -356 257 -356 q 321 -303 308 -356 q 268 -192 325 -261 q 246 -135 246 -165 q 260 -83 246 -114 l 294 -15 q 254 -17 281 -17 q 164 -6 207 -17 q 74 31 121 4 q 65 57 63 38 l 85 240 q 92 247 85 247 q 100 240 100 247 q 149 73 103 140 q 289 6 196 6 q 409 45 357 6 q 475 168 461 85 q 479 210 479 192 q 440 323 479 278 q 325 419 400 368 q 244 483 274 457 q 193 544 214 508 q 172 628 172 581 q 176 668 172 647 q 233 786 190 738 q 335 859 275 835 q 458 883 394 883 q 608 850 532 883 z "},"Ŝ":{"ha":642,"x_min":65,"x_max":625,"o":"m 254 -17 q 164 -6 207 -17 q 74 31 121 4 q 65 57 63 38 l 85 240 q 92 247 85 247 q 100 240 100 247 q 149 73 103 140 q 289 6 196 6 q 409 45 357 6 q 475 168 461 85 q 479 210 479 192 q 440 323 479 278 q 325 419 400 368 q 244 483 274 457 q 193 544 214 508 q 172 628 172 581 q 176 668 172 647 q 233 786 190 738 q 335 859 275 835 q 458 883 394 883 q 608 850 532 883 q 625 826 626 840 l 607 672 q 599 667 607 667 q 590 672 592 667 q 550 808 585 754 q 436 863 515 863 q 337 833 376 863 q 278 758 297 803 q 260 671 260 714 q 281 594 260 628 q 331 536 301 560 q 411 476 360 513 q 532 376 490 424 q 574 258 574 329 q 571 219 574 233 q 469 51 553 118 q 254 -17 386 -17 m 319 917 q 313 920 315 917 q 313 926 310 924 l 461 1061 q 474 1068 465 1068 q 486 1061 482 1068 l 590 926 l 590 925 q 587 917 590 921 q 581 917 583 914 l 461 996 l 321 917 l 319 917 z "},"Ș":{"ha":642,"x_min":65,"x_max":625,"o":"m 254 -17 q 164 -6 207 -17 q 74 31 121 4 q 65 57 63 38 l 85 240 q 92 247 85 247 q 100 240 100 247 q 149 73 103 140 q 289 6 196 6 q 409 45 357 6 q 475 168 461 85 q 479 210 479 192 q 440 323 479 278 q 325 419 400 368 q 244 483 274 457 q 193 544 214 508 q 172 628 172 581 q 176 668 172 647 q 233 786 190 738 q 335 859 275 835 q 458 883 394 883 q 608 850 532 883 q 625 826 626 840 l 607 672 q 599 667 607 667 q 590 672 592 667 q 550 808 585 754 q 436 863 515 863 q 337 833 376 863 q 278 758 297 803 q 260 671 260 714 q 281 594 260 628 q 331 536 301 560 q 411 476 360 513 q 532 376 490 424 q 574 258 574 329 q 571 219 574 233 q 469 51 553 118 q 254 -17 386 -17 m 267 -119 q 320 -142 300 -119 q 340 -204 340 -165 q 229 -382 340 -301 l 226 -383 q 218 -377 221 -383 q 219 -368 215 -371 q 293 -261 285 -322 q 294 -237 294 -251 q 292 -215 294 -221 q 257 -228 279 -228 q 215 -212 229 -228 q 203 -171 200 -196 q 221 -133 204 -147 q 267 -119 238 -119 z "},"Ṡ":{"ha":642,"x_min":65,"x_max":625,"o":"m 254 -17 q 164 -6 207 -17 q 74 31 121 4 q 65 57 63 38 l 85 240 q 92 247 85 247 q 100 240 100 247 q 149 73 103 140 q 289 6 196 6 q 409 45 357 6 q 475 168 461 85 q 479 210 479 192 q 440 323 479 278 q 325 419 400 368 q 244 483 274 457 q 193 544 214 508 q 172 628 172 581 q 176 668 172 647 q 233 786 190 738 q 335 859 275 835 q 458 883 394 883 q 608 850 532 883 q 625 826 626 840 l 607 672 q 599 667 607 667 q 590 672 592 667 q 550 808 585 754 q 436 863 515 863 q 337 833 376 863 q 278 758 297 803 q 260 671 260 714 q 281 594 260 628 q 331 536 301 560 q 411 476 360 513 q 532 376 490 424 q 574 258 574 329 q 571 219 574 233 q 469 51 553 118 q 254 -17 386 -17 m 463 985 q 419 1001 435 985 q 403 1043 403 1017 q 419 1085 403 1069 q 463 1100 435 1100 q 506 1085 490 1100 q 522 1043 522 1069 q 506 1000 522 1015 q 463 985 490 985 z "},"Ṣ":{"ha":642,"x_min":65,"x_max":625,"o":"m 254 -17 q 164 -6 207 -17 q 74 31 121 4 q 65 57 63 38 l 85 240 q 92 247 85 247 q 100 240 100 247 q 149 73 103 140 q 289 6 196 6 q 409 45 357 6 q 475 168 461 85 q 479 210 479 192 q 440 323 479 278 q 325 419 400 368 q 244 483 274 457 q 193 544 214 508 q 172 628 172 581 q 176 668 172 647 q 233 786 190 738 q 335 859 275 835 q 458 883 394 883 q 608 850 532 883 q 625 826 626 840 l 607 672 q 599 667 607 667 q 590 672 592 667 q 550 808 585 754 q 436 863 515 863 q 337 833 376 863 q 278 758 297 803 q 260 671 260 714 q 281 594 260 628 q 331 536 301 560 q 411 476 360 513 q 532 376 490 424 q 574 258 574 329 q 571 219 574 233 q 469 51 553 118 q 254 -17 386 -17 m 265 -262 q 222 -247 238 -262 q 206 -203 206 -231 q 222 -161 206 -176 q 265 -146 238 -146 q 308 -161 293 -146 q 324 -203 324 -176 q 308 -247 324 -231 q 265 -262 293 -262 z "},"ẞ":{"ha":882,"x_min":-24,"x_max":876,"o":"m 532 -17 q 452 -6 488 -17 q 382 31 417 4 q 376 44 376 35 q 376 57 376 54 l 383 196 q 391 203 383 203 q 400 197 399 204 q 431 110 403 153 q 501 40 460 67 q 586 14 543 14 q 685 56 644 14 q 739 172 726 99 q 742 203 742 194 q 697 332 742 268 q 556 476 653 396 q 549 488 549 483 q 554 497 549 492 l 747 743 q 606 813 676 789 q 481 836 535 836 q 386 813 425 836 q 320 731 347 789 q 275 572 293 674 l 193 113 q 189 69 189 88 q 210 27 189 38 q 289 17 231 17 q 294 8 294 17 q 289 0 294 0 l 133 1 l -18 0 q -24 8 -24 0 q -18 17 -24 17 q 54 24 29 17 q 92 51 79 32 q 111 113 104 71 l 186 531 q 253 701 201 619 q 385 833 306 782 q 561 883 465 883 q 765 836 644 883 q 803 825 792 825 q 826 835 814 825 q 861 874 838 844 l 867 876 q 874 874 871 876 q 875 868 876 871 l 617 542 q 772 397 724 461 q 819 267 819 332 q 817 231 819 243 q 768 110 806 167 q 670 19 731 54 q 532 -17 610 -17 z "},"Ə":{"ha":821,"x_min":65,"x_max":796,"o":"m 479 883 q 722 793 649 883 q 796 563 796 703 q 786 450 796 500 q 688 200 760 306 q 515 39 615 94 q 304 -17 414 -17 q 167 14 221 -17 q 90 92 114 44 q 65 192 65 140 q 68 226 65 204 q 75 240 71 236 q 86 243 79 243 l 636 246 q 678 400 664 315 q 692 553 692 478 q 636 781 692 696 q 476 865 581 865 q 310 815 396 865 q 174 669 225 764 q 168 667 172 667 q 160 669 164 667 q 158 674 157 671 l 244 890 q 250 893 246 893 q 258 890 254 893 q 260 885 261 888 q 256 863 256 872 q 274 844 256 844 q 288 846 282 844 q 390 875 349 867 q 479 883 431 883 m 354 11 q 512 65 443 11 q 625 219 581 118 l 163 213 q 208 66 156 121 q 354 11 260 11 z "},"T":{"ha":768,"x_min":104,"x_max":844,"o":"m 197 0 q 193 8 193 0 q 197 17 193 17 q 267 24 244 17 q 302 51 290 31 q 321 113 314 71 l 435 756 q 439 797 439 781 q 423 835 439 825 q 364 844 407 844 l 331 844 q 201 798 249 844 q 122 644 153 751 q 117 642 122 642 q 108 644 113 642 q 106 647 104 646 q 138 767 117 682 q 167 899 158 853 q 176 902 168 903 q 183 897 185 901 q 238 868 179 868 q 492 864 340 864 q 649 867 563 864 l 736 868 q 799 875 778 868 q 828 903 819 882 q 838 906 831 907 q 843 900 844 906 q 813 773 832 863 q 788 647 793 683 q 778 644 786 643 q 772 650 771 644 q 779 725 779 696 q 748 817 779 789 q 646 844 717 844 l 613 844 q 558 837 576 844 q 530 810 539 829 q 514 753 521 792 l 401 113 q 397 69 397 88 q 417 27 397 38 q 494 17 438 17 q 497 8 497 17 q 494 0 497 0 q 435 1 457 0 l 344 3 l 258 1 q 197 0 236 0 z "},"Ŧ":{"ha":768,"x_min":104,"x_max":844,"o":"m 828 903 q 838 906 831 907 q 843 900 844 906 q 813 773 832 863 q 788 647 793 683 q 778 644 786 643 q 772 650 771 644 q 779 725 779 696 q 748 817 779 789 q 646 844 717 844 l 613 844 q 558 837 576 844 q 530 810 539 829 q 514 753 521 792 l 463 463 l 604 463 q 609 458 607 463 q 611 449 611 454 q 604 433 611 433 l 458 433 l 401 113 q 397 69 397 88 q 417 27 397 38 q 494 17 438 17 q 497 8 497 17 q 494 0 497 0 q 435 1 457 0 l 344 3 l 258 1 q 197 0 236 0 q 193 8 193 0 q 197 17 193 17 q 267 24 244 17 q 302 51 290 31 q 321 113 314 71 l 378 433 l 239 433 q 235 438 236 433 q 233 449 233 443 q 235 458 233 454 q 239 463 238 463 l 383 463 l 435 756 q 439 797 439 781 q 423 835 439 825 q 364 844 407 844 l 331 844 q 201 798 249 844 q 122 644 153 751 q 117 642 122 642 q 108 644 113 642 q 106 647 104 646 q 138 767 117 682 q 167 899 158 853 q 176 902 168 903 q 183 897 185 901 q 238 868 179 868 q 492 864 340 864 q 649 867 563 864 l 736 868 q 799 875 778 868 q 828 903 819 882 z "},"Ť":{"ha":768,"x_min":106,"x_max":843,"o":"m 197 0 q 193 8 193 0 q 197 17 193 17 q 267 24 244 17 q 302 51 290 31 q 321 113 314 71 l 435 756 q 439 797 439 781 q 423 835 439 825 q 364 844 407 844 l 331 844 q 201 798 249 844 q 122 644 153 751 q 117 642 122 642 q 108 644 113 642 q 106 647 104 646 q 138 767 117 682 q 167 899 158 853 q 176 902 168 903 q 183 897 185 901 q 238 868 179 868 q 492 864 340 864 q 649 867 563 864 l 736 868 q 799 875 778 868 q 828 903 819 882 q 838 906 831 907 q 843 900 844 906 q 813 773 832 863 q 788 647 793 683 q 778 644 786 643 q 772 650 771 644 q 779 725 779 696 q 748 817 779 789 q 646 844 717 844 l 613 844 q 558 837 576 844 q 530 810 539 829 q 514 753 521 792 l 401 113 q 397 69 397 88 q 417 27 397 38 q 494 17 438 17 q 497 8 497 17 q 494 0 497 0 q 435 1 457 0 l 344 3 l 258 1 q 197 0 236 0 m 385 1074 l 385 1075 q 389 1081 385 1078 q 394 1083 393 1085 l 511 1003 l 653 1085 q 660 1081 656 1086 q 661 1074 665 1075 l 513 938 q 499 932 507 932 q 486 938 492 932 l 385 1074 z "},"Ţ":{"ha":768,"x_min":104,"x_max":844,"o":"m 828 903 q 838 906 831 907 q 843 900 844 906 q 813 773 832 863 q 788 647 793 683 q 778 644 786 643 q 772 650 771 644 q 779 725 779 696 q 748 817 779 789 q 646 844 717 844 l 613 844 q 558 837 576 844 q 530 810 539 829 q 514 753 521 792 l 401 113 q 397 69 397 88 q 417 27 397 38 q 494 17 438 17 q 497 8 497 17 q 494 0 497 0 q 439 1 458 0 l 356 3 q 338 -76 338 -43 q 363 -144 338 -111 q 396 -197 385 -174 q 407 -243 407 -219 q 406 -261 407 -256 q 361 -343 400 -304 q 263 -382 322 -382 q 207 -368 229 -382 q 185 -328 185 -354 q 186 -317 185 -321 q 199 -296 188 -304 q 226 -287 211 -287 q 250 -296 242 -287 q 268 -324 258 -304 q 282 -347 275 -339 q 301 -356 289 -356 q 353 -303 340 -356 q 300 -192 357 -261 q 278 -135 278 -165 q 292 -83 278 -114 l 335 3 l 254 1 q 197 0 233 0 q 193 8 193 0 q 197 17 193 17 q 267 24 244 17 q 302 51 290 31 q 321 113 314 71 l 435 756 q 439 797 439 781 q 423 835 439 825 q 364 844 407 844 l 331 844 q 201 798 249 844 q 122 644 153 751 q 117 642 122 642 q 108 644 113 642 q 106 647 104 646 q 138 767 117 682 q 167 899 158 853 q 176 902 168 903 q 183 897 185 901 q 238 868 179 868 q 492 864 340 864 q 649 867 563 864 l 736 868 q 799 875 778 868 q 828 903 819 882 z "},"Ț":{"ha":768,"x_min":106,"x_max":843,"o":"m 197 0 q 193 8 193 0 q 197 17 193 17 q 267 24 244 17 q 302 51 290 31 q 321 113 314 71 l 435 756 q 439 797 439 781 q 423 835 439 825 q 364 844 407 844 l 331 844 q 201 798 249 844 q 122 644 153 751 q 117 642 122 642 q 108 644 113 642 q 106 647 104 646 q 138 767 117 682 q 167 899 158 853 q 176 902 168 903 q 183 897 185 901 q 238 868 179 868 q 492 864 340 864 q 649 867 563 864 l 736 868 q 799 875 778 868 q 828 903 819 882 q 838 906 831 907 q 843 900 844 906 q 813 773 832 863 q 788 647 793 683 q 778 644 786 643 q 772 650 771 644 q 779 725 779 696 q 748 817 779 789 q 646 844 717 844 l 613 844 q 558 837 576 844 q 530 810 539 829 q 514 753 521 792 l 401 113 q 397 69 397 88 q 417 27 397 38 q 494 17 438 17 q 497 8 497 17 q 494 0 497 0 q 435 1 457 0 l 344 3 l 258 1 q 197 0 236 0 m 314 -119 q 367 -142 347 -119 q 388 -204 388 -165 q 276 -382 388 -301 l 274 -383 q 265 -377 268 -383 q 267 -368 263 -371 q 340 -261 332 -322 q 342 -237 342 -251 q 339 -215 342 -221 q 304 -228 326 -228 q 262 -212 276 -228 q 250 -171 247 -196 q 268 -133 251 -147 q 314 -119 285 -119 z "},"Ṭ":{"ha":768,"x_min":106,"x_max":843,"o":"m 197 0 q 193 8 193 0 q 197 17 193 17 q 267 24 244 17 q 302 51 290 31 q 321 113 314 71 l 435 756 q 439 797 439 781 q 423 835 439 825 q 364 844 407 844 l 331 844 q 201 798 249 844 q 122 644 153 751 q 117 642 122 642 q 108 644 113 642 q 106 647 104 646 q 138 767 117 682 q 167 899 158 853 q 176 902 168 903 q 183 897 185 901 q 238 868 179 868 q 492 864 340 864 q 649 867 563 864 l 736 868 q 799 875 778 868 q 828 903 819 882 q 838 906 831 907 q 843 900 844 906 q 813 773 832 863 q 788 647 793 683 q 778 644 786 643 q 772 650 771 644 q 779 725 779 696 q 748 817 779 789 q 646 844 717 844 l 613 844 q 558 837 576 844 q 530 810 539 829 q 514 753 521 792 l 401 113 q 397 69 397 88 q 417 27 397 38 q 494 17 438 17 q 497 8 497 17 q 494 0 497 0 q 435 1 457 0 l 344 3 l 258 1 q 197 0 236 0 m 313 -262 q 269 -247 285 -262 q 253 -203 253 -231 q 269 -161 253 -176 q 313 -146 285 -146 q 356 -161 340 -146 q 371 -203 371 -176 q 356 -247 371 -231 q 313 -262 340 -262 z "},"Ṯ":{"ha":768,"x_min":106,"x_max":843,"o":"m 197 0 q 193 8 193 0 q 197 17 193 17 q 267 24 244 17 q 302 51 290 31 q 321 113 314 71 l 435 756 q 439 797 439 781 q 423 835 439 825 q 364 844 407 844 l 331 844 q 201 798 249 844 q 122 644 153 751 q 117 642 122 642 q 108 644 113 642 q 106 647 104 646 q 138 767 117 682 q 167 899 158 853 q 176 902 168 903 q 183 897 185 901 q 238 868 179 868 q 492 864 340 864 q 649 867 563 864 l 736 868 q 799 875 778 868 q 828 903 819 882 q 838 906 831 907 q 843 900 844 906 q 813 773 832 863 q 788 647 793 683 q 778 644 786 643 q 772 650 771 644 q 779 725 779 696 q 748 817 779 789 q 646 844 717 844 l 613 844 q 558 837 576 844 q 530 810 539 829 q 514 753 521 792 l 401 113 q 397 69 397 88 q 417 27 397 38 q 494 17 438 17 q 497 8 497 17 q 494 0 497 0 q 435 1 457 0 l 344 3 l 258 1 q 197 0 236 0 m 169 -162 q 161 -143 161 -162 q 169 -124 161 -124 l 500 -124 q 508 -143 508 -124 q 500 -162 508 -162 l 169 -162 z "},"U":{"ha":858,"x_min":124,"x_max":942,"o":"m 782 719 q 786 761 786 743 q 697 851 786 851 q 693 860 693 851 q 697 868 693 868 l 754 867 q 822 864 796 864 q 886 867 844 864 l 936 868 q 941 860 942 868 q 936 851 940 851 q 810 714 835 851 l 740 313 q 616 69 713 157 q 382 -18 519 -18 q 196 48 263 -18 q 129 231 129 114 q 136 307 129 263 l 217 757 q 221 800 221 782 q 201 842 221 832 q 128 851 182 851 q 124 860 124 851 q 128 868 124 868 l 190 867 q 274 864 243 864 q 365 867 310 864 l 421 868 q 426 860 426 868 q 421 851 426 851 q 351 842 375 851 q 315 813 326 833 q 296 750 303 792 l 224 350 q 214 251 214 288 q 267 81 214 139 q 415 24 321 24 q 608 101 529 24 q 710 315 686 179 l 782 719 z "},"Ú":{"ha":858,"x_min":124,"x_max":940,"o":"m 782 719 q 786 761 786 743 q 697 851 786 851 q 693 860 693 851 q 697 868 693 868 l 754 867 q 822 864 796 864 q 886 867 844 864 l 936 868 q 941 860 942 868 q 936 851 940 851 q 810 714 835 851 l 740 313 q 616 69 713 157 q 382 -18 519 -18 q 196 48 263 -18 q 129 231 129 114 q 136 307 129 263 l 217 757 q 221 800 221 782 q 201 842 221 832 q 128 851 182 851 q 124 860 124 851 q 128 868 124 868 l 190 867 q 274 864 243 864 q 365 867 310 864 l 421 868 q 426 860 426 868 q 421 851 426 851 q 351 842 375 851 q 315 813 326 833 q 296 750 303 792 l 224 350 q 214 251 214 288 q 267 81 214 139 q 415 24 321 24 q 608 101 529 24 q 710 315 686 179 l 782 719 m 425 942 q 417 948 419 942 q 419 957 415 954 q 563 1039 479 988 q 646 1088 618 1072 q 678 1083 651 1092 q 726 1063 706 1074 q 735 1050 746 1051 q 426 942 571 1008 l 425 942 z "},"Ŭ":{"ha":858,"x_min":124,"x_max":940,"o":"m 782 719 q 786 761 786 743 q 697 851 786 851 q 693 860 693 851 q 697 868 693 868 l 754 867 q 822 864 796 864 q 886 867 844 864 l 936 868 q 941 860 942 868 q 936 851 940 851 q 810 714 835 851 l 740 313 q 616 69 713 157 q 382 -18 519 -18 q 196 48 263 -18 q 129 231 129 114 q 136 307 129 263 l 217 757 q 221 800 221 782 q 201 842 221 832 q 128 851 182 851 q 124 860 124 851 q 128 868 124 868 l 190 867 q 274 864 243 864 q 365 867 310 864 l 421 868 q 426 860 426 868 q 421 851 426 851 q 351 842 375 851 q 315 813 326 833 q 296 750 303 792 l 224 350 q 214 251 214 288 q 267 81 214 139 q 415 24 321 24 q 608 101 529 24 q 710 315 686 179 l 782 719 m 572 925 q 481 960 513 925 q 449 1044 449 994 q 469 1060 449 1053 q 507 1067 489 1067 q 519 1063 519 1067 q 545 998 522 1022 q 608 974 568 974 q 663 993 639 974 q 707 1057 686 1013 q 715 1061 711 1061 q 726 1058 721 1061 q 731 1053 732 1056 q 572 925 672 925 z "},"Ǔ":{"ha":858,"x_min":124,"x_max":940,"o":"m 782 719 q 786 761 786 743 q 697 851 786 851 q 693 860 693 851 q 697 868 693 868 l 754 867 q 822 864 796 864 q 886 867 844 864 l 936 868 q 941 860 942 868 q 936 851 940 851 q 810 714 835 851 l 740 313 q 616 69 713 157 q 382 -18 519 -18 q 196 48 263 -18 q 129 231 129 114 q 136 307 129 263 l 217 757 q 221 800 221 782 q 201 842 221 832 q 128 851 182 851 q 124 860 124 851 q 128 868 124 868 l 190 867 q 274 864 243 864 q 365 867 310 864 l 421 868 q 426 860 426 868 q 421 851 426 851 q 351 842 375 851 q 315 813 326 833 q 296 750 303 792 l 224 350 q 214 251 214 288 q 267 81 214 139 q 415 24 321 24 q 608 101 529 24 q 710 315 686 179 l 782 719 m 456 1074 l 456 1075 q 460 1081 456 1078 q 465 1083 464 1085 l 582 1003 l 724 1085 q 731 1081 726 1086 q 732 1074 736 1075 l 583 938 q 569 932 578 932 q 557 938 563 932 l 456 1074 z "},"Û":{"ha":858,"x_min":124,"x_max":940,"o":"m 782 719 q 786 761 786 743 q 697 851 786 851 q 693 860 693 851 q 697 868 693 868 l 754 867 q 822 864 796 864 q 886 867 844 864 l 936 868 q 941 860 942 868 q 936 851 940 851 q 810 714 835 851 l 740 313 q 616 69 713 157 q 382 -18 519 -18 q 196 48 263 -18 q 129 231 129 114 q 136 307 129 263 l 217 757 q 221 800 221 782 q 201 842 221 832 q 128 851 182 851 q 124 860 124 851 q 128 868 124 868 l 190 867 q 274 864 243 864 q 365 867 310 864 l 421 868 q 426 860 426 868 q 421 851 426 851 q 351 842 375 851 q 315 813 326 833 q 296 750 303 792 l 224 350 q 214 251 214 288 q 267 81 214 139 q 415 24 321 24 q 608 101 529 24 q 710 315 686 179 l 782 719 m 442 917 q 435 920 438 917 q 435 926 432 924 l 583 1061 q 596 1068 588 1068 q 608 1061 604 1068 l 713 926 l 713 925 q 709 917 713 921 q 703 917 706 914 l 583 996 l 443 917 l 442 917 z "},"Ü":{"ha":858,"x_min":124,"x_max":940,"o":"m 782 719 q 786 761 786 743 q 697 851 786 851 q 693 860 693 851 q 697 868 693 868 l 754 867 q 822 864 796 864 q 886 867 844 864 l 936 868 q 941 860 942 868 q 936 851 940 851 q 810 714 835 851 l 740 313 q 616 69 713 157 q 382 -18 519 -18 q 196 48 263 -18 q 129 231 129 114 q 136 307 129 263 l 217 757 q 221 800 221 782 q 201 842 221 832 q 128 851 182 851 q 124 860 124 851 q 128 868 124 868 l 190 867 q 274 864 243 864 q 365 867 310 864 l 421 868 q 426 860 426 868 q 421 851 426 851 q 351 842 375 851 q 315 813 326 833 q 296 750 303 792 l 224 350 q 214 251 214 288 q 267 81 214 139 q 415 24 321 24 q 608 101 529 24 q 710 315 686 179 l 782 719 m 475 996 q 431 1011 447 996 q 415 1053 415 1026 q 431 1094 415 1079 q 475 1110 447 1110 q 517 1095 501 1110 q 532 1053 532 1081 q 517 1011 532 1026 q 475 996 501 996 m 718 996 q 674 1011 690 996 q 658 1053 658 1026 q 674 1094 658 1079 q 718 1110 690 1110 q 760 1095 746 1110 q 775 1053 775 1081 q 760 1011 775 1026 q 718 996 746 996 z "},"Ǘ":{"ha":858,"x_min":124,"x_max":940,"o":"m 782 719 q 786 761 786 743 q 697 851 786 851 q 693 860 693 851 q 697 868 693 868 l 754 867 q 822 864 796 864 q 886 867 844 864 l 936 868 q 941 860 942 868 q 936 851 940 851 q 810 714 835 851 l 740 313 q 616 69 713 157 q 382 -18 519 -18 q 196 48 263 -18 q 129 231 129 114 q 136 307 129 263 l 217 757 q 221 800 221 782 q 201 842 221 832 q 128 851 182 851 q 124 860 124 851 q 128 868 124 868 l 190 867 q 274 864 243 864 q 365 867 310 864 l 421 868 q 426 860 426 868 q 421 851 426 851 q 351 842 375 851 q 315 813 326 833 q 296 750 303 792 l 224 350 q 214 251 214 288 q 267 81 214 139 q 415 24 321 24 q 608 101 529 24 q 710 315 686 179 l 782 719 m 489 964 q 446 979 461 964 q 431 1021 431 994 q 446 1063 431 1047 q 489 1078 461 1078 q 531 1063 517 1078 q 546 1021 546 1049 q 531 979 546 994 q 489 964 517 964 m 699 964 q 655 979 671 964 q 639 1021 639 994 q 655 1063 639 1047 q 699 1078 671 1078 q 741 1063 726 1078 q 756 1021 756 1049 q 741 979 756 994 q 699 964 726 964 m 472 1107 q 465 1113 467 1107 q 468 1122 464 1119 q 625 1213 519 1149 l 693 1254 q 726 1248 699 1257 q 773 1228 753 1239 q 783 1215 793 1217 q 626 1169 697 1194 q 475 1108 554 1143 l 472 1107 z "},"Ǚ":{"ha":858,"x_min":124,"x_max":940,"o":"m 782 719 q 786 761 786 743 q 697 851 786 851 q 693 860 693 851 q 697 868 693 868 l 754 867 q 822 864 796 864 q 886 867 844 864 l 936 868 q 941 860 942 868 q 936 851 940 851 q 810 714 835 851 l 740 313 q 616 69 713 157 q 382 -18 519 -18 q 196 48 263 -18 q 129 231 129 114 q 136 307 129 263 l 217 757 q 221 800 221 782 q 201 842 221 832 q 128 851 182 851 q 124 860 124 851 q 128 868 124 868 l 190 867 q 274 864 243 864 q 365 867 310 864 l 421 868 q 426 860 426 868 q 421 851 426 851 q 351 842 375 851 q 315 813 326 833 q 296 750 303 792 l 224 350 q 214 251 214 288 q 267 81 214 139 q 415 24 321 24 q 608 101 529 24 q 710 315 686 179 l 782 719 m 489 964 q 446 979 461 964 q 431 1021 431 994 q 446 1063 431 1047 q 489 1078 461 1078 q 531 1063 517 1078 q 546 1021 546 1049 q 531 979 546 994 q 489 964 517 964 m 699 964 q 655 979 671 964 q 639 1021 639 994 q 655 1063 639 1047 q 699 1078 671 1078 q 741 1063 726 1078 q 756 1021 756 1049 q 741 979 756 994 q 699 964 726 964 m 483 1099 q 476 1101 481 1097 q 475 1108 472 1106 l 624 1243 q 636 1250 631 1250 q 649 1243 644 1250 l 751 1108 l 751 1107 q 748 1099 751 1103 q 742 1099 744 1096 l 624 1179 l 483 1099 z "},"Ǜ":{"ha":858,"x_min":124,"x_max":940,"o":"m 782 719 q 786 761 786 743 q 697 851 786 851 q 693 860 693 851 q 697 868 693 868 l 754 867 q 822 864 796 864 q 886 867 844 864 l 936 868 q 941 860 942 868 q 936 851 940 851 q 810 714 835 851 l 740 313 q 616 69 713 157 q 382 -18 519 -18 q 196 48 263 -18 q 129 231 129 114 q 136 307 129 263 l 217 757 q 221 800 221 782 q 201 842 221 832 q 128 851 182 851 q 124 860 124 851 q 128 868 124 868 l 190 867 q 274 864 243 864 q 365 867 310 864 l 421 868 q 426 860 426 868 q 421 851 426 851 q 351 842 375 851 q 315 813 326 833 q 296 750 303 792 l 224 350 q 214 251 214 288 q 267 81 214 139 q 415 24 321 24 q 608 101 529 24 q 710 315 686 179 l 782 719 m 489 964 q 446 979 461 964 q 431 1021 431 994 q 446 1063 431 1047 q 489 1078 461 1078 q 531 1063 517 1078 q 546 1021 546 1049 q 531 979 546 994 q 489 964 517 964 m 699 964 q 655 979 671 964 q 639 1021 639 994 q 655 1063 639 1047 q 699 1078 671 1078 q 741 1063 726 1078 q 756 1021 756 1049 q 741 979 756 994 q 699 964 726 964 m 731 1101 q 603 1159 663 1135 q 471 1204 544 1183 q 482 1218 458 1207 q 538 1238 506 1229 q 575 1243 569 1246 q 740 1114 675 1158 q 742 1111 742 1114 q 738 1103 742 1107 q 731 1101 735 1100 z "},"Ǖ":{"ha":858,"x_min":124,"x_max":940,"o":"m 782 719 q 786 761 786 743 q 697 851 786 851 q 693 860 693 851 q 697 868 693 868 l 754 867 q 822 864 796 864 q 886 867 844 864 l 936 868 q 941 860 942 868 q 936 851 940 851 q 810 714 835 851 l 740 313 q 616 69 713 157 q 382 -18 519 -18 q 196 48 263 -18 q 129 231 129 114 q 136 307 129 263 l 217 757 q 221 800 221 782 q 201 842 221 832 q 128 851 182 851 q 124 860 124 851 q 128 868 124 868 l 190 867 q 274 864 243 864 q 365 867 310 864 l 421 868 q 426 860 426 868 q 421 851 426 851 q 351 842 375 851 q 315 813 326 833 q 296 750 303 792 l 224 350 q 214 251 214 288 q 267 81 214 139 q 415 24 321 24 q 608 101 529 24 q 710 315 686 179 l 782 719 m 475 964 q 432 979 447 964 q 417 1021 417 994 q 432 1063 417 1047 q 475 1078 447 1078 q 517 1063 503 1078 q 532 1021 532 1049 q 517 979 532 994 q 475 964 503 964 m 685 964 q 641 979 657 964 q 625 1021 625 994 q 641 1063 625 1047 q 685 1078 657 1078 q 727 1063 713 1078 q 742 1021 742 1049 q 727 979 742 994 q 685 964 713 964 m 433 1135 q 425 1154 425 1135 q 433 1174 425 1174 l 764 1174 q 772 1154 772 1174 q 764 1135 772 1135 l 433 1135 z "},"Ụ":{"ha":858,"x_min":124,"x_max":940,"o":"m 782 719 q 786 761 786 743 q 697 851 786 851 q 693 860 693 851 q 697 868 693 868 l 754 867 q 822 864 796 864 q 886 867 844 864 l 936 868 q 941 860 942 868 q 936 851 940 851 q 810 714 835 851 l 740 313 q 616 69 713 157 q 382 -18 519 -18 q 196 48 263 -18 q 129 231 129 114 q 136 307 129 263 l 217 757 q 221 800 221 782 q 201 842 221 832 q 128 851 182 851 q 124 860 124 851 q 128 868 124 868 l 190 867 q 274 864 243 864 q 365 867 310 864 l 421 868 q 426 860 426 868 q 421 851 426 851 q 351 842 375 851 q 315 813 326 833 q 296 750 303 792 l 224 350 q 214 251 214 288 q 267 81 214 139 q 415 24 321 24 q 608 101 529 24 q 710 315 686 179 l 782 719 m 353 -262 q 309 -247 325 -262 q 293 -203 293 -231 q 309 -161 293 -176 q 353 -146 325 -146 q 396 -161 381 -146 q 411 -203 411 -176 q 396 -247 411 -231 q 353 -262 381 -262 z "},"Ù":{"ha":858,"x_min":124,"x_max":940,"o":"m 782 719 q 786 761 786 743 q 697 851 786 851 q 693 860 693 851 q 697 868 693 868 l 754 867 q 822 864 796 864 q 886 867 844 864 l 936 868 q 941 860 942 868 q 936 851 940 851 q 810 714 835 851 l 740 313 q 616 69 713 157 q 382 -18 519 -18 q 196 48 263 -18 q 129 231 129 114 q 136 307 129 263 l 217 757 q 221 800 221 782 q 201 842 221 832 q 128 851 182 851 q 124 860 124 851 q 128 868 124 868 l 190 867 q 274 864 243 864 q 365 867 310 864 l 421 868 q 426 860 426 868 q 421 851 426 851 q 351 842 375 851 q 315 813 326 833 q 296 750 303 792 l 224 350 q 214 251 214 288 q 267 81 214 139 q 415 24 321 24 q 608 101 529 24 q 710 315 686 179 l 782 719 m 699 943 q 389 1050 542 1013 q 399 1063 379 1051 q 447 1083 419 1074 q 479 1089 474 1092 l 519 1064 q 704 957 657 982 q 707 951 707 956 q 704 944 707 947 q 699 943 701 942 z "},"Ủ":{"ha":858,"x_min":124,"x_max":940,"o":"m 782 719 q 786 761 786 743 q 697 851 786 851 q 693 860 693 851 q 697 868 693 868 l 754 867 q 822 864 796 864 q 886 867 844 864 l 936 868 q 941 860 942 868 q 936 851 940 851 q 810 714 835 851 l 740 313 q 616 69 713 157 q 382 -18 519 -18 q 196 48 263 -18 q 129 231 129 114 q 136 307 129 263 l 217 757 q 221 800 221 782 q 201 842 221 832 q 128 851 182 851 q 124 860 124 851 q 128 868 124 868 l 190 867 q 274 864 243 864 q 365 867 310 864 l 421 868 q 426 860 426 868 q 421 851 426 851 q 351 842 375 851 q 315 813 326 833 q 296 750 303 792 l 224 350 q 214 251 214 288 q 267 81 214 139 q 415 24 321 24 q 608 101 529 24 q 710 315 686 179 l 782 719 m 575 903 q 567 900 575 900 q 558 903 560 900 q 557 918 557 908 q 567 965 557 944 q 599 1011 578 985 q 627 1053 618 1036 q 636 1090 636 1069 q 622 1124 636 1113 q 585 1136 607 1136 q 544 1128 564 1136 l 542 1126 q 535 1131 538 1126 q 538 1139 532 1136 q 631 1167 583 1167 q 690 1149 669 1167 q 711 1106 711 1132 q 692 1053 711 1076 q 639 1000 674 1031 q 590 949 606 971 q 575 903 574 928 z "},"Ư":{"ha":857,"x_min":122,"x_max":1033,"o":"m 739 313 q 615 69 711 157 q 382 -18 518 -18 q 196 47 263 -18 q 129 228 129 113 q 136 307 129 272 l 215 757 q 219 800 219 782 q 200 842 219 832 q 126 851 181 851 q 122 857 122 851 q 124 864 122 861 q 126 868 125 867 l 188 867 q 272 864 240 864 q 364 867 308 864 l 419 868 q 424 863 424 868 q 422 856 424 858 q 419 851 421 853 q 349 842 374 851 q 313 813 325 833 q 294 750 301 792 l 222 350 q 213 251 213 288 q 265 81 213 139 q 413 24 318 24 q 606 101 528 24 q 708 315 685 179 l 781 719 q 785 763 785 743 q 697 851 785 851 q 693 857 693 851 q 694 864 693 861 q 697 868 696 867 l 753 867 q 819 864 794 864 q 910 880 879 864 q 946 932 940 896 q 940 967 949 950 q 935 982 938 974 q 935 1001 933 990 q 957 1037 940 1024 q 993 1050 974 1050 q 1023 1035 1013 1050 q 1033 996 1033 1019 q 997 913 1033 947 q 900 851 960 878 q 846 812 869 840 q 808 714 822 783 l 739 313 z "},"Ứ":{"ha":857,"x_min":122,"x_max":1033,"o":"m 739 313 q 615 69 711 157 q 382 -18 518 -18 q 196 47 263 -18 q 129 228 129 113 q 136 307 129 272 l 215 757 q 219 800 219 782 q 200 842 219 832 q 126 851 181 851 q 122 857 122 851 q 124 864 122 861 q 126 868 125 867 l 188 867 q 272 864 240 864 q 364 867 308 864 l 419 868 q 424 863 424 868 q 422 856 424 858 q 419 851 421 853 q 349 842 374 851 q 313 813 325 833 q 294 750 301 792 l 222 350 q 213 251 213 288 q 265 81 213 139 q 413 24 318 24 q 606 101 528 24 q 708 315 685 179 l 781 719 q 785 763 785 743 q 697 851 785 851 q 693 857 693 851 q 694 864 693 861 q 697 868 696 867 l 753 867 q 819 864 794 864 q 910 880 879 864 q 946 932 940 896 q 940 967 949 950 q 935 982 938 974 q 935 1001 933 990 q 957 1037 940 1024 q 993 1050 974 1050 q 1023 1035 1013 1050 q 1033 996 1033 1019 q 997 913 1033 947 q 900 851 960 878 q 846 812 869 840 q 808 714 822 783 l 739 313 m 425 942 q 417 948 419 942 q 419 957 415 954 q 563 1039 479 988 q 646 1088 618 1072 q 678 1083 651 1092 q 726 1063 706 1074 q 735 1050 746 1051 q 426 942 571 1008 l 425 942 z "},"Ự":{"ha":857,"x_min":122,"x_max":1033,"o":"m 739 313 q 615 69 711 157 q 382 -18 518 -18 q 196 47 263 -18 q 129 228 129 113 q 136 307 129 272 l 215 757 q 219 800 219 782 q 200 842 219 832 q 126 851 181 851 q 122 857 122 851 q 124 864 122 861 q 126 868 125 867 l 188 867 q 272 864 240 864 q 364 867 308 864 l 419 868 q 424 863 424 868 q 422 856 424 858 q 419 851 421 853 q 349 842 374 851 q 313 813 325 833 q 294 750 301 792 l 222 350 q 213 251 213 288 q 265 81 213 139 q 413 24 318 24 q 606 101 528 24 q 708 315 685 179 l 781 719 q 785 763 785 743 q 697 851 785 851 q 693 857 693 851 q 694 864 693 861 q 697 868 696 867 l 753 867 q 819 864 794 864 q 910 880 879 864 q 946 932 940 896 q 940 967 949 950 q 935 982 938 974 q 935 1001 933 990 q 957 1037 940 1024 q 993 1050 974 1050 q 1023 1035 1013 1050 q 1033 996 1033 1019 q 997 913 1033 947 q 900 851 960 878 q 846 812 869 840 q 808 714 822 783 l 739 313 m 329 -262 q 285 -247 301 -262 q 269 -203 269 -231 q 285 -161 269 -176 q 329 -146 301 -146 q 372 -161 357 -146 q 388 -203 388 -176 q 372 -247 388 -231 q 329 -262 357 -262 z "},"Ừ":{"ha":857,"x_min":122,"x_max":1033,"o":"m 739 313 q 615 69 711 157 q 382 -18 518 -18 q 196 47 263 -18 q 129 228 129 113 q 136 307 129 272 l 215 757 q 219 800 219 782 q 200 842 219 832 q 126 851 181 851 q 122 857 122 851 q 124 864 122 861 q 126 868 125 867 l 188 867 q 272 864 240 864 q 364 867 308 864 l 419 868 q 424 863 424 868 q 422 856 424 858 q 419 851 421 853 q 349 842 374 851 q 313 813 325 833 q 294 750 301 792 l 222 350 q 213 251 213 288 q 265 81 213 139 q 413 24 318 24 q 606 101 528 24 q 708 315 685 179 l 781 719 q 785 763 785 743 q 697 851 785 851 q 693 857 693 851 q 694 864 693 861 q 697 868 696 867 l 753 867 q 819 864 794 864 q 910 880 879 864 q 946 932 940 896 q 940 967 949 950 q 935 982 938 974 q 935 1001 933 990 q 957 1037 940 1024 q 993 1050 974 1050 q 1023 1035 1013 1050 q 1033 996 1033 1019 q 997 913 1033 947 q 900 851 960 878 q 846 812 869 840 q 808 714 822 783 l 739 313 m 699 943 q 389 1050 542 1013 q 399 1063 379 1051 q 447 1083 419 1074 q 479 1089 474 1092 l 519 1064 q 704 957 657 982 q 707 951 707 956 q 704 944 707 947 q 699 943 701 942 z "},"Ử":{"ha":857,"x_min":122,"x_max":1033,"o":"m 739 313 q 615 69 711 157 q 382 -18 518 -18 q 196 47 263 -18 q 129 228 129 113 q 136 307 129 272 l 215 757 q 219 800 219 782 q 200 842 219 832 q 126 851 181 851 q 122 857 122 851 q 124 864 122 861 q 126 868 125 867 l 188 867 q 272 864 240 864 q 364 867 308 864 l 419 868 q 424 863 424 868 q 422 856 424 858 q 419 851 421 853 q 349 842 374 851 q 313 813 325 833 q 294 750 301 792 l 222 350 q 213 251 213 288 q 265 81 213 139 q 413 24 318 24 q 606 101 528 24 q 708 315 685 179 l 781 719 q 785 763 785 743 q 697 851 785 851 q 693 857 693 851 q 694 864 693 861 q 697 868 696 867 l 753 867 q 819 864 794 864 q 910 880 879 864 q 946 932 940 896 q 940 967 949 950 q 935 982 938 974 q 935 1001 933 990 q 957 1037 940 1024 q 993 1050 974 1050 q 1023 1035 1013 1050 q 1033 996 1033 1019 q 997 913 1033 947 q 900 851 960 878 q 846 812 869 840 q 808 714 822 783 l 739 313 m 575 903 q 567 900 575 900 q 558 903 560 900 q 557 918 557 908 q 567 965 557 944 q 599 1011 578 985 q 627 1053 618 1036 q 636 1090 636 1069 q 622 1124 636 1113 q 585 1136 607 1136 q 544 1128 564 1136 l 542 1126 q 535 1131 538 1126 q 538 1139 532 1136 q 631 1167 583 1167 q 690 1149 669 1167 q 711 1106 711 1132 q 692 1053 711 1076 q 639 1000 674 1031 q 590 949 606 971 q 575 903 574 928 z "},"Ữ":{"ha":857,"x_min":122,"x_max":1033,"o":"m 739 313 q 615 69 711 157 q 382 -18 518 -18 q 196 47 263 -18 q 129 228 129 113 q 136 307 129 272 l 215 757 q 219 800 219 782 q 200 842 219 832 q 126 851 181 851 q 122 857 122 851 q 124 864 122 861 q 126 868 125 867 l 188 867 q 272 864 240 864 q 364 867 308 864 l 419 868 q 424 863 424 868 q 422 856 424 858 q 419 851 421 853 q 349 842 374 851 q 313 813 325 833 q 294 750 301 792 l 222 350 q 213 251 213 288 q 265 81 213 139 q 413 24 318 24 q 606 101 528 24 q 708 315 685 179 l 781 719 q 785 763 785 743 q 697 851 785 851 q 693 857 693 851 q 694 864 693 861 q 697 868 696 867 l 753 867 q 819 864 794 864 q 910 880 879 864 q 946 932 940 896 q 940 967 949 950 q 935 982 938 974 q 935 1001 933 990 q 957 1037 940 1024 q 993 1050 974 1050 q 1023 1035 1013 1050 q 1033 996 1033 1019 q 997 913 1033 947 q 900 851 960 878 q 846 812 869 840 q 808 714 822 783 l 739 313 m 411 999 q 404 1002 407 999 q 404 1008 401 1006 q 460 1067 428 1040 q 525 1093 492 1093 q 594 1079 544 1093 q 699 1060 658 1060 q 739 1069 724 1060 q 769 1097 754 1079 l 771 1097 q 778 1094 775 1097 q 779 1088 782 1090 q 717 1019 742 1038 q 667 1001 693 1001 q 582 1018 638 1001 q 547 1028 576 1019 q 485 1036 517 1036 q 449 1028 461 1036 q 426 1011 436 1021 q 414 999 417 1001 l 411 999 z "},"Ű":{"ha":858,"x_min":124,"x_max":940,"o":"m 782 719 q 786 761 786 743 q 697 851 786 851 q 693 860 693 851 q 697 868 693 868 l 754 867 q 822 864 796 864 q 886 867 844 864 l 936 868 q 941 860 942 868 q 936 851 940 851 q 810 714 835 851 l 740 313 q 616 69 713 157 q 382 -18 519 -18 q 196 48 263 -18 q 129 231 129 114 q 136 307 129 263 l 217 757 q 221 800 221 782 q 201 842 221 832 q 128 851 182 851 q 124 860 124 851 q 128 868 124 868 l 190 867 q 274 864 243 864 q 365 867 310 864 l 421 868 q 426 860 426 868 q 421 851 426 851 q 351 842 375 851 q 315 813 326 833 q 296 750 303 792 l 224 350 q 214 251 214 288 q 267 81 214 139 q 415 24 321 24 q 608 101 529 24 q 710 315 686 179 l 782 719 m 439 925 q 433 932 435 925 q 435 940 431 939 q 590 1096 517 1019 q 621 1094 594 1100 q 667 1079 647 1089 q 676 1065 686 1069 q 442 926 544 1006 l 439 925 m 608 925 q 601 931 603 925 q 604 940 600 938 l 760 1096 q 790 1094 764 1100 q 836 1078 817 1088 q 846 1065 856 1069 q 611 926 717 1007 l 608 925 z "},"Ū":{"ha":858,"x_min":124,"x_max":940,"o":"m 782 719 q 786 761 786 743 q 697 851 786 851 q 693 860 693 851 q 697 868 693 868 l 754 867 q 822 864 796 864 q 886 867 844 864 l 936 868 q 941 860 942 868 q 936 851 940 851 q 810 714 835 851 l 740 313 q 616 69 713 157 q 382 -18 519 -18 q 196 48 263 -18 q 129 231 129 114 q 136 307 129 263 l 217 757 q 221 800 221 782 q 201 842 221 832 q 128 851 182 851 q 124 860 124 851 q 128 868 124 868 l 190 867 q 274 864 243 864 q 365 867 310 864 l 421 868 q 426 860 426 868 q 421 851 426 851 q 351 842 375 851 q 315 813 326 833 q 296 750 303 792 l 224 350 q 214 251 214 288 q 267 81 214 139 q 415 24 321 24 q 608 101 529 24 q 710 315 686 179 l 782 719 m 386 990 q 378 1010 378 990 q 380 1022 378 1017 q 386 1028 382 1028 l 735 1028 q 741 1022 739 1028 q 743 1010 743 1017 q 735 990 743 990 l 386 990 z "},"Ų":{"ha":858,"x_min":124,"x_max":942,"o":"m 936 868 q 941 860 942 868 q 936 851 940 851 q 810 714 835 851 l 740 313 q 641 94 717 178 q 454 -11 565 10 q 370 -110 401 -64 q 331 -204 339 -157 q 326 -243 326 -225 q 349 -313 326 -287 q 413 -339 371 -339 q 455 -330 438 -339 q 494 -303 472 -321 l 496 -303 q 503 -308 500 -303 q 504 -315 507 -312 q 364 -381 435 -381 q 285 -352 314 -381 q 257 -275 257 -324 q 260 -244 257 -267 q 424 -15 275 -151 q 382 -18 396 -18 q 196 48 263 -18 q 129 231 129 114 q 136 307 129 263 l 217 757 q 221 800 221 782 q 201 842 221 832 q 128 851 182 851 q 124 860 124 851 q 128 868 124 868 l 190 867 q 274 864 243 864 q 365 867 310 864 l 421 868 q 426 860 426 868 q 421 851 426 851 q 351 842 375 851 q 315 813 326 833 q 296 750 303 792 l 224 350 q 214 251 214 288 q 267 81 214 139 q 415 24 321 24 q 608 101 529 24 q 710 315 686 179 l 782 719 q 786 761 786 743 q 697 851 786 851 q 693 860 693 851 q 697 868 693 868 l 754 867 q 822 864 796 864 q 886 867 844 864 l 936 868 z "},"Ů":{"ha":858,"x_min":124,"x_max":940,"o":"m 782 719 q 786 761 786 743 q 697 851 786 851 q 693 860 693 851 q 697 868 693 868 l 754 867 q 822 864 796 864 q 886 867 844 864 l 936 868 q 941 860 942 868 q 936 851 940 851 q 810 714 835 851 l 740 313 q 616 69 713 157 q 382 -18 519 -18 q 196 48 263 -18 q 129 231 129 114 q 136 307 129 263 l 217 757 q 221 800 221 782 q 201 842 221 832 q 128 851 182 851 q 124 860 124 851 q 128 868 124 868 l 190 867 q 274 864 243 864 q 365 867 310 864 l 421 868 q 426 860 426 868 q 421 851 426 851 q 351 842 375 851 q 315 813 326 833 q 296 750 303 792 l 224 350 q 214 251 214 288 q 267 81 214 139 q 415 24 321 24 q 608 101 529 24 q 710 315 686 179 l 782 719 m 572 932 q 492 965 522 932 q 463 1043 463 997 q 501 1122 463 1093 q 585 1150 539 1150 q 663 1118 631 1150 q 694 1039 694 1086 q 657 961 694 990 q 572 932 619 932 m 593 946 q 635 1015 635 946 q 611 1099 635 1064 q 557 1135 588 1135 q 521 1071 521 1135 q 541 985 521 1024 q 593 946 561 946 z "},"Ũ":{"ha":858,"x_min":124,"x_max":940,"o":"m 782 719 q 786 761 786 743 q 697 851 786 851 q 693 860 693 851 q 697 868 693 868 l 754 867 q 822 864 796 864 q 886 867 844 864 l 936 868 q 941 860 942 868 q 936 851 940 851 q 810 714 835 851 l 740 313 q 616 69 713 157 q 382 -18 519 -18 q 196 48 263 -18 q 129 231 129 114 q 136 307 129 263 l 217 757 q 221 800 221 782 q 201 842 221 832 q 128 851 182 851 q 124 860 124 851 q 128 868 124 868 l 190 867 q 274 864 243 864 q 365 867 310 864 l 421 868 q 426 860 426 868 q 421 851 426 851 q 351 842 375 851 q 315 813 326 833 q 296 750 303 792 l 224 350 q 214 251 214 288 q 267 81 214 139 q 415 24 321 24 q 608 101 529 24 q 710 315 686 179 l 782 719 m 411 999 q 404 1002 407 999 q 404 1008 401 1006 q 460 1067 428 1040 q 525 1093 492 1093 q 594 1079 544 1093 q 699 1060 658 1060 q 739 1069 724 1060 q 769 1097 754 1079 l 771 1097 q 778 1094 775 1097 q 779 1088 782 1090 q 717 1019 742 1038 q 667 1001 693 1001 q 582 1018 638 1001 q 547 1028 576 1019 q 485 1036 517 1036 q 449 1028 461 1036 q 426 1011 436 1021 q 414 999 417 1001 l 411 999 z "},"V":{"ha":824,"x_min":110,"x_max":921,"o":"m 915 868 q 921 860 921 868 q 915 851 921 851 q 842 829 874 851 q 776 744 810 807 l 392 1 q 376 -4 388 -4 q 361 1 363 -4 l 199 753 q 168 829 188 807 q 113 851 149 851 q 110 860 110 851 q 113 868 110 868 l 164 867 q 219 864 200 864 q 306 867 256 864 l 360 868 q 364 860 364 868 q 360 851 364 851 q 299 839 319 851 q 278 794 278 826 q 281 767 278 776 l 422 124 l 749 753 q 765 806 765 785 q 744 840 765 829 q 679 851 724 851 q 675 860 675 851 q 679 868 675 868 l 729 867 q 807 864 771 864 q 863 867 829 864 l 915 868 z "},"W":{"ha":1143,"x_min":108,"x_max":1240,"o":"m 1235 868 q 1240 860 1240 868 q 1235 851 1240 851 q 1161 829 1193 851 q 1097 744 1129 807 l 710 1 q 694 -4 708 -4 q 681 1 682 -4 l 594 394 l 392 1 q 375 -4 388 -4 q 361 1 363 -4 l 199 753 q 168 829 188 807 q 113 851 149 851 q 108 860 108 851 q 113 868 108 868 l 164 867 q 219 864 200 864 q 303 867 256 864 l 353 868 q 358 860 358 868 q 353 851 358 851 q 296 839 315 851 q 276 794 276 826 q 279 767 276 776 l 425 117 l 586 433 l 517 753 q 488 830 506 808 q 435 851 471 851 q 431 860 431 851 q 435 868 431 868 l 485 867 q 539 864 521 864 q 597 867 564 864 l 632 868 q 639 860 639 868 q 632 851 639 851 q 599 846 608 851 q 590 824 590 840 q 599 767 590 807 l 650 536 l 761 753 q 785 821 785 797 q 736 851 785 851 q 732 860 732 851 q 736 868 732 868 l 768 867 q 818 864 796 864 q 872 867 839 864 l 922 868 q 926 860 926 868 q 922 851 926 851 q 851 829 882 851 q 788 744 821 807 l 658 494 l 743 115 l 1069 753 q 1088 807 1088 789 q 1067 840 1088 829 q 1004 851 1047 851 q 999 860 999 851 q 1004 868 999 868 l 1053 867 q 1126 864 1094 864 q 1182 867 1149 864 l 1235 868 z "},"Ẃ":{"ha":1143,"x_min":108,"x_max":1240,"o":"m 1235 868 q 1240 860 1240 868 q 1235 851 1240 851 q 1161 829 1193 851 q 1097 744 1129 807 l 710 1 q 694 -4 708 -4 q 681 1 682 -4 l 594 394 l 392 1 q 375 -4 388 -4 q 361 1 363 -4 l 199 753 q 168 829 188 807 q 113 851 149 851 q 108 860 108 851 q 113 868 108 868 l 164 867 q 219 864 200 864 q 303 867 256 864 l 353 868 q 358 860 358 868 q 353 851 358 851 q 296 839 315 851 q 276 794 276 826 q 279 767 276 776 l 425 117 l 586 433 l 517 753 q 488 830 506 808 q 435 851 471 851 q 431 860 431 851 q 435 868 431 868 l 485 867 q 539 864 521 864 q 597 867 564 864 l 632 868 q 639 860 639 868 q 632 851 639 851 q 599 846 608 851 q 590 824 590 840 q 599 767 590 807 l 650 536 l 761 753 q 785 821 785 797 q 736 851 785 851 q 732 860 732 851 q 736 868 732 868 l 768 867 q 818 864 796 864 q 872 867 839 864 l 922 868 q 926 860 926 868 q 922 851 926 851 q 851 829 882 851 q 788 744 821 807 l 658 494 l 743 115 l 1069 753 q 1088 807 1088 789 q 1067 840 1088 829 q 1004 851 1047 851 q 999 860 999 851 q 1004 868 999 868 l 1053 867 q 1126 864 1094 864 q 1182 867 1149 864 l 1235 868 m 608 942 q 601 948 603 942 q 604 957 600 954 q 761 1047 656 983 l 829 1089 q 862 1083 835 1092 q 909 1063 889 1074 q 919 1050 929 1051 q 762 1003 833 1029 q 611 943 690 978 l 608 942 z "},"Ŵ":{"ha":1143,"x_min":108,"x_max":1240,"o":"m 1235 868 q 1240 860 1240 868 q 1235 851 1240 851 q 1161 829 1193 851 q 1097 744 1129 807 l 710 1 q 694 -4 708 -4 q 681 1 682 -4 l 594 394 l 392 1 q 375 -4 388 -4 q 361 1 363 -4 l 199 753 q 168 829 188 807 q 113 851 149 851 q 108 860 108 851 q 113 868 108 868 l 164 867 q 219 864 200 864 q 303 867 256 864 l 353 868 q 358 860 358 868 q 353 851 358 851 q 296 839 315 851 q 276 794 276 826 q 279 767 276 776 l 425 117 l 586 433 l 517 753 q 488 830 506 808 q 435 851 471 851 q 431 860 431 851 q 435 868 431 868 l 485 867 q 539 864 521 864 q 597 867 564 864 l 632 868 q 639 860 639 868 q 632 851 639 851 q 599 846 608 851 q 590 824 590 840 q 599 767 590 807 l 650 536 l 761 753 q 785 821 785 797 q 736 851 785 851 q 732 860 732 851 q 736 868 732 868 l 768 867 q 818 864 796 864 q 872 867 839 864 l 922 868 q 926 860 926 868 q 922 851 926 851 q 851 829 882 851 q 788 744 821 807 l 658 494 l 743 115 l 1069 753 q 1088 807 1088 789 q 1067 840 1088 829 q 1004 851 1047 851 q 999 860 999 851 q 1004 868 999 868 l 1053 867 q 1126 864 1094 864 q 1182 867 1149 864 l 1235 868 m 561 917 q 554 920 557 917 q 554 926 551 924 l 703 1061 q 715 1068 707 1068 q 728 1061 724 1068 l 832 926 l 832 925 q 828 917 832 921 q 822 917 825 914 l 703 996 l 563 917 l 561 917 z "},"Ẅ":{"ha":1143,"x_min":108,"x_max":1240,"o":"m 1235 868 q 1240 860 1240 868 q 1235 851 1240 851 q 1161 829 1193 851 q 1097 744 1129 807 l 710 1 q 694 -4 708 -4 q 681 1 682 -4 l 594 394 l 392 1 q 375 -4 388 -4 q 361 1 363 -4 l 199 753 q 168 829 188 807 q 113 851 149 851 q 108 860 108 851 q 113 868 108 868 l 164 867 q 219 864 200 864 q 303 867 256 864 l 353 868 q 358 860 358 868 q 353 851 358 851 q 296 839 315 851 q 276 794 276 826 q 279 767 276 776 l 425 117 l 586 433 l 517 753 q 488 830 506 808 q 435 851 471 851 q 431 860 431 851 q 435 868 431 868 l 485 867 q 539 864 521 864 q 597 867 564 864 l 632 868 q 639 860 639 868 q 632 851 639 851 q 599 846 608 851 q 590 824 590 840 q 599 767 590 807 l 650 536 l 761 753 q 785 821 785 797 q 736 851 785 851 q 732 860 732 851 q 736 868 732 868 l 768 867 q 818 864 796 864 q 872 867 839 864 l 922 868 q 926 860 926 868 q 922 851 926 851 q 851 829 882 851 q 788 744 821 807 l 658 494 l 743 115 l 1069 753 q 1088 807 1088 789 q 1067 840 1088 829 q 1004 851 1047 851 q 999 860 999 851 q 1004 868 999 868 l 1053 867 q 1126 864 1094 864 q 1182 867 1149 864 l 1235 868 m 608 996 q 565 1011 581 996 q 550 1053 550 1026 q 565 1094 550 1079 q 608 1110 581 1110 q 651 1095 636 1110 q 665 1053 665 1081 q 651 1011 665 1026 q 608 996 636 996 m 818 996 q 774 1011 790 996 q 758 1053 758 1026 q 774 1094 758 1079 q 818 1110 790 1110 q 860 1095 846 1110 q 875 1053 875 1081 q 860 1011 875 1026 q 818 996 846 996 z "},"Ẁ":{"ha":1143,"x_min":108,"x_max":1240,"o":"m 1235 868 q 1240 860 1240 868 q 1235 851 1240 851 q 1161 829 1193 851 q 1097 744 1129 807 l 710 1 q 694 -4 708 -4 q 681 1 682 -4 l 594 394 l 392 1 q 375 -4 388 -4 q 361 1 363 -4 l 199 753 q 168 829 188 807 q 113 851 149 851 q 108 860 108 851 q 113 868 108 868 l 164 867 q 219 864 200 864 q 303 867 256 864 l 353 868 q 358 860 358 868 q 353 851 358 851 q 296 839 315 851 q 276 794 276 826 q 279 767 276 776 l 425 117 l 586 433 l 517 753 q 488 830 506 808 q 435 851 471 851 q 431 860 431 851 q 435 868 431 868 l 485 867 q 539 864 521 864 q 597 867 564 864 l 632 868 q 639 860 639 868 q 632 851 639 851 q 599 846 608 851 q 590 824 590 840 q 599 767 590 807 l 650 536 l 761 753 q 785 821 785 797 q 736 851 785 851 q 732 860 732 851 q 736 868 732 868 l 768 867 q 818 864 796 864 q 872 867 839 864 l 922 868 q 926 860 926 868 q 922 851 926 851 q 851 829 882 851 q 788 744 821 807 l 658 494 l 743 115 l 1069 753 q 1088 807 1088 789 q 1067 840 1088 829 q 1004 851 1047 851 q 999 860 999 851 q 1004 868 999 868 l 1053 867 q 1126 864 1094 864 q 1182 867 1149 864 l 1235 868 m 808 947 q 681 1005 740 981 q 549 1050 622 1029 q 560 1064 536 1053 q 615 1083 583 1075 q 653 1089 647 1092 q 818 960 753 1004 q 819 957 819 960 q 816 949 819 953 q 808 947 813 946 z "},"X":{"ha":804,"x_min":-24,"x_max":864,"o":"m 857 868 q 864 860 864 868 q 857 851 864 851 q 669 721 776 851 l 469 469 l 607 115 q 655 39 626 61 q 733 17 683 17 q 739 8 739 17 q 733 0 739 0 q 685 1 703 0 l 617 3 l 522 1 q 461 0 499 0 q 456 8 456 0 q 461 17 456 17 q 515 24 497 17 q 532 50 532 32 q 528 71 532 58 l 401 397 l 193 131 q 154 54 154 82 q 219 17 154 17 q 225 8 225 17 q 219 0 225 0 q 164 1 183 0 l 78 3 l 28 1 q -18 0 14 0 q -24 8 -24 0 q -18 17 -24 17 q 70 47 22 17 q 165 136 118 78 l 392 422 l 264 753 q 217 829 243 807 q 151 851 192 851 q 146 860 146 851 q 151 868 146 868 l 194 867 q 240 864 225 864 q 342 867 283 864 l 404 868 q 410 860 410 868 q 404 851 410 851 q 338 818 338 851 q 343 796 338 813 l 460 494 l 642 728 q 685 814 685 783 q 622 851 685 851 q 617 860 617 851 q 622 868 617 868 l 678 867 q 764 864 725 864 q 814 867 783 864 l 857 868 z "},"Y":{"ha":735,"x_min":99,"x_max":839,"o":"m 833 868 q 839 860 839 868 q 833 851 839 851 q 651 721 744 851 l 440 431 l 385 113 q 379 65 379 86 q 399 26 379 36 q 471 17 418 17 q 476 8 476 17 q 471 0 476 0 q 413 1 433 0 l 328 3 l 240 1 q 182 0 219 0 q 176 8 176 0 q 182 17 176 17 q 251 24 228 17 q 286 51 275 32 q 304 113 297 71 l 357 418 l 215 753 q 167 829 192 807 q 104 851 143 851 q 99 860 99 851 q 104 868 99 868 l 151 867 q 200 864 185 864 q 296 867 235 864 l 360 868 q 363 861 363 868 q 357 851 363 851 q 303 844 319 851 q 288 821 288 838 q 294 796 288 813 l 435 460 l 624 728 q 661 811 661 781 q 603 851 661 851 q 597 860 597 851 q 603 868 597 868 l 658 867 q 740 864 706 864 q 789 867 761 864 l 833 868 z "},"Ý":{"ha":735,"x_min":99,"x_max":839,"o":"m 833 868 q 839 860 839 868 q 833 851 839 851 q 651 721 744 851 l 440 431 l 385 113 q 379 65 379 86 q 399 26 379 36 q 471 17 418 17 q 476 8 476 17 q 471 0 476 0 q 413 1 433 0 l 328 3 l 240 1 q 182 0 219 0 q 176 8 176 0 q 182 17 176 17 q 251 24 228 17 q 286 51 275 32 q 304 113 297 71 l 357 418 l 215 753 q 167 829 192 807 q 104 851 143 851 q 99 860 99 851 q 104 868 99 868 l 151 867 q 200 864 185 864 q 296 867 235 864 l 360 868 q 363 861 363 868 q 357 851 363 851 q 303 844 319 851 q 288 821 288 838 q 294 796 288 813 l 435 460 l 624 728 q 661 811 661 781 q 603 851 661 851 q 597 860 597 851 q 603 868 597 868 l 658 867 q 740 864 706 864 q 789 867 761 864 l 833 868 m 406 942 q 399 948 400 942 q 401 957 397 954 q 558 1047 453 983 l 626 1089 q 659 1083 632 1092 q 706 1063 686 1074 q 717 1050 726 1051 q 559 1003 631 1029 q 408 943 488 978 l 406 942 z "},"Ŷ":{"ha":735,"x_min":99,"x_max":839,"o":"m 833 868 q 839 860 839 868 q 833 851 839 851 q 651 721 744 851 l 440 431 l 385 113 q 379 65 379 86 q 399 26 379 36 q 471 17 418 17 q 476 8 476 17 q 471 0 476 0 q 413 1 433 0 l 328 3 l 240 1 q 182 0 219 0 q 176 8 176 0 q 182 17 176 17 q 251 24 228 17 q 286 51 275 32 q 304 113 297 71 l 357 418 l 215 753 q 167 829 192 807 q 104 851 143 851 q 99 860 99 851 q 104 868 99 868 l 151 867 q 200 864 185 864 q 296 867 235 864 l 360 868 q 363 861 363 868 q 357 851 363 851 q 303 844 319 851 q 288 821 288 838 q 294 796 288 813 l 435 460 l 624 728 q 661 811 661 781 q 603 851 661 851 q 597 860 597 851 q 603 868 597 868 l 658 867 q 740 864 706 864 q 789 867 761 864 l 833 868 m 358 917 q 351 920 354 917 q 351 926 349 924 l 500 1061 q 513 1068 504 1068 q 525 1061 521 1068 l 629 926 l 629 925 q 626 917 629 921 q 619 917 622 914 l 500 996 l 360 917 l 358 917 z "},"Ÿ":{"ha":735,"x_min":99,"x_max":839,"o":"m 833 868 q 839 860 839 868 q 833 851 839 851 q 651 721 744 851 l 440 431 l 385 113 q 379 65 379 86 q 399 26 379 36 q 471 17 418 17 q 476 8 476 17 q 471 0 476 0 q 413 1 433 0 l 328 3 l 240 1 q 182 0 219 0 q 176 8 176 0 q 182 17 176 17 q 251 24 228 17 q 286 51 275 32 q 304 113 297 71 l 357 418 l 215 753 q 167 829 192 807 q 104 851 143 851 q 99 860 99 851 q 104 868 99 868 l 151 867 q 200 864 185 864 q 296 867 235 864 l 360 868 q 363 861 363 868 q 357 851 363 851 q 303 844 319 851 q 288 821 288 838 q 294 796 288 813 l 435 460 l 624 728 q 661 811 661 781 q 603 851 661 851 q 597 860 597 851 q 603 868 597 868 l 658 867 q 740 864 706 864 q 789 867 761 864 l 833 868 m 406 996 q 363 1011 378 996 q 347 1053 347 1026 q 363 1094 347 1079 q 406 1110 378 1110 q 448 1095 433 1110 q 463 1053 463 1081 q 448 1011 463 1026 q 406 996 433 996 m 615 996 q 572 1011 588 996 q 556 1053 556 1026 q 572 1094 556 1079 q 615 1110 588 1110 q 658 1095 643 1110 q 672 1053 672 1081 q 658 1011 672 1026 q 615 996 643 996 z "},"Ẏ":{"ha":735,"x_min":99,"x_max":839,"o":"m 833 868 q 839 860 839 868 q 833 851 839 851 q 651 721 744 851 l 440 431 l 385 113 q 379 65 379 86 q 399 26 379 36 q 471 17 418 17 q 476 8 476 17 q 471 0 476 0 q 413 1 433 0 l 328 3 l 240 1 q 182 0 219 0 q 176 8 176 0 q 182 17 176 17 q 251 24 228 17 q 286 51 275 32 q 304 113 297 71 l 357 418 l 215 753 q 167 829 192 807 q 104 851 143 851 q 99 860 99 851 q 104 868 99 868 l 151 867 q 200 864 185 864 q 296 867 235 864 l 360 868 q 363 861 363 868 q 357 851 363 851 q 303 844 319 851 q 288 821 288 838 q 294 796 288 813 l 435 460 l 624 728 q 661 811 661 781 q 603 851 661 851 q 597 860 597 851 q 603 868 597 868 l 658 867 q 740 864 706 864 q 789 867 761 864 l 833 868 m 501 985 q 458 1001 474 985 q 442 1043 442 1017 q 458 1085 442 1069 q 501 1100 474 1100 q 545 1085 529 1100 q 561 1043 561 1069 q 545 1000 561 1015 q 501 985 529 985 z "},"Ỵ":{"ha":735,"x_min":99,"x_max":839,"o":"m 833 868 q 839 860 839 868 q 833 851 839 851 q 651 721 744 851 l 440 431 l 385 113 q 379 65 379 86 q 399 26 379 36 q 471 17 418 17 q 476 8 476 17 q 471 0 476 0 q 413 1 433 0 l 328 3 l 240 1 q 182 0 219 0 q 176 8 176 0 q 182 17 176 17 q 251 24 228 17 q 286 51 275 32 q 304 113 297 71 l 357 418 l 215 753 q 167 829 192 807 q 104 851 143 851 q 99 860 99 851 q 104 868 99 868 l 151 867 q 200 864 185 864 q 296 867 235 864 l 360 868 q 363 861 363 868 q 357 851 363 851 q 303 844 319 851 q 288 821 288 838 q 294 796 288 813 l 435 460 l 624 728 q 661 811 661 781 q 603 851 661 851 q 597 860 597 851 q 603 868 597 868 l 658 867 q 740 864 706 864 q 789 867 761 864 l 833 868 m 308 -262 q 265 -247 281 -262 q 249 -203 249 -231 q 265 -161 249 -176 q 308 -146 281 -146 q 351 -161 336 -146 q 367 -203 367 -176 q 351 -247 367 -231 q 308 -262 336 -262 z "},"Ỳ":{"ha":735,"x_min":99,"x_max":839,"o":"m 833 868 q 839 860 839 868 q 833 851 839 851 q 651 721 744 851 l 440 431 l 385 113 q 379 65 379 86 q 399 26 379 36 q 471 17 418 17 q 476 8 476 17 q 471 0 476 0 q 413 1 433 0 l 328 3 l 240 1 q 182 0 219 0 q 176 8 176 0 q 182 17 176 17 q 251 24 228 17 q 286 51 275 32 q 304 113 297 71 l 357 418 l 215 753 q 167 829 192 807 q 104 851 143 851 q 99 860 99 851 q 104 868 99 868 l 151 867 q 200 864 185 864 q 296 867 235 864 l 360 868 q 363 861 363 868 q 357 851 363 851 q 303 844 319 851 q 288 821 288 838 q 294 796 288 813 l 435 460 l 624 728 q 661 811 661 781 q 603 851 661 851 q 597 860 597 851 q 603 868 597 868 l 658 867 q 740 864 706 864 q 789 867 761 864 l 833 868 m 606 947 q 478 1005 538 981 q 346 1050 419 1029 q 357 1064 333 1053 q 413 1083 381 1075 q 450 1089 444 1092 q 615 960 550 1004 q 617 957 617 960 q 613 949 617 953 q 606 947 610 946 z "},"Ỷ":{"ha":735,"x_min":99,"x_max":839,"o":"m 833 868 q 839 860 839 868 q 833 851 839 851 q 651 721 744 851 l 440 431 l 385 113 q 379 65 379 86 q 399 26 379 36 q 471 17 418 17 q 476 8 476 17 q 471 0 476 0 q 413 1 433 0 l 328 3 l 240 1 q 182 0 219 0 q 176 8 176 0 q 182 17 176 17 q 251 24 228 17 q 286 51 275 32 q 304 113 297 71 l 357 418 l 215 753 q 167 829 192 807 q 104 851 143 851 q 99 860 99 851 q 104 868 99 868 l 151 867 q 200 864 185 864 q 296 867 235 864 l 360 868 q 363 861 363 868 q 357 851 363 851 q 303 844 319 851 q 288 821 288 838 q 294 796 288 813 l 435 460 l 624 728 q 661 811 661 781 q 603 851 661 851 q 597 860 597 851 q 603 868 597 868 l 658 867 q 740 864 706 864 q 789 867 761 864 l 833 868 m 492 903 q 484 900 492 900 q 475 903 476 900 q 474 918 474 908 q 484 965 474 944 q 515 1011 494 985 q 544 1053 535 1036 q 553 1090 553 1069 q 538 1124 553 1113 q 501 1136 524 1136 q 461 1128 481 1136 l 458 1126 q 451 1131 454 1126 q 454 1139 449 1136 q 547 1167 500 1167 q 607 1149 586 1167 q 628 1106 628 1132 q 609 1053 628 1076 q 556 1000 590 1031 q 506 949 522 971 q 492 903 490 928 z "},"Ȳ":{"ha":735,"x_min":99,"x_max":839,"o":"m 833 868 q 839 860 839 868 q 833 851 839 851 q 651 721 744 851 l 440 431 l 385 113 q 379 65 379 86 q 399 26 379 36 q 471 17 418 17 q 476 8 476 17 q 471 0 476 0 q 413 1 433 0 l 328 3 l 240 1 q 182 0 219 0 q 176 8 176 0 q 182 17 176 17 q 251 24 228 17 q 286 51 275 32 q 304 113 297 71 l 357 418 l 215 753 q 167 829 192 807 q 104 851 143 851 q 99 860 99 851 q 104 868 99 868 l 151 867 q 200 864 185 864 q 296 867 235 864 l 360 868 q 363 861 363 868 q 357 851 363 851 q 303 844 319 851 q 288 821 288 838 q 294 796 288 813 l 435 460 l 624 728 q 661 811 661 781 q 603 851 661 851 q 597 860 597 851 q 603 868 597 868 l 658 867 q 740 864 706 864 q 789 867 761 864 l 833 868 m 346 997 q 338 1017 338 997 q 346 1036 338 1036 l 676 1036 q 685 1017 685 1036 q 676 997 685 997 l 346 997 z "}}}
